<svg width="48" height="48" version="1.1" viewBox="0 0 48 48" xmlns="http://www.w3.org/2000/svg">
 <path d="m28.3 7.34c-0.0269-0.0185-0.067-0.0326-0.113-0.0402l-1.44-0.237c-0.0924-0.0152-0.173 0.00512-0.183 0.0467l-0.563 2.33c-0.0436-0.0041-0.0795 0.00992-0.0934 0.0365l-0.0255-0.00356-0.0011 0.00151-0.145 0.607-0.197 0.826c-0.0142-5e-3 -0.0256-0.012-0.0428-0.015l-0.0041-8.44e-4c-0.0896-0.03-0.178-0.0591-0.266-0.0903-0.0532-0.0189-0.109-0.0379-0.161-0.0572-0.117-0.0432-0.23-0.0884-0.344-0.134-0.0517-0.0205-0.106-0.0396-0.157-0.0606-0.111-0.0455-0.219-0.0939-0.326-0.141-0.0518-0.0229-0.105-0.0442-0.156-0.0674-0.0991-0.0452-0.194-0.0922-0.29-0.139-0.0563-0.0274-0.115-0.0555-0.17-0.0834-0.0869-0.0439-0.169-0.0889-0.254-0.134-0.0613-0.0329-0.125-0.0644-0.185-0.0979-0.0727-0.0406-0.142-0.0841-0.213-0.126-0.0688-0.0404-0.139-0.0784-0.206-0.12-0.0626-0.0386-0.122-0.0792-0.183-0.119-0.0701-0.0452-0.141-0.0909-0.209-0.137-0.0607-0.0411-0.12-0.0827-0.179-0.125-0.066-0.0468-0.133-0.0937-0.197-0.141-0.0515-0.0384-0.101-0.0782-0.151-0.117-0.0691-0.0536-0.139-0.106-0.206-0.161-0.0428-0.035-0.0834-0.0727-0.125-0.108-0.0707-0.0599-0.141-0.12-0.209-0.181-0.0409-0.0367-0.0804-0.0744-0.12-0.112-0.0658-0.0612-0.132-0.122-0.195-0.184-0.0386-0.038-0.0751-0.0768-0.113-0.115-0.0631-0.0644-0.126-0.129-0.187-0.195-0.0298-0.0322-0.0591-0.0654-0.0884-0.098-0.0653-0.0727-0.13-0.144-0.193-0.218-0.0306-0.0363-0.06-0.0748-0.09-0.111-0.0581-0.0711-0.117-0.142-0.172-0.214-0.0066-0.00847-0.0112-0.0179-0.0177-0.0264-0.162-0.212-0.315-0.429-0.457-0.653-0.0678-0.107-0.125-0.218-0.188-0.327-0.0754-0.13-0.156-0.258-0.225-0.39-0.0582-0.112-0.107-0.228-0.161-0.341-0.0644-0.135-0.133-0.269-0.191-0.407-0.0523-0.123-0.0962-0.251-0.144-0.376-0.0516-0.135-0.107-0.266-0.154-0.404-0.052-0.153-0.0954-0.311-0.142-0.467-0.0339-0.114-0.0719-0.225-0.103-0.341-0.0625-0.233-0.117-0.47-0.168-0.709-0.0089-0.0417-0.0196-0.0829-0.0282-0.125-0.0581-0.283-0.109-0.569-0.153-0.86-0.0394-0.262-0.0718-0.528-0.101-0.796-0.0041-0.0383-0.0085-0.0761-0.0124-0.115l-0.0014-0.00118c-0.0296-0.291-0.0529-0.584-0.0712-0.881l-0.0014-0.00118c-2e-3 0.00238-4e-3 0.00499-0.0057 0.00756-1e-3 0.00124-0.0012 0.0018-0.0023 0.00302-0.00192-0.0289-0.00591-0.0575-0.00772-0.0864-5.93 7.21-7.98 15.7-6.16 25.4l0.0024-0.0032c0.0048 0.0261 0.0111 0.0525 0.016 0.0785 1.72-1.89 3.45-3.77 5.38-5.15 9e-3 -0.0066 0.0187-0.0149 0.0279-0.0213 0.207-0.147 0.418-0.284 0.63-0.418 0.0391-0.0247 0.0772-0.052 0.116-0.0764 0.195-0.121 0.394-0.232 0.593-0.341 0.0588-0.0322 0.115-0.069 0.174-0.1 0.384-0.202 0.777-0.382 1.18-0.536l0.0027-3.42e-4c0.133-0.0509 0.266-0.0976 0.402-0.143 0.0036-0.0013 0.0076-0.0043 0.0113-0.0055 0.133-0.0444 0.267-0.0865 0.403-0.125 0.0058-0.0017 0.011-0.0019 0.0168-0.0035 0.134-0.0379 0.27-0.0731 0.406-0.105 8e-3 -2e-3 0.0151-0.0038 0.0231-0.0057 0.13-0.0303 0.26-0.058 0.392-0.0829 0.0159-0.0029 0.0332-0.0061 0.0491-9e-3 0.132-0.0242 0.264-0.0446 0.398-0.0632 0.0148-0.0021 0.0305-0.0052 0.0454-0.0072 0.135-0.0181 0.271-0.0331 0.408-0.0454 0.0146-0.0013 0.0284-0.0029 0.0431-0.0041 0.142-0.012 0.286-0.0194 0.43-0.025 0.0102-4.69e-4 0.0199-0.0021 0.0301-0.0025 0.144-0.0052 0.29-0.0067 0.437-0.0053 0.0119 1.4e-5 0.0237-5.95e-4 0.0356-4.61e-4 0.135 0.0018 0.272 0.0085 0.409 0.016l-0.204 0.82c-0.0073 0.029 0.0203 0.0543 0.0585 0.069l-0.0538 0.224-0.0011 0.0016 0.0917 0.0156-5.78 23.9a1.77 2.58 17.8 0 0-1.35 1.97 1.77 2.58 17.8 0 0 1.14 2.8 1.77 2.58 17.8 0 0 2.38-2.19 1.77 2.58 17.8 0 0-0.373-2.35l5.76-23.8 0.112 0.0198 0.0534-0.227 0.36-1.49 0.0015 0.0012c0.0544-0.0034 0.115-0.0196 0.178-0.0391 0.0134-0.0041 0.0235-0.0039 0.0373-0.0088 0.0784-0.0282 0.162-0.0694 0.253-0.124 1.79-1.07 10.6-0.957 10.6-0.957 0 0-1.09-0.454-2.5-1.1-0.0617-0.0281-0.109-0.0488-0.172-0.0777-2.51-1.15-5.94-2.87-6.45-3.88-0.0011-0.0023-2e-3 -0.0026-0.0033-0.0051-0.0377-0.073-0.0773-0.134-0.118-0.187-0.0133-0.0175-0.0267-0.0341-0.0403-0.0495-0.0364-0.0412-0.0733-0.0752-0.111-0.102-0.0137-0.0097-0.0276-0.0182-0.0414-0.0261-0.0235-0.0132-0.0474-0.025-0.0714-0.0332l0.331-1.32c3e-3 -0.0116-0.0055-0.0231-0.012-0.034l0.0642-0.269-0.0981-0.0134 0.558-2.31c5e-3 -0.0208-0.0084-0.0439-0.0352-0.0624z" stroke-linecap="round" stroke-linejoin="round" stroke-width=".084"/>
</svg>
