<svg width="48" height="48" version="1.1" viewBox="0 0 48 48" xml:space="preserve" xmlns="http://www.w3.org/2000/svg">

    
    

    
    
<path d="m17 0.39-1.4 0.17-3.8 0.12-1.2 0.22-1.2-0.048-1.1 0.08-2.2-0.2 0.063 0.76 0.068 0.84-0.14 1.2-0.07 1.5 0.056 2.4-0.075 1.1-0.07 1.5 0.13 1.2 0.0025 1.1-0.025 1.2-0.01 1.3 0.018 1.2 0.038 1.4-0.055 0.99 0.075 1.4-0.023 1.2 0.0025 1.3 0.0051 1.3 0.1 1.2 0.0025 1.1-0.018 1.3-0.015 1.2 0.028 1.3-0.013 1.2-0.01 1.2-0.07 1.7 2 0.11 1.3-0.11 1.2-0.07 1.3 0.01 1.2-0.086 2.4 0.12 1.3-0.015 1.3 0.023 1.3-0.033 2.6 0.1 1.2-0.015 1.2 0.02 1.3-0.063 1.2 0.053 1.1 0.19 1.7 0.13 1.1-0.3 1.9 0.033-0.0025-1.9-0.0051-1.3 0.0025-1.2v-1.3l-0.013-1.3 0.086-1.3-0.058-1.3-0.01-1.1 0.0051-1.4-0.096-1.4 0.06-1.2-0.088-1.2 0.018-1.3-0.04-1.3 0.025-1.3-0.048-1.1 0.12-1.3 0.045-1.3 0.25-2.5-0.2-1.5-0.04-1 0.083-1.5-0.043-1.2 0.065-1.9-1.8 0.12-3.8-0.12-1.3-0.075-1.2-0.17-2.5-0.058-1.3 0.033-2.7-0.13zm0.038 1.3 3.7 0.19 1.3-0.03 2.4 0.053 1.2 0.17 5.2 0.2 0.44-0.028-0.02 0.56 0.04 1.2-0.083 1.5 0.045 1.1 0.19 1.4-0.1 0.95-0.14 1.4-0.045 1.3-0.13 1.3 0.048 1.2-0.023 1.3 0.04 1.3-0.018 1.3 0.086 1.2-0.06 1.2 0.098 1.4-0.0051 1.4 0.01 1.1 0.055 1.3-0.086 1.3 0.015 1.3v1.3l-0.0025 1.2 0.0051 1.3v0.63l-0.72-0.013-1.1 0.29-1.4-0.11-1.1-0.2-1.4-0.058-1.3 0.063-1.2-0.02-1.2 0.015-1.4-0.025-1.2-0.08-1.3 0.033-1.2-0.023-1.3 0.015-2.5-0.12-1.3 0.088-1.3-0.01-2.4 0.18-0.61-0.033 0.02-0.5 0.01-1.3 0.013-1.2-0.028-1.3 0.013-1.2 0.02-1.3-0.0025-1.2-0.1-1.2-0.0051-1.2-0.0025-1.3 0.023-1.2-0.075-1.4 0.058-0.97-0.04-1.4-0.018-1.2 0.01-1.3 0.025-1.2-0.0025-1.2-0.13-1.1 0.068-1.4 0.075-1.2-0.028-1.3-0.028-1.1 0.068-1.4 0.15-1.3-0.018-0.2 0.81 0.073 1.1-0.08 1.2 0.05 1.3-0.22 3.7-0.12zm0.43 1-1.2 0.17-1.1-0.0024-5 0.18-1.8-0.1-0.045 0.63-0.078 1.1 0.13 1.3 0.11 1.2-0.0025 1.2 0.045 1.3 0.078 1.2-0.12 1.2-0.088 1.2 0.025 1.3 0.075 1.3-0.0025 1.2 0.02 1.2-0.0025 1.2-0.03 1.3 0.06 1.2-0.11 1.4 0.0051 1.3-0.01 1.3 0.0076 1.2v1.4l-0.088 1.1 0.01 1.9 5.4 0.26 1.3-0.16 1.2 0.035 1.3-0.06 1 0.025 1.3 0.096 1.3-0.055 1.1-0.13 1.2-0.018 2.5 0.078 1.1-0.065 1.3 0.12 1.8-0.04 0.22-1.8-0.083-1.4 0.12-1.2-0.12-1.3 0.035-1.1 0.15-1.5-0.12-1.1-0.065-1.2-0.053-1.3-0.033-1.2-0.023-1.1 0.033-1.4-0.0076-1.3-0.01-1.2-0.018-1.2-0.08-1.2 0.083-1.4 0.0076-1.3 0.098-1.3-0.12-1.1 0.043-1.3-0.058-1.9-4.1-0.12-1.1-0.14-1.2-0.015-2.6 0.0076zm0.08 1.3 3.6 0.048 2.6-0.0076 1.1 0.015 1.1 0.14 2.5 0.055 0.52 0.018 0.018 0.64-0.043 1.3 0.11 1.1-0.093 1.2-0.0076 1.3-0.085 1.4 0.083 1.3 0.018 1.2 0.01 1.2 0.0076 1.2-0.033 1.4 0.023 1.1 0.033 1.3 0.055 1.3 0.068 1.3 0.11 1-0.14 1.4-0.04 1.2 0.12 1.3-0.12 1.1 0.083 1.4-0.07 0.59-0.64 0.013-1.3-0.12-1.1 0.068-1.2-0.028-1.2-0.05-1.3 0.02-1.2 0.13-1.2 0.053-1.2-0.096-1.1-0.028-1.3 0.06-1.2-0.035-1.3 0.15-4.1-0.2-0.0025-0.64 0.088-1.1v-1.4l-0.0075-1.2 0.01-1.3-0.0051-1.3 0.11-1.4-0.063-1.2 0.03-1.3 0.0025-1.3-0.02-1.2 0.0025-1.2-0.075-1.3-0.025-1.2 0.083-1.1 0.13-1.3-0.083-1.3-0.043-1.3 0.0025-1.3-0.11-1.3-0.12-1.2 0.023-0.31 0.6 0.033 5-0.18 1.2 0.0025zm-1.5 0.64c-3.1 3.8-4.2 8.3-3.3 13 0.0024 0.013 0.0051 0.027 0.0076 0.04 0.91-1 1.8-2 2.8-2.7 0.0047-0.0033 0.01-0.0067 0.015-0.01 0.11-0.078 0.22-0.15 0.33-0.22 0.021-0.013 0.04-0.027 0.06-0.04 0.1-0.064 0.21-0.12 0.31-0.18 0.031-0.017 0.062-0.036 0.093-0.053 0.2-0.11 0.41-0.2 0.62-0.28h0.0025c0.07-0.027 0.14-0.051 0.21-0.075 2e-3 -6.9e-4 0.0056-2e-3 0.0076-0.0025 0.07-0.023 0.14-0.048 0.21-0.068 0.0032-9e-4 0.0069 8e-4 0.01 0 0.071-0.02 0.14-0.038 0.21-0.055 0.0043-0.0011 0.0084-4e-3 0.013-0.0051 0.069-0.016 0.14-0.03 0.21-0.043 0.0085-0.0015 0.017-0.0036 0.025-0.0051 0.07-0.013 0.14-0.023 0.21-0.033 0.0078-0.0011 0.015-0.0041 0.023-0.0051 0.071-0.0096 0.14-0.016 0.22-0.023 0.0076-6.9e-4 0.015-2e-3 0.023-0.0025 0.075-0.0064 0.15-0.0097 0.23-0.013 0.0053-2.5e-4 0.0096-0.0022 0.015-0.0025 0.076-0.0029 0.15-0.0033 0.23-0.0025 0.0064 7e-6 0.014-7e-5 0.02 0 0.071 9.5e-4 0.14 0.0037 0.22 0.0076l-0.11 0.43c-0.0039 0.015 0.01 0.027 0.03 0.035l-0.028 0.12-0.0025 0.0025 0.05 0.0076-3.1 13a0.94 1.4 18 0 0-0.71 1 0.94 1.4 18 0 0 0.6 1.5 0.94 1.4 18 0 0 1.3-1.2 0.94 1.4 18 0 0-0.2-1.2l3-13 0.058 0.013 0.028-0.12 0.19-0.79c0.029-0.0018 0.062-0.012 0.096-0.023 7e-3 -0.0022 0.013-0.0024 0.02-0.0051 0.041-0.015 0.085-0.036 0.13-0.065 0.95-0.57 5.6-0.51 5.6-0.51s-0.58-0.24-1.3-0.58c-0.033-0.015-0.057-0.027-0.091-0.043-1.3-0.61-3.1-1.5-3.4-2.1l-0.0025-0.0025c-0.02-0.039-0.041-0.073-0.063-0.1-7e-3 -0.0093-0.013-0.017-0.02-0.025-0.019-0.022-0.038-0.041-0.058-0.055-0.0073-0.0052-0.015-0.0083-0.023-0.013-0.012-0.0071-0.025-0.013-0.038-0.018l0.18-0.7c0.0015-0.0062-0.0043-0.012-0.0076-0.018l0.035-0.14-0.053-0.0051 0.29-1.2c0.0025-0.011-0.0033-0.025-0.018-0.035l0.013-0.025c-0.014-0.0098-0.036-0.016-0.06-0.02l-0.76-0.13c-0.049-0.0079-0.093 0.0032-0.098 0.025l-0.3 1.2c-0.023-0.0022-0.043 0.0061-0.05 0.02l-0.013-0.0025-0.078 0.32-0.1 0.44c-0.0075-0.0025-0.014-0.0085-0.023-0.01h-0.0025c-0.047-0.016-0.094-0.031-0.14-0.048-0.028-0.01-0.058-0.02-0.086-0.03-0.062-0.023-0.12-0.046-0.18-0.07-0.027-0.011-0.056-0.022-0.083-0.033-0.059-0.024-0.12-0.048-0.17-0.073-0.027-0.012-0.056-0.025-0.083-0.038-0.052-0.024-0.1-0.048-0.15-0.073-0.03-0.015-0.061-0.028-0.091-0.043-0.046-0.023-0.088-0.049-0.13-0.073-0.032-0.017-0.066-0.033-0.098-0.05-0.038-0.021-0.076-0.046-0.11-0.068-0.036-0.021-0.073-0.041-0.11-0.063-0.033-0.02-0.066-0.042-0.098-0.063-0.037-0.024-0.075-0.049-0.11-0.073-0.032-0.022-0.062-0.043-0.093-0.065-0.035-0.025-0.072-0.05-0.11-0.075-0.027-0.02-0.054-0.04-0.08-0.06-0.037-0.028-0.073-0.056-0.11-0.085-0.023-0.019-0.043-0.039-0.065-0.058-0.037-0.032-0.075-0.063-0.11-0.096-0.022-0.019-0.042-0.04-0.063-0.06-0.035-0.032-0.072-0.063-0.11-0.096-0.02-0.02-0.038-0.043-0.058-0.063-0.033-0.034-0.068-0.068-0.1-0.1-0.016-0.017-0.03-0.033-0.045-0.05-0.035-0.038-0.07-0.077-0.1-0.12-0.016-0.019-0.032-0.039-0.048-0.058-0.031-0.038-0.061-0.075-0.091-0.11-0.0033-0.0046-0.0066-0.01-0.01-0.015-0.086-0.11-0.17-0.23-0.24-0.34-0.036-0.057-0.065-0.12-0.098-0.17-0.04-0.069-0.084-0.14-0.12-0.21-0.031-0.059-0.057-0.12-0.086-0.18-0.034-0.071-0.07-0.14-0.1-0.22-0.028-0.065-0.05-0.13-0.075-0.2-0.027-0.071-0.056-0.14-0.08-0.21-0.028-0.081-0.051-0.16-0.075-0.25-0.018-0.06-0.039-0.12-0.055-0.18-0.033-0.12-0.061-0.25-0.088-0.37-0.0047-0.022-0.011-0.043-0.015-0.065-0.031-0.15-0.06-0.3-0.083-0.46-0.021-0.14-0.037-0.28-0.053-0.42-0.0021-0.02-0.0031-0.04-0.0051-0.06h-0.0025c-0.016-0.15-0.028-0.31-0.038-0.47-0.0011 0.0013-0.0017 0.0035-0.0025 0.0051h-0.0025c-1e-3 -0.015-0.0017-0.03-0.0025-0.045z"/><path d="m32 14v1.3l2.1 0.047 1.2 0.17 5.2 0.2 0.44-0.027-0.02 0.56 0.039 1.2-0.082 1.5 0.045 1.1 0.19 1.4-0.1 0.95-0.14 1.4-0.045 1.3-0.13 1.3 0.049 1.2-0.023 1.3 0.041 1.3-0.018 1.3 0.084 1.2-0.061 1.2 0.1 1.4-0.0059 1.4 0.0098 1.1 0.057 1.3-0.086 1.3 0.014 1.3v1.3l-2e-3 1.2 0.0059 1.3v0.63l-0.72-0.012-1.1 0.29-1.4-0.11-1.1-0.2-1.4-0.059-1.3 0.062-1.2-0.02-1.2 0.016-1.4-0.025-1.2-0.08-1.3 0.031-1.2-0.021-1.3 0.014-2.5-0.12-1.3 0.088-1.3-0.0098-2.4 0.18-0.61-0.031 0.02-0.5 0.0098-1.3 0.014-1.2-0.029-1.3 0.014-1.2 0.02-1.3-2e-3 -1.2-0.1-1.2-0.0039-1.2-0.0039-1.3 0.018-0.87h-1.3l-0.018 0.86 2e-3 1.3 0.0059 1.3 0.1 1.2 2e-3 1.1-0.018 1.3-0.016 1.2 0.029 1.3-0.014 1.2-0.0098 1.2-0.07 1.7 2 0.11 1.3-0.11 1.2-0.07 1.3 0.0098 1.2-0.086 2.4 0.12 1.3-0.016 1.3 0.021 1.3-0.031 2.6 0.1 1.2-0.016 1.2 0.02 1.3-0.062 1.2 0.053 1.1 0.19 1.7 0.13 1.1-0.3 1.9 0.033-2e-3 -1.9-0.0059-1.3 0.0039-1.2v-1.3l-0.014-1.3 0.086-1.3-0.059-1.3-0.0098-1.1 0.0059-1.4-0.096-1.4 0.061-1.2-0.088-1.2 0.018-1.3-0.041-1.3 0.025-1.3-0.047-1.1 0.12-1.3 0.047-1.3 0.25-2.5-0.2-1.5-0.041-1 0.084-1.5-0.043-1.2 0.064-1.9-1.8 0.12-3.8-0.12-1.3-0.076-1.2-0.17zm1.3 2.2-1.3 0.0039v1.3l1.3-0.0039 1.1 0.016 1.1 0.14 2.5 0.055 0.52 0.018 0.018 0.64-0.043 1.3 0.11 1.1-0.094 1.2-0.0078 1.3-0.086 1.4 0.084 1.3 0.018 1.2 0.0098 1.2 0.0078 1.2-0.033 1.4 0.023 1.1 0.031 1.3 0.057 1.3 0.068 1.3 0.11 1-0.13 1.4-0.041 1.2 0.12 1.3-0.12 1.2 0.084 1.4-0.072 0.59-0.64 0.012-1.3-0.12-1.1 0.068-1.2-0.027-1.2-0.051-1.3 0.02-1.2 0.13-1.2 0.053-1.2-0.096-1.1-0.027-1.3 0.061-1.2-0.035-1.3 0.15-4.1-0.2-2e-3 -0.64 0.088-1.1v-1.4l-0.0078-1.2 0.0098-1.3-0.0039-1.3 0.11-1.4-0.062-1.2 0.018-0.75h-1.3l-0.018 0.76 0.061 1.2-0.11 1.4 0.0039 1.3-0.0098 1.3 0.0078 1.2v1.4l-0.088 1.1 0.0098 1.9 5.4 0.26 1.3-0.16 1.2 0.035 1.3-0.061 1 0.025 1.3 0.096 1.3-0.055 1.1-0.13 1.2-0.018 2.5 0.078 1.1-0.064 1.3 0.12 1.8-0.041 0.21-1.8-0.082-1.4 0.12-1.2-0.12-1.3 0.035-1.1 0.14-1.5-0.12-1.1-0.064-1.2-0.053-1.3-0.033-1.2-0.023-1.1 0.033-1.4-0.0078-1.3-0.0098-1.2-0.018-1.2-0.08-1.2 0.082-1.4 0.0078-1.3 0.098-1.3-0.12-1.1 0.043-1.3-0.059-1.9-4.1-0.12-1.1-0.14zm-1.3 8.9v2c1.7-0.17 3.9-0.14 3.9-0.14s-0.58-0.24-1.3-0.58c-0.033-0.015-0.058-0.028-0.092-0.043-0.79-0.36-1.8-0.84-2.5-1.3zm-4.5 8.5-1.8 7.4a0.94 1.4 18 0 0-0.71 1 0.94 1.4 18 0 0 0.6 1.5 0.94 1.4 18 0 0 1.3-1.2 0.94 1.4 18 0 0-0.2-1.2l1.8-7.5z" opacity=".5"/></svg>
