<!-- Created with Inkscape (http://www.inkscape.org/) -->
<svg width="48" height="48" version="1.1" viewBox="0 0 48 48" xmlns="http://www.w3.org/2000/svg">
 <path d="m38.3 23.9a4.78 4.78 0 0 1-4.78 4.78 4.78 4.78 0 0 1-4.78-4.78 4.78 4.78 0 0 1 4.78-4.78 4.78 4.78 0 0 1 4.78 4.78zm-19.1 1e-6a4.78 4.78 0 0 1-4.78 4.78 4.78 4.78 0 0 1-4.78-4.78 4.78 4.78 0 0 1 4.78-4.78 4.78 4.78 0 0 1 4.78 4.78zm19.1 19.3a4.78 4.78 0 0 1-4.78 4.78 4.78 4.78 0 0 1-4.78-4.78 4.78 4.78 0 0 1 4.78-4.78 4.78 4.78 0 0 1 4.78 4.78zm-19.1-4e-6a4.78 4.78 0 0 1-4.78 4.78 4.78 4.78 0 0 1-4.78-4.78 4.78 4.78 0 0 1 4.78-4.78 4.78 4.78 0 0 1 4.78 4.78zm19.1-38.4a4.78 4.78 0 0 1-4.78 4.78 4.78 4.78 0 0 1-4.78-4.78 4.78 4.78 0 0 1 4.78-4.78 4.78 4.78 0 0 1 4.78 4.78zm-19.1 1.1e-6a4.78 4.78 0 0 1-4.78 4.78 4.78 4.78 0 0 1-4.78-4.78 4.78 4.78 0 0 1 4.78-4.78 4.78 4.78 0 0 1 4.78 4.78z" fill="#f00" stroke-linecap="round" stroke-linejoin="round" stroke-width="32.7"/>
</svg>
