<svg width="48" height="48" version="1.1" viewBox="0 0 48 48" xmlns="http://www.w3.org/2000/svg">
 <path d="m38.9 15.1-3.25 3.25c0.06 0.0375 0.119 0.0735 0.177 0.111 2.82 1.8 5.21 4.21 7.01 7.05-1.8 2.84-4.19 5.25-7.01 7.05-3.54 2.26-7.64 3.45-11.8 3.45-1.81 0-3.6-0.224-5.34-0.659l-3.6 3.6c2.8 1.01 5.81 1.55 8.95 1.55 10.5 0 19.5-6.1 24-15-2.11-4.22-5.26-7.8-9.09-10.4zm-2.91 7.13c0-1.27-0.2-2.5-0.567-3.65l-15.1 15.1c1.15 0.368 2.38 0.567 3.65 0.567 6.63 0 12-5.37 12-12zm8.34-20.1c-0.879-0.879-2.3-0.879-3.18 0l-9.48 9.48c-2.43-0.738-5.01-1.14-7.68-1.14-10.5 0-19.5 6.1-24 15 1.93 3.85 4.72 7.17 8.11 9.71l-7.45 7.45c-0.879 0.879-0.879 2.3 0 3.18 0.44 0.44 1.02 0.659 1.59 0.659s1.15-0.219 1.59-0.659l40.5-40.5c0.879-0.879 0.879-2.3 0-3.18zm-24.8 14.3c1.98 0 3.66 1.28 4.26 3.06l-5.71 5.71c-1.78-0.602-3.06-2.28-3.06-4.26 0-2.49 2.01-4.5 4.5-4.5zm-14.3 9c1.8-2.84 4.19-5.25 7.01-7.05 0.183-0.117 0.369-0.231 0.557-0.342-0.467 1.28-0.723 2.66-0.723 4.11 0 2.57 0.81 4.96 2.19 6.91l-2.86 2.86c-2.46-1.73-4.56-3.93-6.17-6.48z" stroke-width="1.5"/>
</svg>
