<svg width="48" height="48" version="1.1" viewBox="0 0 48 48" xmlns="http://www.w3.org/2000/svg">
 <path d="m24 10.5c-10.5 0-19.5 6.1-24 15 4.46 8.91 13.5 15 24 15s19.5-6.1 24-15c-4.46-8.91-13.5-15-24-15zm11.8 7.96c2.82 1.8 5.21 4.21 7.01 7.05-1.8 2.84-4.19 5.25-7.01 7.05-3.54 2.26-7.64 3.46-11.8 3.46s-8.29-1.19-11.8-3.46c-2.82-1.8-5.21-4.21-7.01-7.05 1.8-2.84 4.19-5.25 7.01-7.05 0.183-0.117 0.369-0.231 0.557-0.342-0.467 1.28-0.723 2.66-0.723 4.11 0 6.63 5.37 12 12 12s12-5.37 12-12c0-1.44-0.255-2.83-0.723-4.11 0.186 0.111 0.372 0.225 0.557 0.342zm-11.8 2.55c0 2.49-2.01 4.5-4.5 4.5-2.49 0-4.5-2.01-4.5-4.5 0-2.49 2.01-4.5 4.5-4.5 2.49 0 4.5 2.01 4.5 4.5z" stroke-width="1.5"/>
</svg>
