<!-- Generator: Adobe Illustrator 26.0.3, SVG Export Plug-In . SVG Version: 6.00 Build 0)  -->
<svg width="48" height="48" version="1.1" viewBox="0 0 48 48" xml:space="preserve" xmlns="http://www.w3.org/2000/svg">


		
		
		
		
		
		
		
		
		
		
		
		
		
		
		
		
		
		<path d="m39 11c-0.08 0.0098-0.15 0.041-0.21 0.1-0.22 0.21-0.5 0.28-0.78 0.35-0.12 0.031-0.24 0.092-0.37 0.13-0.37 0.12-0.74 0.25-1.1 0.36-0.11 0.031-0.26 0.026-0.36-0.022-0.32-0.16-0.56-0.083-0.79 0.16-0.14 0.15-0.31 0.23-0.54 0.23-0.42-0.0044-0.85 0.031-1.3 0.083-0.43 0.057-0.81 0.21-1.1 0.61-0.12 0.19-0.31 0.35-0.49 0.49-0.23 0.19-0.49 0.29-0.81 0.22-0.083-0.017-0.2 0.026-0.28 0.074-0.66 0.42-1.3 0.84-2 1.3-0.14 0.096-0.27 0.22-0.41 0.32-0.15 0.1-0.3 0.2-0.46 0.28-0.24 0.12-0.5 0.2-0.71 0.35-0.4 0.28-0.67 0.68-0.88 1.1-0.12 0.24-0.27 0.45-0.48 0.63-0.32 0.29-0.58 0.62-0.71 1-0.092 0.3-0.25 0.59-0.42 0.86-0.074 0.12-0.1 0.22-0.079 0.35 0.052 0.25 0.1 0.51 0.16 0.76 0.1 0.48 0.16 0.94 0.035 1.4-0.066 0.25-0.13 0.54 0.022 0.81 0.19 0.33 0.18 0.68 0.13 1-0.087 0.62 0.14 1.1 0.73 1.2 0.39 0.12 0.67 0.35 0.94 0.62 0.19 0.2 0.4 0.39 0.6 0.58 0.048 0.048 0.11 0.1 0.17 0.11 0.37 0.044 0.63 0.26 0.84 0.54 0.14 0.19 0.21 0.44 0.34 0.64 0.31 0.48 1.2 0.73 1.7 0.52 0.092-0.035 0.2-0.061 0.29-0.061 0.25 0 0.5 0.031 0.74 0.022 0.23-0.0044 0.42 0.039 0.61 0.18 0.18 0.14 0.4 0.24 0.6 0.35 0.17 0.096 0.33 0.11 0.49-0.0044 0.15-0.11 0.26-0.083 0.39 0.048 0.32 0.31 0.69 0.5 1.2 0.44 0.28-0.035 0.57-0.1 0.84-0.074 0.83 0.092 1.7 0.079 2.5 0.35 0.38 0.13 0.76 0.11 1.2-0.092 0.28-0.15 0.61-0.24 0.93-0.27 0.48-0.044 0.92-0.17 1.3-0.4 0.061-0.035 0.15-0.031 0.23-0.018 0.43 0.079 0.87 0.14 1.3-0.1 0.3-0.18 0.61-0.25 0.94-0.27 0.044 0 0.087-0.0044 0.13-0.0088 0.41-0.039 0.79-0.12 1.1-0.39 0.31-0.26 0.66-0.49 1-0.68 0.25-0.14 0.54-0.2 0.81-0.28 0.22-0.07 0.45-0.1 0.66-0.2 0.13-0.057 0.25-0.17 0.35-0.28 0.1-0.14 0.11-0.32-0.0066-0.45-0.079-0.083-0.24-0.14-0.35-0.13-0.41 0.026-0.81 0.092-1.2 0.13-0.32 0.026-0.65 0.083-0.97 0.039-0.24-0.035-0.47-0.044-0.7-0.035-0.33 0.013-0.62 0.079-0.86 0.34-0.14 0.16-0.32 0.27-0.49 0.4-0.15 0.12-0.31 0.16-0.5 0.083-0.35-0.14-0.72-0.2-1.1-0.079-0.18 0.057-0.38 0.087-0.57 0.074-0.33-0.026-0.65-0.035-0.97 0.079-0.052 0.017-0.11 3.5e-5 -0.17-0.0087-0.38-0.044-0.76-0.11-1.1-0.13-0.29-0.0087-0.56 0.057-0.88-0.031-0.59-0.17-1.2-0.38-1.7-0.63-0.1-0.048-0.23-0.066-0.35-0.057-0.38 0.031-0.78 0.14-1.1-0.13-0.54-0.43-1.1-0.76-1.8-0.99-0.087-0.031-0.16-0.16-0.2-0.25-0.1-0.27-0.24-0.53-0.51-0.62-0.45-0.14-0.6-0.48-0.74-0.87-0.057-0.15-0.17-0.31-0.3-0.4-0.14-0.1-0.33-0.16-0.5-0.18-0.31-0.044-0.51-0.22-0.66-0.48-0.048-0.083-0.13-0.16-0.21-0.21-0.46-0.3-0.64-0.72-0.58-1.3 0.026-0.22-0.0066-0.46-0.066-0.68-0.13-0.45-0.29-0.88-0.44-1.3-0.1-0.31 0.087-0.8 0.36-0.97 0.057-0.035 0.096-0.1 0.13-0.16 0.32-0.59 0.69-1.1 1.2-1.6 0.25-0.2 0.49-0.41 0.72-0.64 0.27-0.28 0.55-0.53 0.94-0.63 0.096-0.026 0.18-0.087 0.27-0.14 0.24-0.15 0.45-0.36 0.76-0.3 0.018 0.0044 0.039-0.017 0.061-0.022 0.24-0.057 0.48-0.13 0.72-0.16 0.2-0.017 0.34-0.1 0.48-0.22 0.32-0.28 0.68-0.39 1.1-0.24 0.21 0.07 0.42 0.11 0.64 0.11 0.38-0.0044 0.77-0.061 1.2-0.074 0.15-0.0044 0.32 0.022 0.46 0.079 0.33 0.14 0.65 0.12 0.99 0.079 0.33-0.039 0.66-0.079 1-0.07 0.62 0.013 1.2 0.19 1.9 0.083 0.24-0.039 0.43 0.16 0.51 0.39 0.12 0.37 0.19 0.77 0.53 1-0.026 0.07-0.052 0.13-0.1 0.18-0.16 0.44-0.15 0.87 0.1 1.3 0.12 0.2 0.4 0.32 0.54 0.19 0.28-0.24 0.6-0.49 0.74-0.81 0.31-0.7 0.51-1.4 0.53-2.2 0.0085-0.23 0.079-0.47 0.16-0.69 0.074-0.22 0.23-0.38 0.49-0.41 0.048-0.0044 0.096-0.035 0.13-0.066 0.34-0.3 0.68-0.6 1-0.9 0.14-0.13 0.11-0.3-0.07-0.36-0.23-0.083-0.45-0.048-0.65 0.083-0.23 0.16-0.41 0.11-0.62-0.031-0.074-0.052-0.19-0.074-0.28-0.061-0.25 0.035-0.5 0.1-0.75 0.14-0.6 0.1-1.2 0.17-1.7-0.33-0.17-0.17-0.4-0.23-0.66-0.14-0.12 0.044-0.27 0.013-0.41 0.013-0.24 0-0.47-0.0044-0.71-0.0088-0.16-0.0044-0.32 0.018-0.47-0.013-0.3-0.057-0.6-0.13-0.89-0.21-0.087-0.028-0.17-0.04-0.25-0.031zm-22-0.0034c-0.24 0.0044-0.33 0.26-0.44 0.45-0.0066 0.0087-0.022 0.013-0.039 0.022-0.22-0.14-0.43-0.29-0.66-0.41-0.11-0.052-0.28-0.079-0.38-0.035-0.31 0.12-0.61 0.28-0.91 0.42-0.079 0.035-0.16 0.061-0.24 0.074-0.14 0.022-0.29 0.013-0.42 0.048-0.49 0.13-0.99 0.21-1.4 0.46-0.23 0.12-0.51 0.17-0.77 0.2-0.52 0.061-1 0.21-1.4 0.5-0.087 0.057-0.22 0.057-0.34 0.066-0.14 0.0087-0.3-0.044-0.42 0.0043-0.33 0.14-0.64 0.092-0.96-0.044-0.039-0.017-0.087-0.035-0.13-0.031-0.17 0.017-0.36 0.013-0.52 0.083-0.074 0.031-0.092 0.2-0.13 0.31-0.057 0.2-0.17 0.38-0.38 0.41-0.32 0.057-0.59 0.22-0.89 0.33-0.52 0.19-1 0.33-1.5 0.68-0.29 0.22-0.55 0.44-0.71 0.77-0.035 0.074-0.11 0.14-0.19 0.18-0.36 0.23-0.74 0.43-1.1 0.69-0.42 0.32-0.75 0.74-0.97 1.2-0.14 0.31-0.24 0.63-0.51 0.84-0.38 0.28-0.56 0.66-0.69 1.1-0.07 0.24-0.22 0.46-0.34 0.69 0 0.19 0 0.38 0.0066 0.57 0.061 0.28 0.18 0.56 0.16 0.84-0.026 0.49 0.074 0.97 0.1 1.5 0 0.034-0.0066 0.069-0.0066 0.1 0 0.038 0 0.076-0.0066 0.11-0.011 0.15-0.03 0.3-0.039 0.44-0.0066 0.1-0.022 0.22 0.013 0.31 0.11 0.3 0.24 0.59 0.36 0.88 0.12 0.28 0.28 0.52 0.47 0.75 0.19 0.22 0.4 0.43 0.6 0.65 0.0092 0.0094 0.018 0.018 0.027 0.028 0.068 0.071 0.14 0.14 0.21 0.2 0.08 0.071 0.16 0.14 0.25 0.2 0.14 0.11 0.29 0.2 0.44 0.29 0.33 0.19 0.67 0.36 1 0.52 0.052 0.026 0.096 0.072 0.14 0.12 0.0085 0.0099 0.018 0.02 0.026 0.029 0.19 0.23 0.42 0.4 0.68 0.54 0.086 0.047 0.17 0.09 0.27 0.13 0.42 0.19 0.81 0.42 1.2 0.65 0.18 0.1 0.35 0.14 0.54 0.052 0.42-0.18 0.84-0.061 1.3-0.031 0.029 0.0023 0.06 0.016 0.089 0.035 0.02 0.013 0.036 0.03 0.052 0.046 0.0066 5e-3 0.012 0.0094 0.016 0.014v0.0027c4.6e-4 6.6e-4 0 0.0011 0 0.0018 0.058 0.072 0.12 0.14 0.18 0.19 0.45 0.41 1 0.47 1.6 0.43 0.17-0.013 0.32-0.15 0.48-0.24 0.21-0.13 0.43-0.15 0.67-0.07 0.039 0.013 0.087 0.022 0.12 0.039 0.018 9e-3 0.037 0.016 0.056 0.024 0.076 0.035 0.15 0.064 0.23 0.089 0.36 0.11 0.73 0.12 1.1-0.043 0.15-0.061 0.38-0.013 0.56 0.039 0.028 0.0076 0.056 0.013 0.083 0.019 0.052 0.012 0.1 0.021 0.15 0.028 0.22 0.031 0.45 0.025 0.66 0.0075 0.035-0.0027 0.07-0.0048 0.11-0.0079 0.089-8e-3 0.18-0.017 0.27-0.025 0.24-0.022 0.5-0.044 0.73 0.013 0.02 0.0049 0.041 0.0067 0.061 0.01 0.045 0.0078 0.09 0.012 0.13 0.014 0.27 0.0087 0.53-0.083 0.8-0.094 0.72-0.031 1.3-0.43 2-0.52 0.29-0.037 0.56-0.11 0.83-0.2 0-1e-3 0.0066-0.0021 0.0092-0.0031 0.45-0.15 0.87-0.35 1.3-0.55 0.12-0.056 0.21-0.038 0.26 0.049 0.02 0.03 0.037 0.066 0.049 0.11 0.074 0.26 0.17 0.52 0.24 0.78 0.022 0.074 0.035 0.17 0.018 0.24-0.11 0.46-0.22 0.93-0.37 1.4-0.061 0.19-0.22 0.35-0.34 0.52-0.057 0.083-0.13 0.15-0.17 0.24-0.14 0.32-0.24 0.66-0.51 0.93-0.092 0.092-0.07 0.3-0.096 0.45-0.029 0.17-0.058 0.33-0.13 0.49-0.0066 0.011-0.01 0.023-0.016 0.034-0.022 0.045-0.05 0.087-0.081 0.13-0.015 0.019-0.031 0.038-0.049 0.057-0.018 0.019-0.03 0.04-0.05 0.058-0.07 0.057-0.079 0.18-0.12 0.28-0.16 0.4-0.32 0.81-0.49 1.2-0.044 0.1-0.15 0.18-0.24 0.26-0.16 0.14-0.35 0.24-0.5 0.38-0.25 0.24-0.28 0.49-0.095 0.69 0.061 0.064 0.14 0.12 0.25 0.17 0.07 0.035 0.14 0.07 0.21 0.11h-0.0066c0 0.0014 0.0066 0.0029 0.0085 0.0044h0.22c0.057-0.031 0.12-0.052 0.17-0.092 0.28-0.21 0.65-0.36 0.81-0.63 0.21-0.38 0.43-0.75 0.64-1.1 0.23-0.42 0.53-0.76 0.87-1.1 0.1-0.1 0.17-0.19 0.19-0.35 0.0085-0.12 0.083-0.28 0.18-0.33 0.2-0.1 0.21-0.26 0.24-0.43 0.022-0.11 0.039-0.23 0.061-0.34 0.031-0.17 0.13-0.27 0.28-0.35 0.3-0.17 0.59-0.37 0.86-0.59 0.18-0.15 0.24-0.37 0.21-0.61-0.039-0.31-0.061-0.62-0.066-0.94 0-0.1 0.066-0.22 0.14-0.29 0.26-0.23 0.54-0.44 0.83-0.64 0.11-0.083 0.14-0.17 0.16-0.31 0.048-0.32 0.087-0.66 0.23-0.94 0.12-0.24 0.12-0.4-0.018-0.59-0.13-0.17-0.12-0.33-0.044-0.51 0.11-0.26 0.21-0.53 0.32-0.79 0.19-0.44 0.092-0.8-0.28-1.1-0.13-0.096-0.13-0.21-0.044-0.32 0.07-0.092 0.16-0.17 0.24-0.24 0.15-0.13 0.32-0.23 0.45-0.38 0.087-0.11 0.13-0.27 0.15-0.41 0.035-0.22 0.066-0.45 0.044-0.66-0.018-0.2-0.061-0.43-0.18-0.56-0.28-0.31-0.62-0.56-0.93-0.86-0.11-0.1-0.15-0.27-0.24-0.4-0.083-0.12-0.17-0.27-0.29-0.34-0.34-0.19-0.71-0.24-1.1-0.14-0.28 0.074-0.55 0.16-0.83 0.24-0.34 0.1-0.69 0.18-0.8 0.6-0.0085 0.026-0.031 0.048-0.052 0.07-0.3 0.3-0.66 0.49-1.1 0.55-0.45 0.066-0.79 0.27-1 0.63-0.13 0.19-0.23 0.4-0.34 0.59-0.24-0.061-0.48-0.12-0.72-0.17-0.18-0.039-0.31 0.026-0.37 0.21-0.1 0.31-0.23 0.61-0.31 0.93-0.1 0.37 0.1 0.76 0.44 0.82 0.54 0.11 1-0.026 1.5-0.31 0.079-0.048 0.12-0.16 0.17-0.24 0.11-0.19 0.2-0.4 0.34-0.58 0.19-0.23 0.49-0.24 0.66-0.0044 0.16 0.22 0.28 0.5 0.33 0.76 0.048 0.24-0.07 0.51 0.21 0.67 0.0085 0.0044 0.013 0.026 0.017 0.039 0.079 0.27 0.16 0.53 0.22 0.8 0.07 0.31-0.087 0.53-0.4 0.63-0.26 0.079-0.53 0.15-0.78 0.26-0.14 0.057-0.27 0.16-0.36 0.28-0.27 0.34-0.91 0.56-1.2 0.4-0.32-0.15-0.66-0.29-1-0.42-0.074-0.031-0.19-0.057-0.25-0.022-0.31 0.18-0.64 0.18-0.98 0.12-0.052-0.0087-0.12 0.0044-0.17 0.026-0.19 0.087-0.38 0.052-0.57-0.0087-0.49-0.16-0.99-0.25-1.5-0.12-0.18 0.044-0.43 0.031-0.59-0.061-0.33-0.2-0.67-0.25-1-0.28-0.47-0.035-0.92-0.1-1.2-0.52-0.25-0.32-0.62-0.44-1-0.45-0.38-0.0087-0.74-0.12-1.1-0.34-0.23-0.16-0.45-0.34-0.71-0.42-0.31-0.096-0.52-0.28-0.69-0.53-0.19-0.28-0.38-0.57-0.53-0.88-0.15-0.3-0.35-0.52-0.65-0.69-0.29-0.16-0.52-0.38-0.45-0.79 0.066-0.42-0.092-0.76-0.35-1.1-0.39-0.52-0.59-1.1-0.31-1.8 0.087-0.21 0.19-0.44 0.21-0.66 0.039-0.39 0.22-0.68 0.5-0.93 0.057-0.052 0.11-0.14 0.11-0.22 0.031-0.38 0.18-0.72 0.42-1 0.33-0.43 0.77-0.73 1.2-1 0.066-0.039 0.12-0.1 0.17-0.15 0.12-0.11 0.22-0.27 0.36-0.33 0.43-0.19 0.86-0.38 1.3-0.52 0.41-0.12 0.84-0.17 1.3-0.23 0.53-0.07 1.1-0.12 1.5-0.4 0.17-0.096 0.36-0.14 0.54-0.22 0.27-0.11 0.54-0.11 0.81-0.052 0.092 0.022 0.19 0.031 0.28 0.018 0.32-0.044 0.65-0.092 0.97-0.16 0.48-0.096 0.94-0.074 1.4 0.14 0.21 0.096 0.42 0.21 0.65 0.25 0.62 0.12 1.1 0.44 1.4 1 0.18 0.33 0.44 0.53 0.85 0.44 0.026-0.0087 0.057-0.0044 0.087 0 0.46 0.052 0.73 0.53 0.52 0.94-0.096 0.2-0.19 0.39-0.28 0.59-0.18 0.39-0.061 0.81 0.31 1 0.15 0.092 0.33 0.15 0.5 0.19 0.51 0.13 1.1-0.42 0.97-0.94-0.022-0.14-0.0085-0.29-0.018-0.43-0.013-0.28 0.013-0.57-0.057-0.84-0.079-0.3-0.061-0.54 0.16-0.77 0.07-0.074 0.07-0.21 0.11-0.32 0.07-0.19 0.092-0.46 0.23-0.57 0.69-0.55 1.2-1.4 2-1.8 0.14-0.066 0.15-0.2 0.039-0.31-0.21-0.22-0.43-0.44-0.66-0.63-0.087-0.07-0.24-0.096-0.36-0.096-0.18 0-0.38 0.074-0.56 0.048-0.52-0.07-1-0.16-1.5-0.28-0.21-0.048-0.35-0.031-0.52 0.092-0.36 0.26-0.71 0.54-1.2 0.51-0.35-0.022-0.39-0.052-0.47-0.38-0.018-0.079-0.066-0.2-0.12-0.21-0.33-0.052-0.67-0.11-1-0.1z"/>
		
		
</svg>
