<?xml version="1.0" encoding="UTF-8" standalone="no"?>
<!-- Generator: Adobe Illustrator 26.0.3, SVG Export Plug-In . SVG Version: 6.00 Build 0)  -->

<svg
   version="1.1"
   id="Layer_1"
   x="0px"
   y="0px"
   viewBox="0 0 5042.2002 744"
   xml:space="preserve"
   sodipodi:docname="ghastly-creatures2.svg"
   width="5042.2002"
   height="744"
   inkscape:version="1.1.1 (3bf5ae0d25, 2021-09-20)"
   xmlns:inkscape="http://www.inkscape.org/namespaces/inkscape"
   xmlns:sodipodi="http://sodipodi.sourceforge.net/DTD/sodipodi-0.dtd"
   xmlns="http://www.w3.org/2000/svg"
   xmlns:svg="http://www.w3.org/2000/svg"><defs
   id="defs51">
	
</defs><sodipodi:namedview
   id="namedview49"
   pagecolor="#ffffff"
   bordercolor="#666666"
   borderopacity="1.0"
   inkscape:pageshadow="2"
   inkscape:pageopacity="0.0"
   inkscape:pagecheckerboard="0"
   showgrid="false"
   fit-margin-top="0"
   fit-margin-left="0"
   fit-margin-right="0"
   fit-margin-bottom="0"
   inkscape:zoom="0.239"
   inkscape:cx="3596.2343"
   inkscape:cy="372.38494"
   inkscape:window-width="1920"
   inkscape:window-height="1009"
   inkscape:window-x="-8"
   inkscape:window-y="-8"
   inkscape:window-maximized="1"
   inkscape:current-layer="g44" />
<style
   type="text/css"
   id="style2">
	.st0{fill:#FFFFFF;}
</style>
<g
   id="g44"
   transform="translate(1521.2,-628)">
		
		
		
		
		
		
		
		
		
		
		
		
		
		
		
		
		
		<path
   id="path38"
   style="fill:#ff0000"
   d="m 265.5,693.5 c -1.4,5.3 -2.5,11.5 -4.6,17.3 -4.1,11.8 -4.7,23.4 -1.8,35.6 1.2,5 -0.3,10.7 -0.6,16.1 -1,16.1 -8.4,31.1 -7.7,47.7 0.3,7 -2.9,14.2 -4.3,21.3 -0.7,3.7 -0.5,7.5 -1,11.2 -1.3,10.3 2.9,19.4 6.3,28.6 2.5,6.8 0.3,13.1 -1,19.6 -2,10.1 -5.1,20 -6.1,30.2 -0.9,9.6 -0.7,19.6 0.9,29.1 1.2,6.8 5.3,13.2 8.5,19.6 2.8,5.8 3.6,11.7 2.5,17.9 -1.4,7.9 1.5,13.8 8.3,17.6 4.3,2.4 8.9,4.6 13.6,6.1 14.2,4.4 25.6,13 36.2,23 1.3,1.2 3.6,1.9 5.4,1.8 3.6,-0.3 7.1,-1.4 10.7,-2 5.8,-0.9 10.4,1.4 14.3,5.5 0.6,0.6 0.9,1.7 1,2.7 0.5,6.7 -6.2,16.5 -11.7,20 -9.7,6.1 -20.8,7.3 -31.5,10.3 -2.6,0.7 -5.3,2.5 -7.1,4.5 -8.2,9.8 -18.1,16.7 -30.7,19.1 -3.1,0.6 -6.6,0.1 -9.7,-0.8 -9.2,-2.8 -18.4,-5.6 -27.3,-9.3 -3.5,-1.5 -6.5,-5 -8.7,-8.3 -3.9,-5.9 -8.7,-8.8 -15.8,-8.2 -4.3,0.3 -8.7,0.2 -13,0.6 -3.8,0.4 -6.5,-1.6 -6.4,-4.7 0.8,-15 -8.8,-27.2 -10.8,-41.3 -0.7,-4.9 -1.2,-9.9 -1.7,-14.8 -0.4,-4.1 -0.7,-8.2 -1,-12.4 -0.3,-3.5 0.2,-6.3 3.1,-9.3 9.7,-9.9 11.9,-22.9 10.4,-35.7 -1.1,-9.2 -0.2,-17.8 1,-26.6 1.5,-11.9 4,-23.6 1.7,-35.7 -0.3,-1.4 0,-3 0.6,-4.4 3,-7.7 6.4,-15.3 9.3,-23 2.9,-7.7 6.8,-15.4 7.6,-23.4 1.2,-11.4 -2.6,-22.3 -9.7,-31.6 -3.6,-4.6 -4.6,-9.7 -2.6,-15.3 4.1,-12.1 8.4,-24.1 12.3,-36.2 1.8,-5.6 -4.6,-22.4 -9.5,-25.1 -2.2,-1.2 -5.1,-1.1 -7.7,-1.7 -9.9,-2.6 -19.8,-5.6 -30.3,-4.9 -1.7,0.1 -4.1,-2 -5,-3.7 -0.6,-1.1 0.4,-3.5 1.1,-5.1 1.6,-3.2 3.6,-6.1 5.2,-9.3 2.3,-4.6 6.8,-5.3 11.1,-6.7 5,-1.6 9.9,-3.6 14.8,-5.5 3.9,-1.5 7.7,-3.6 11.8,-4.5 12.6,-2.8 20.9,-11.1 28,-21 1.2,-1.6 1.1,-4.1 1.9,-6.1 1.8,-4.6 3.3,-9.3 5.7,-13.5 0.8,-1.5 3.9,-2.6 5.8,-2.4 14.9,1.5 23.1,10 24.9,25 1,6.8 2.2,13.9 3.3,22.1 z m 2513.4,496 c -4.7,-0.5 -9.3,-0.8 -13.8,-1.6 -3.4,-0.7 -5.3,0.6 -6.8,3.4 -1.9,3.5 -3.9,7 -6.2,10.2 -0.9,1.2 -2.8,2.5 -4.1,2.4 -1.4,-0.1 -3.7,-1.7 -3.9,-2.9 -0.6,-5.5 -2.6,-11.9 -0.5,-16.4 5.2,-11.2 12.1,-21.7 18.9,-32.1 1.6,-2.4 5.6,-3.3 8.6,-4.6 3.5,-1.5 4.4,-3.8 4,-7.5 -1.3,-10.5 -2.5,-21 -3.3,-31.6 -0.2,-2.7 0.6,-5.8 1.9,-8.1 5.6,-9.6 6.8,-19.4 3.4,-29.9 -0.8,-2.5 -0.8,-5.3 -1.5,-7.8 -1.9,-6.3 -0.7,-11.8 3.8,-16.6 0.6,-0.6 1.1,-1.3 1.6,-1.9 11.4,-13.2 11,-8.2 3.1,-23.9 -2.6,-5.2 -3.9,-10 -2.1,-15.7 1.2,-3.9 1.4,-8.3 3,-12 3.5,-8 2.1,-15.7 0.3,-23.8 -2,-9.5 -2.2,-19.3 -4.3,-28.8 -2.5,-10.9 -5.9,-21.7 -9.5,-32.4 -2.4,-7.2 -5.7,-8.6 -13,-6.8 -4.7,1.2 -9.2,2.8 -13.9,3.7 -5.9,1.2 -8.6,4.5 -9.5,10.4 -1.4,8.1 -2,8.3 -10.1,6.1 -3.5,-1 -7,-2.2 -10.4,-3.3 -3.8,-1.3 -4.8,-4 -4.3,-7.8 1.3,-9.7 6.5,-16.9 14.2,-22.5 9.7,-7 20.1,-12.3 31.9,-14.5 5.1,-0.9 6.7,-3.9 6.6,-8.2 -0.1,-5.5 -0.1,-11 -1.1,-16.4 -1,-5.3 0.8,-9.2 5.2,-11.1 5.2,-2.3 11,-3.4 16.5,-5.3 1.9,-0.6 3.7,-1.8 5.1,-3.2 3.8,-3.9 7.1,-8.5 11.1,-12.1 7.2,-6.4 16.6,-5.9 22.4,1.7 3.7,4.9 6.2,10.9 8.4,16.7 2.5,6.5 8.6,9.8 14.9,6.5 2.7,-1.4 5.3,-3.6 7.1,-6.1 5.9,-8.4 15,-11.8 23.8,-15.4 2.5,-1 6.2,0.4 9.1,1.4 6.6,2.3 11.8,0.1 16.1,-4.7 3,-3.3 5.8,-6.9 8.1,-10.7 7.3,-12.1 19.6,-17.4 31.6,-23 1,-0.5 2.6,-0.1 3.8,0.2 9.5,2.1 19.1,4.2 28.6,6.5 1.6,0.4 3.2,1.6 4.2,2.9 7,9.1 10.4,9.9 20.7,4.3 7.3,-4 14.5,-8.1 21.9,-11.8 1.9,-0.9 5.1,-1.5 6.4,-0.5 1.2,1 1.2,4.2 0.9,6.3 -1.5,8.4 -5.8,15.6 -11.4,21.8 -4.2,4.7 -8.6,9.4 -13.5,13.3 -4.6,3.6 -7.3,7.7 -8.2,13.4 -0.8,5.4 -3,10.6 -3.8,16 -2.2,16.7 -12.5,29.4 -21,42.9 -3.6,5.7 -19.1,6.2 -23.2,0.9 -1.2,-1.6 -1.2,-4.3 -1.5,-6.5 -0.7,-4 -0.2,-8.6 -2.1,-11.8 -3.7,-6 -8.8,-11.2 -13.5,-16.6 -0.8,-0.9 -2.7,-1.4 -4,-1.4 -12.4,0.6 -24.3,2.1 -35.2,9.2 -11.2,7.3 -23.4,13.2 -34.8,20.1 -2.7,1.6 -4.5,4.9 -6.4,7.6 -8.6,11.9 -6.1,25.4 -5.2,38.6 0.8,11.1 2.1,22.1 2.6,33.2 0.1,2.4 -1.7,5 -3,7.2 -1.1,1.8 -2.9,3.2 -4.4,4.7 -2.4,2.5 -2.7,4.9 -1.6,8.5 1.4,4.7 1.9,9.9 1.3,14.7 -0.6,4.9 0.3,9 2.7,12.8 2.6,4.1 0.9,6 -2.5,8.3 -4.1,2.8 -7.8,6.1 -11.5,9.4 -6.3,5.8 -9.9,12.7 -8.7,21.7 0.3,2.4 -1,5.1 -1.7,7.6 -2.3,7.6 -4.7,15.1 -7.2,22.6 -0.4,1.2 -1,2.4 -1.7,3.6 -2.4,4.2 -4.9,8.3 -7.4,12.4 -4.6,7.3 -6.3,15.1 -5.2,23.8 1.4,10.6 -0.8,20.9 -4,30.9 -1,3 -4.3,5.1 -6,8 -2.2,3.8 -4.1,7.9 -5.6,12 -0.8,3 -0.7,5.9 -1.2,9.4 z M 1572.8,863.8 c -12.1,0.5 -22.4,3.2 -32,9.3 -11,7 -22.8,12.8 -34,19.6 -2.8,1.7 -4.7,5.2 -6.7,8 -8.5,11.7 -6.1,25.1 -5.2,38.1 0.8,11.1 1.8,22.2 2.9,33.2 0.3,3.2 -0.6,5.7 -3.3,7.8 -2.2,1.7 -4.1,3.9 -5.6,6.3 -0.8,1.3 -0.9,3.3 -0.7,4.9 0.5,5.6 1.2,11.1 2,16.7 0.6,4.1 0.7,8.6 2.5,12.2 2.2,4.4 1,6.3 -2.7,8.7 -4.2,2.8 -8,6.3 -11.8,9.8 -5.9,5.4 -9.2,11.9 -8.2,20.4 0.3,2.7 -1,5.7 -1.8,8.5 -2.3,7.4 -4.7,14.8 -7.1,22.2 -0.4,1.2 -0.9,2.5 -1.5,3.6 -2.3,3.9 -4.5,7.8 -6.9,11.5 -5,7.9 -6.2,16.3 -6,25.7 0.2,10.1 -2,20.4 -4,30.4 -0.5,2.8 -4.2,4.8 -5.7,7.6 -2.3,4.3 -4.8,8.7 -5.8,13.4 -1.9,8.5 -1.4,8.6 -10,6.9 -9.3,-1.8 -9.4,-1.9 -14.3,6.2 -1.4,2.3 -2.5,4.7 -4.1,6.8 -0.8,1.1 -2.6,2.3 -3.8,2.2 -1.5,-0.2 -3.8,-1.5 -4,-2.7 -0.8,-5.1 -2.9,-11.3 -1,-15.4 5.5,-11.6 12.4,-22.6 19.4,-33.5 1.5,-2.3 5.3,-3.1 8.2,-4.3 3.6,-1.5 4.7,-3.8 4.2,-7.8 -1.4,-10.5 -2.5,-21 -3.3,-31.6 -0.2,-2.6 0.7,-5.8 2.1,-8 6.1,-9.9 6.7,-20.4 3,-30.9 -4.4,-12.4 -0.7,-22 8.7,-30.1 4.4,-3.7 5.5,-7.7 1.9,-12.5 -8.3,-10.8 -7,-22.4 -2.5,-33.9 3.2,-8.3 2.3,-16 0.4,-24.2 -1.7,-7.3 -1.7,-15 -3.2,-22.4 -1.7,-8.3 -4.2,-16.3 -6.4,-24.5 -1.2,-4.3 -2.2,-8.7 -3.7,-12.9 -2.8,-8.1 -6.1,-9.9 -14.2,-7.8 -4.5,1.1 -8.9,2.7 -13.5,3.6 -5.7,1.2 -8.3,4.4 -9.3,10.1 -1.5,8.4 -1.9,8.5 -10.4,6.3 -1.6,-0.4 -3.2,-0.8 -4.8,-1.3 -10.5,-3.2 -11.6,-5.4 -8.3,-15.9 2.3,-7.1 7.2,-12.3 13.1,-16.6 9.5,-6.9 19.9,-12.2 31.4,-14.4 5.3,-1 7,-3.9 6.9,-8.5 -0.1,-5.3 -0.1,-10.7 -1.1,-15.9 -1.1,-5.5 0.7,-9.5 5.4,-11.5 5.1,-2.2 10.7,-3.2 16,-5.1 2,-0.7 4,-1.9 5.5,-3.4 3.8,-3.9 7.1,-8.5 11.2,-12.1 7,-6.1 16.4,-5.7 22.1,1.7 3.8,4.9 6.3,10.9 8.5,16.7 2.7,7.1 9.5,10.2 16.1,6.3 2,-1.1 4,-2.7 5.2,-4.6 5.6,-8.9 14.9,-12.6 23.9,-16.1 3,-1.2 7.5,0.3 11,1.4 5.5,1.6 9.8,0 13.6,-3.7 2.5,-2.4 5.3,-4.9 6.7,-8 4.9,-10.4 14.1,-16 23.2,-21.8 6.9,-4.4 13.5,-6.6 21.9,-3.2 6.4,2.6 13.6,2.9 20.3,4.7 2.1,0.5 4.5,1.9 5.8,3.6 6.4,8.1 10.3,9.1 19.7,4.1 7.5,-4 14.8,-8.3 22.3,-12.1 2,-1 4.7,-0.5 7,-0.7 0.2,2.2 0.8,4.6 0.4,6.7 -1.5,8.3 -5.7,15.3 -11.2,21.4 -4.9,5.4 -10.2,10.6 -15.8,15.3 -3,2.5 -4.7,5.3 -5.5,9 -1.6,7.3 -4,14.4 -5.1,21.8 -2.3,15.7 -12.6,27.2 -20.3,40 -3.3,5.5 -18.7,5.9 -22.8,0.9 -1.3,-1.6 -2.1,-4.5 -1.6,-6.4 1.4,-5.4 -0.4,-9.9 -3.2,-14.1 -2.6,-3.8 -5.7,-7.3 -8.7,-10.9 -3,-4.2 -6.8,-6.9 -11.4,-4.8 z m 1478.3,54 c 9,0.4 16.2,-1.7 22.4,-6 6.4,-4.3 12.4,-3.9 17.8,0.7 4.6,3.9 9.6,4 15.1,4.7 11.1,1.4 21.1,-3.5 31.9,-3.7 14.5,-0.3 29.1,-0.4 43.6,-0.8 1.7,0 3.5,-0.8 5.1,-1.4 6,-2.5 8.7,-0.9 7.2,5.4 -1.2,5.1 -3.7,10.4 -7.1,14.3 -4,4.5 -9.7,7.5 -14.5,11.3 -1.7,1.4 -3.3,3.1 -4.4,5 -5.5,9.6 -9.9,20.1 -16.5,28.8 -8.6,11.3 -10,8.5 -18,0.5 -5.3,-5.3 -8.1,-12 -9.6,-19.4 -0.3,-1.5 -1.9,-3.4 -3.3,-4 -12.9,-5.7 -25.9,-11.2 -38.9,-16.7 -1.4,-0.6 -3.6,-1 -4.8,-0.4 -7,3.6 -13.9,7.5 -20.7,11.5 -0.6,0.4 -1,1.8 -0.9,2.6 0.8,7.6 1.7,15.2 2.7,22.7 0.5,3.3 2.6,4.8 5.8,6.5 5.4,2.7 9.8,7.2 14.7,10.9 2.6,2 5.1,4.1 7.8,6.1 14,10.2 28.1,20.2 41.8,30.7 3.4,2.5 4.9,2.2 8.2,-0.3 7,-5.3 14.8,-9.4 22.2,-14.2 3,-1.9 5.7,-4.2 8.6,-6.2 0.8,-0.6 1.7,-1.1 2.6,-1.4 7.7,-1.9 15.2,-1.3 22.2,2.8 8.1,4.8 10.7,14.8 4.6,21.8 -5.1,5.9 -11.9,10.5 -18,15.6 -4.3,3.6 -9.6,6.3 -13,10.6 -8.4,10.8 -19.7,16.6 -32.6,18.5 -9.8,1.4 -15.8,6.5 -21.2,13.9 -6.8,9.2 -10.4,10.1 -20.6,4.4 -10.8,-6.1 -21.2,-13.2 -31.8,-19.7 -9.7,-6 -19.3,-11.8 -31.2,-13.5 -8.4,-1.2 -16.5,-5.8 -24.4,-9.4 -5.4,-2.4 -8.7,-7 -9.8,-13.1 -0.3,-1.6 -0.6,-3.3 -1.2,-4.8 -3.2,-8.3 -5.1,-16.5 -2.2,-25.6 1.1,-3.3 0,-8.1 -1.8,-11.3 -3.7,-7.1 -4.8,-14.3 -3.6,-22 0.2,-1.5 -0.5,-3.5 -1.3,-4.9 -2.9,-4.7 -2.6,-7.5 1.9,-10.7 7.1,-5 9.9,-11.3 6.8,-19.8 -1.8,-5.1 -1,-10.1 1.8,-14.4 5.4,-8.1 10.9,-16.3 17.3,-23.7 5.6,-6.4 11,-12.5 11.6,-21.4 0.1,-1.3 1.1,-2.7 1.9,-3.9 3.4,-5.1 6.7,-10.3 10.4,-15.2 1.7,-2.2 4.1,-4.3 6.6,-5.3 3.8,-1.5 7.9,-2.6 12,-3 11.4,-1.1 17,-8.9 18.6,-20 0.5,-3.9 2.8,-7.6 4.7,-11.1 0.6,-1.1 2.6,-1.9 4.1,-2 2.6,-0.3 5.4,-0.5 8,0.2 9.5,2.4 17.8,-0.6 25.3,-5.9 8.7,-6.1 17.9,-6.3 27.6,-3.8 1,0.2 1.9,0.4 2.9,0.6 12.9,1.7 13.2,1.8 18.1,-10.4 2.1,-5.1 5.4,-7.1 10.3,-7.8 0.7,-0.1 1.4,-0.3 2,-0.2 15.5,4.7 29.3,-1.7 43.5,-6.2 5.2,-1.7 11.1,-1.3 16.7,-1.3 3.6,0 4.7,2.2 3.3,5.9 -2.7,7.1 -4.8,14.5 -7.4,21.7 -0.6,1.7 -1.8,3.1 -2.7,4.7 -4.8,8.3 -9.5,16.6 -14.4,24.9 -0.8,1.4 -2.3,2.5 -3.7,3.2 -2,1.1 -4.3,1.6 -6.5,2.5 -4.5,1.9 -6.9,4.8 -6.8,10.3 0.1,9.5 -3.8,18.1 -7.9,26.5 -0.8,1.6 -1.7,3.3 -2,5 -1.7,10.1 -10.2,17.8 -20.3,17.6 -1.8,0 -4,-1.7 -5.1,-3.2 -7,-9.3 -13.8,-18.8 -20.5,-28.3 -4.8,-6.8 -14.5,-9.6 -22.3,-7.2 -11.2,3.3 -22.7,6.1 -34.2,8.4 -7.6,1.5 -21.8,13.6 -23.8,21 -0.7,2.5 -2.3,4.7 -3.5,7.1 -2.2,4.6 -4.5,9.3 -7.2,14.7 z m -1349.2,0.1 c 9.3,0.2 16.5,-1.9 22.8,-6.2 6.3,-4.2 12.1,-3.6 17.4,0.7 4.8,3.9 9.9,4.1 15.6,4.8 10.9,1.4 20.8,-3.5 31.4,-3.7 0.2,0 0.3,-0.1 0.5,-0.1 14.4,-0.2 28.8,-0.4 43.1,-0.8 2.4,-0.1 4.7,-1.2 7,-2 4.1,-1.3 5.6,-0.4 5.8,3.9 0.3,6.3 -2.2,11.5 -6.5,15.7 -3.8,3.7 -7.9,7.2 -12.4,10 -4.5,2.7 -7.1,6.3 -9.4,10.9 -4.2,8.4 -9.2,16.5 -14,24.6 -0.7,1.3 -1.9,2.3 -2.9,3.4 -5.4,5.4 -7.2,5.4 -12.8,0.4 -6.5,-5.9 -10.9,-13 -12.2,-21.7 -0.4,-2.8 -1.5,-3.9 -3.9,-4.9 -12.9,-5.4 -25.6,-10.9 -38.5,-16.3 -1.6,-0.7 -3.9,-1.1 -5.3,-0.4 -6.9,3.5 -13.6,7.4 -20.3,11.3 -0.6,0.4 -1.1,1.7 -1,2.6 0.8,7.8 1.7,15.5 2.8,23.2 0.4,3.1 2.4,4.6 5.6,6.1 4.8,2.3 8.9,6.2 13.3,9.5 3.8,2.9 7.5,6 11.3,8.8 13.1,9.7 26.4,19.2 39.3,29.1 3.5,2.6 5.2,2.8 9,0 7.9,-5.9 16.7,-10.8 25.4,-15.6 4,-2.2 6.3,-7.7 12,-6.8 5.8,1 12,1.1 17.2,3.4 9,4 11.5,14.8 5.1,22.2 -5,5.8 -11.7,10.2 -17.6,15.2 -4.7,3.9 -10.2,7.1 -14,11.7 -7.9,9.5 -17.9,15.3 -29.6,16.9 -11.2,1.6 -18.6,7.4 -24.8,16.2 -4.6,6.7 -8.5,7.8 -15.7,4.1 -8.8,-4.6 -17.3,-9.9 -25.8,-15.1 -7.1,-4.3 -13.8,-9.3 -21.2,-13.1 -5.5,-2.8 -11.9,-3.9 -17.7,-6.1 -9.6,-3.6 -19.3,-6.9 -28.3,-11.6 -3.4,-1.8 -5.1,-6.9 -7.3,-10.7 -0.9,-1.7 -0.8,-3.9 -1.5,-5.7 -3.3,-8.2 -5,-16.2 -2,-25.1 1.1,-3.2 0.2,-7.8 -1.5,-10.9 -3.9,-7.4 -5.4,-14.8 -3.8,-23 0.3,-1.4 -0.5,-3.1 -1.2,-4.4 -3,-4.9 -2.9,-7.6 1.7,-10.8 7.1,-5 10.1,-11.2 7,-19.7 -1.8,-5.1 -1.1,-10.2 1.7,-14.4 5.5,-8.3 11.2,-16.5 17.6,-24 5.4,-6.3 10.7,-12.3 11.3,-21 0.1,-1.4 1,-2.7 1.8,-3.9 3.4,-5.1 6.7,-10.3 10.4,-15.2 1.7,-2.2 4,-4.4 6.5,-5.4 3.8,-1.6 7.9,-2.7 12,-3 11.7,-1.1 17.3,-9.2 18.8,-20.4 0.5,-4 3.1,-7.8 5.2,-11.5 0.5,-0.9 2.5,-1.3 3.9,-1.4 2.5,-0.2 5.1,-0.4 7.5,0.2 9.5,2.4 17.8,-0.5 25.3,-5.8 8.5,-5.9 17.5,-6.4 27.1,-4.1 1.6,0.4 3.3,0.6 4.9,0.8 11.3,1.6 11.6,1.7 16.1,-9 2.2,-5.2 4.9,-8.9 10.8,-9.3 1,-0.1 2,-0.3 2.9,0 10.6,3.6 20.7,0.5 30.8,-2.3 6.7,-1.9 13.3,-3.9 20,-5.8 0.8,-0.2 1.7,-0.3 2.5,-0.2 8.6,0.5 12.8,0 8,10.5 -0.3,0.8 -0.6,1.5 -0.9,2.3 -3.1,10.3 -6.6,20.5 -14.1,28.7 -1.3,1.4 -2.4,3.3 -3.1,5.1 -3.1,8.5 -7,15.9 -17.1,18.1 -3.4,0.7 -4.3,4.1 -4.8,7.8 -1.1,7.3 -3,14.5 -5.1,21.6 -1.5,5.4 -3.9,10.5 -5.7,15.8 -2.1,6.5 -13.6,14.4 -20.1,13 -2.2,-0.5 -4.4,-2.9 -5.9,-5 -6.4,-8.7 -12.7,-17.5 -18.9,-26.4 -4.9,-7.1 -14.4,-9.7 -22.7,-7.3 -11.2,3.3 -22.7,5.9 -34.2,8.3 -7.7,1.6 -21.4,13.6 -23.5,21.3 -0.6,2.2 -2,4.1 -3.1,6.2 -2.6,5.1 -5,9.9 -8,15.7 z m 774.6,126.8 c 0.3,-2.5 0.2,-3.9 0.7,-5.1 4.2,-9 3.8,-18.4 2.7,-27.9 -1.2,-10.2 -2.9,-20.4 -3.6,-30.7 -0.4,-6.1 0.7,-12.2 0.8,-18.4 0.1,-2.3 -0.4,-4.6 -1,-6.8 -2.6,-9.7 -5.4,-19.5 -8.2,-29.2 -0.5,-1.8 -1.6,-3.6 -2.8,-5.1 -4.7,-6 -5,-11.9 -0.8,-18 1,-1.5 2,-3.1 2.7,-4.8 2.5,-6 1.8,-9 -3.9,-11.9 -7.1,-3.6 -14.5,-6.6 -21.8,-9.8 -1.2,-0.5 -2.7,-0.6 -3.7,-1.4 -3,-2.4 -6.6,-4.5 -8.4,-7.6 -2.8,-5 3.1,-6 5.5,-8.2 14.6,-13.1 29.7,-25.7 47.7,-34.2 1.5,-0.7 2.5,-2.6 3.5,-4 4.4,-6.2 8.6,-12.7 13.3,-18.7 2.5,-3.2 5.7,-6.1 9,-8.6 5.3,-4.1 11.4,-5.9 17.6,-2.3 6,3.5 6.6,9.8 6.1,15.8 -0.9,10.4 -2.6,20.8 -3.7,31.2 -0.5,4.9 -0.8,10 0.1,14.7 1.6,8.2 1.7,16.2 -1.6,23.9 -3.2,7.3 -2.8,13.9 1.7,20.6 2,3 3,6.6 4.3,10 1.8,4.8 2.1,9.7 -0.4,14.5 -9.8,19.1 -5.4,37.3 3.1,55.4 1.6,3.4 2.9,7 4.2,10.5 3.2,8.8 10.5,13.4 17.8,18.2 5.5,3.6 10.8,3 15.7,-0.7 2.7,-2 5.3,-4.8 6.9,-7.7 2,-3.8 4.6,-4.4 8.7,-4.8 6.7,-0.7 13.6,-1.8 19.8,-4.3 8.8,-3.4 10.8,-9.1 8.1,-18.1 -0.9,-3 -1.6,-6.2 -3.1,-8.9 -3.4,-6.5 -3.6,-13.1 -0.3,-19.5 7.7,-14.9 8.4,-29.7 1.3,-45.1 -1.9,-4 -2.6,-8.6 -3.2,-13 -0.5,-4.1 -2.6,-7 -6.1,-8.5 -6.4,-2.6 -13,-4.9 -19.7,-6.8 -1.8,-0.5 -4.1,0.7 -6.2,1.2 -5.6,1.2 -7.1,0.4 -7.2,-5.4 -0.1,-3.3 0.6,-6.9 2,-9.9 1.9,-3.9 5.5,-5.9 10,-3.9 6.9,3.2 12.1,1 17,-4.2 4.6,-4.9 9.8,-8.9 16.3,-11.8 8.3,-3.7 12.7,-12.1 16.6,-20 3.1,-6.2 7.9,-10.2 13.7,-13.2 5.5,-2.8 19.2,0.8 22.4,6.1 0.8,1.3 1.3,3.5 0.7,4.7 -4.7,9.5 -0.8,18.9 -0.2,28.3 0.4,7.5 0.5,14.9 0.8,22.4 0.1,1.4 0.5,3 1.4,4 6.9,8.5 8.2,18.2 6.1,28.6 -1,5 -1.4,10.2 -2.9,15.1 -1.1,3.6 -3.6,6.8 -5.1,10.3 -1.2,2.8 -2.6,5.9 -2.8,8.8 -0.4,8 -0.4,16 0,23.9 0.3,4.2 2.5,8.3 2.8,12.5 0.7,8.3 0.4,16.7 1.2,24.9 0.7,7.7 2,15.4 3.6,23.1 1,4.7 3.5,8 9,9.3 3.2,0.8 6.7,4.1 8.3,7.2 7,13 18.8,19.9 31.1,26.1 3.5,1.8 4.9,4 5,7.6 0.1,3.9 -2.9,5 -5.6,6.1 -9.2,3.8 -18.2,0.9 -27.3,-0.9 -7.3,-1.5 -14.7,-3.4 -22.1,-3.4 -8,0 -16.1,1.8 -24.1,3.1 -7.4,1.2 -12,-0.9 -14.5,-8 -1.5,-4.2 -2.8,-8.8 -2.6,-13.1 0.4,-7.2 -3,-12.1 -7.2,-17.4 -4.9,-6.3 -10,-8.2 -17.3,-4.4 -4.2,2.2 -9,3.4 -13.4,5.3 -6.6,2.8 -11.9,6.7 -15.8,13.4 -8.5,14.6 -21.5,22.1 -39,22.9 -9.2,0.4 -18.5,3.6 -27.4,6.4 -10.5,3.3 -12.3,3.4 -19.5,-4.8 -4.9,-5.6 -9.7,-11.4 -13.9,-17.6 -1.6,-2 -2.1,-5.7 -2.9,-8 z M -91.1,865.3 c -18.8,-6.8 -35.8,-2.7 -52.9,1.1 -3.6,0.8 -7.2,1.4 -10.6,2.7 -11,4.3 -21.3,3.2 -31.3,-3.1 -2.1,-1.3 -5.9,-1.1 -8.4,-0.3 -5.6,2 -10.9,4.8 -16.4,7.3 -3.8,1.7 -6.8,0.3 -6,-3.7 0.7,-4 2.5,-8.5 5.3,-11.2 3.8,-3.7 9.2,-5.9 13.7,-8.9 2.9,-2 6.1,-4 8.3,-6.6 7.6,-9.1 15.5,-17.6 27.8,-19.8 3.3,-0.6 6.9,-0.2 10.3,0.3 7.9,1.3 9.4,1.7 13.1,-6.9 3.9,-9.1 10.7,-14.6 18.2,-19.8 2.6,-1.8 5.5,-3.1 8.4,-4.3 6.8,-2.9 12.7,-3 19.8,1.6 10.2,6.6 21.9,10.9 33.1,15.8 1.7,0.8 4.7,0.2 6.5,-0.9 4,-2.3 7.7,-5.2 11.4,-8 6.8,-5.1 14.3,-7.8 22.3,-4.3 8.1,3.6 15.5,0.9 23.3,-0.2 4,-0.6 8.4,-1 12.1,0.2 12.2,4 24,4.3 35.8,-0.8 4.5,-1.9 8.8,-1.6 13.5,0.3 8.4,3.5 17.2,6.1 25.6,9.7 6.6,2.9 11.6,1.1 16.3,-3.4 0.8,-0.8 1.9,-1.6 2.3,-2.6 3.3,-7.2 9.7,-9.6 16.6,-11.8 6,-1.9 11.9,-4.2 17.6,-7 4.2,-2.1 7.9,-1.6 11.8,0.2 5.2,2.4 6,8.7 1.3,11.9 -3.4,2.3 -7,4.5 -10.8,6.3 -3.5,1.7 -5.7,4.1 -5.8,7.9 -0.2,10.7 -6.5,15.8 -15.9,19.1 -8.3,2.9 -16.2,6.5 -25.2,7.1 -7.6,0.5 -13,5.6 -16.8,12 -4.3,7.3 -10,11.2 -19,9.1 -7.3,-1.7 -14,0.5 -19.8,4.8 -8.5,6.3 -17.6,6 -27,3.4 -1.9,-0.5 -4,-0.7 -5.8,-1.5 -11,-4.6 -21.8,-1.5 -32.8,-0.1 -5.2,0.6 -10.5,0.4 -15.7,-0.3 -7,-0.9 -11.1,0.5 -13,7.5 -3.5,12.8 -13.7,21.4 -19.3,32.7 -0.5,0.9 -1.8,1.4 -2.6,2.2 -3.9,3.4 -6.7,7.6 -6.2,12.9 1,10.1 0.2,19.9 -3.5,29.4 -1.4,3.7 -0.5,6.2 3.1,7.4 8,2.8 16,5.3 24,8.1 2,0.7 4.2,1.8 5.7,3.4 7,7.4 13.4,15.9 23.2,19.3 7.4,2.5 13.3,6.7 18.9,11.5 4.4,3.8 8.1,8.3 12.1,12.6 4.1,4.3 8.8,6.9 15,5.5 13.5,-3.1 26,-8 35.9,-18.2 6.4,-6.5 14,-7.7 22.4,-4.1 6,2.6 7.9,6.4 5.9,12.8 -2.5,8.2 -9.2,12.2 -15.9,16.4 -2.5,1.6 -5,3.8 -6.6,6.2 -5.3,8.3 -11.6,13.9 -22.4,14 -8.9,0.1 -16.7,5.3 -23.7,10.7 -3,2.3 -6.2,4.6 -8.6,7.5 -11.7,14.1 -28.8,17.6 -44.9,22.9 -2.2,0.7 -5.6,-0.7 -7.9,-2.1 -8.8,-5.3 -17.4,-11.1 -26.1,-16.7 -1.7,-1.1 -3.1,-2.9 -4.9,-3.3 -11.1,-2.4 -16.3,-11 -21.1,-19.8 -2.2,-4 -4.8,-5.5 -9.1,-5.1 -2,0.2 -4,0 -6,-0.2 -7.8,-0.8 -11.7,-4.9 -13.1,-12.6 -0.4,-2.1 -1.9,-4 -2.9,-6 -2,-4 -4.6,-7.7 -5.7,-11.9 -2.3,-8.6 -4,-17.3 -5.7,-26.1 -0.3,-1.7 -0.4,-3.9 0.5,-5.2 7.9,-11.8 7.6,-24.3 3.8,-37.2 -0.9,-3 -1,-6.3 -2.1,-9.2 -4.1,-11.1 1,-20 6.4,-28.9 0.9,-1.5 2.3,-3.1 3.8,-3.8 4.4,-2 8,-4.4 10.6,-8.8 1,-1.6 5.7,-2.2 8.1,-1.4 6.7,2.1 10.1,-1.6 13,-6.3 1.6,-3.3 2.9,-7.4 4.7,-11.4 z m 2316.1,-1 c -18.9,-6.8 -36,-2.8 -53,1.1 -3.6,0.8 -7.2,1.3 -10.6,2.7 -11.1,4.3 -21.3,3.1 -31.3,-3.2 -2.1,-1.3 -5.9,-1.1 -8.4,-0.2 -5.6,2 -10.9,4.8 -16.4,7.3 -3.8,1.7 -6.7,0.2 -6,-3.8 0.7,-3.8 2.2,-8.3 4.9,-10.9 4,-3.8 9.4,-6.1 14.1,-9.2 2.9,-2 6,-4 8.3,-6.7 7.6,-9.1 15.5,-17.6 27.8,-19.7 3.3,-0.6 6.9,-0.3 10.3,0.4 8.3,1.6 9.8,0.8 13,-7 3.6,-8.6 9.9,-14 17,-19 3,-2.1 6.3,-3.7 9.6,-5.1 6.8,-3 12.7,-2.9 19.8,1.7 10.2,6.6 21.9,10.8 33.1,15.8 1.6,0.7 4.4,0.3 6,-0.7 4,-2.3 7.8,-5.1 11.5,-8 7,-5.5 14.8,-8.1 23.2,-4.4 7.8,3.4 14.9,0.8 22.3,-0.3 4.1,-0.6 8.8,-1 12.6,0.2 12,3.8 23.7,4.3 35.4,-0.7 4.9,-2.1 9.5,-1.7 14.4,0.4 8.3,3.4 16.9,6 25.1,9.6 6.3,2.8 11.2,1.3 15.9,-3.1 0.7,-0.7 1.7,-1.3 2.1,-2.2 3.6,-8.4 11.4,-10.7 19.1,-13.3 5.3,-1.8 10.7,-3.7 15.7,-6.2 4.2,-2.1 7.9,-1.5 11.8,0.3 5.1,2.4 5.9,8.7 1.2,11.9 -3.3,2.3 -6.7,4.4 -10.3,6.1 -3.6,1.7 -6.1,4.1 -6.2,8.2 -0.2,10.8 -6.6,15.8 -15.9,19.1 -8.3,2.9 -16.2,6.5 -25.2,7.1 -7.4,0.5 -12.8,5.4 -16.5,11.6 -4.4,7.5 -10.1,11.6 -19.3,9.5 -6.7,-1.6 -13.1,0 -18.5,4 -9.2,6.9 -19,7.3 -29.3,3.7 -12.9,-4.5 -25.6,-3.5 -38.7,-1.1 -4.6,0.9 -9.5,0.3 -14.2,-0.3 -7.6,-1 -11.6,0.3 -13.4,7.4 -3.4,12.9 -13.8,21.3 -19.3,32.7 -0.4,0.9 -1.8,1.4 -2.7,2.1 -3.9,3.5 -6.6,7.7 -6.1,13 1,9.9 0.3,19.7 -3.4,28.9 -1.7,4.3 -0.5,6.7 3.4,8.1 7.8,2.7 15.7,5.1 23.5,7.9 2,0.7 4.2,1.9 5.7,3.4 7,7.4 13.4,15.9 23.2,19.3 7.4,2.5 13.3,6.7 18.9,11.6 4.4,3.8 8.1,8.4 12.1,12.6 4.1,4.3 8.8,6.9 15,5.5 13.5,-3.1 26,-8 35.9,-18.2 6.4,-6.5 14,-7.7 22.4,-4.1 6,2.6 7.8,6.5 5.8,12.8 -2.5,8.2 -9.2,12.2 -15.9,16.4 -2.5,1.6 -5,3.8 -6.6,6.3 -5.3,8 -11.3,13.7 -21.9,14.1 -5.9,0.2 -12.1,3.4 -17.5,6.4 -5.1,2.7 -10.1,6.2 -13.8,10.6 -12.1,14.4 -29.2,18.8 -46,24 -2.4,0.7 -6,-0.6 -8.4,-2 -8.8,-5.3 -17.4,-11 -26.1,-16.6 -1.5,-1 -2.9,-2.7 -4.5,-3.1 -11.8,-2.6 -16.8,-12.2 -22.6,-21.2 -1.2,-1.8 -3.9,-3.1 -6.2,-3.7 -2.5,-0.7 -5.3,-0.1 -7.9,-0.4 -7.5,-0.8 -11.6,-4.9 -13.1,-12.2 -0.5,-2.4 -2.2,-4.5 -3.3,-6.8 -1.9,-3.8 -4.3,-7.5 -5.4,-11.6 -2.3,-8.6 -4,-17.3 -5.7,-26.1 -0.3,-1.6 -0.4,-3.9 0.5,-5.2 7.9,-11.8 7.4,-24.3 3.8,-37.2 -1.3,-4.8 -2.2,-9.7 -3.3,-14.6 -2.2,-9.5 6.8,-26.1 15.9,-29.6 1.2,-0.5 2.7,-1.5 3.2,-2.6 2,-5.5 6.2,-7 11.2,-5.5 6.3,1.9 9.9,-1.1 12.6,-5.9 2.2,-3.9 3.7,-8 5.6,-12.1 z M -600.77422,797.65625 c -7.82168,0.40879 -13.6625,4.36797 -18.125,11.54297 -4.2,6.7 -9.10078,13.1 -13.80078,19.5 -2.3,3.2 -5.50039,4.00156 -9.40039,4.60156 -5.9,0.9 -11.80039,2.9 -17.40039,5 -3.5,1.4 -5,4.49961 -4.5,8.59961 0.5,4.2 0.50117,8.3 0.70117,12.5 0.3,6.1 -1.7,8.39883 -8,8.79883 -3.1,0.2 -6.30039,0.4 -9.40039,1 -15.5,2.7 -23.50078,16.00156 -18.30078,29.60156 1.5,3.9 3.60156,6 8.10156,5.5 16.5,-1.9 32.99961,-4.30117 48.59961,-10.20117 6.5,-2.5 15.09961,2.50078 14.59961,10.30078 -0.9,13.2 -1.29922,26.70039 3.80078,39.40039 1.8,4.5 0.0984,6.09883 -4.10156,7.29883 -9.3,2.6 -18.5,6.1 -25.5,13 -16.2,16.1 -29.9,33.90078 -36.5,56.30079 -0.7,2.3 -1.99922,4.4996 -3.19922,6.5996 -2.1,3.8 -5.10039,7.3008 -6.40039,11.3008 -1.8,5.9 -2.49961,12.3 -3.59961,18.5 -0.9,5.2 1.3,9.4996 6,11.5996 7.3,3.2 14.4,6.8988 22,9.2988 8.7,2.8 17.80039,5.5008 26.90039,6.3008 8.1,0.7 16.00039,1.6004 23.90039,3.9004 2.8,0.8 7.39844,0.099 9.39844,-1.8008 10.4,-10.1 23.40039,-17.8996 29.90039,-31.5996 0.4,-0.8 1.10078,-1.6008 1.80078,-2.3008 7,-6.3 14.49922,-12.0984 18.69922,-20.8984 0.5,-1 1.59961,-1.9008 2.59961,-2.3008 0.9,-0.4 2.60156,-0.5996 3.10156,-0.1 4.8,4.7 10.6,8.3992 12.5,15.6992 2.3,8.6 5.5,17.0004 8.5,25.4004 4.1,11.4 13.4,11.0996 21.50002,5.0996 3.2,-2.4 6.1988,-5.0988 9.7988,-6.7988 2.7,-1.3 6.5012,-2.4 9.2012,-1.5 6.4,2.1 10.9984,0 15.3984,-4.1016 5.7,-5.3 11.0008,-10.4996 14.3008,-18.0996 4.7,-10.9 14.5,-18.0004 23.5,-25.4004 1,-0.9 2.6004,-1.5996 2.9004,-2.5996 2.6,-10.2 5.2992,-20.39881 7.1992,-30.79881 0.6,-3.4 -1.7992,-5.8 -6.1992,-4.5 -4.6,1.4 -9.5,1.99961 -14,3.59961 -7.8,2.8 -14.3,0.79961 -20.5,-3.90039 -1.1,-0.8 -2.2008,-1.60078 -3.3008,-2.30078 -5.9,-3.8 -13.3988,-6.49883 -17.2988,-11.79883 -4,-5.3 -4.9008,-13.20117 -6.3008,-20.20117 -1.4,-6.4 -4.5996,-11 -9.5996,-15 -9.7,-7.9 -16.60001,-16.99844 -16.00001,-30.89844 0.3,-8.2 -2.50117,-16.90078 -10.70117,-21.30078 -6.9,-3.8 -10.79961,-9.4 -12.59961,-16.5 -2.9,-11.4 -4.29961,-22.90078 0.40039,-34.30078 1.9,-4.7 -0.0996,-8.6 -3.59961,-11.5 -3,-2.5 -6.69961,-4.29883 -10.09961,-6.29883 -1.3,-0.8 -3.00039,-1.09961 -3.90039,-2.09961 -7.9,-8.8 -18.6,-10.30156 -29.5,-11.10156 -1.2,-0.0875 -2.35723,-0.10137 -3.47461,-0.043 z m -4.7539,188.52734 c 0.003,1.3e-4 0.005,0.002 0.008,0.002 1.67391,0.0518 3.01488,1.35427 3.51953,3.81445 0.54555,2.67322 1.77874,4.5702 3.43359,6.15039 0.41545,0.39234 0.86153,0.76294 1.32227,1.12305 1.08049,0.84638 2.27061,1.62933 3.54492,2.42578 16.9,10.80004 15.20078,16.50114 5.80078,30.20114 -3.9,5.475 -8.98281,8.7551 -15.20312,10.5176 -1.03672,0.2938 -2.10332,0.5453 -3.20313,0.7578 -6.3e-4,10e-5 -10e-4,-10e-5 -0.002,0 -1.09922,0.2124 -2.23074,0.386 -3.39258,0.5235 -0.79579,-0.3806 -1.60114,-0.736 -2.4043,-1.0977 -1.35258,-0.5925 -2.70547,-1.2065 -3.91015,-2.0351 -0.15666,-0.097 -0.33273,-0.1633 -0.48633,-0.2657 -5.9,-4.3 -11.69883,-8.7004 -17.29883,-13.4004 -0.62229,-0.4978 -0.91721,-1.4609 -1.09375,-2.4785 -0.0533,-0.2984 -0.0835,-0.5989 -0.10156,-0.8965 -0.0249,-0.3126 -0.10547,-0.6379 -0.10547,-0.9257 0,-1.2 0.90117,-2.4 1.70117,-3.5 5,-7 9.89922,-14.2004 15.19922,-20.90044 2.6,-3.4 6.00039,-6.29883 9.40039,-8.79883 0.54532,-0.40459 1.0743,-0.67051 1.5918,-0.87305 0.12429,-0.0514 0.24659,-0.0971 0.36914,-0.13672 0.14181,-0.0432 0.28349,-0.0894 0.42187,-0.11718 0.29617,-0.0643 0.58516,-0.094 0.86524,-0.0879 0.007,2.8e-4 0.0159,-0.002 0.0234,-0.002 z M 1977.9992,796.5 c -5.9,-0.4 -12.6984,3.49961 -17.8984,11.59961 -4.3,6.8 -9.3016,13.30039 -14.1016,19.90039 -2.2,2.9 -5.3,3.70078 -9,4.30078 -6.2,1.1 -12.3992,2.99961 -18.1992,5.59961 -2,0.9 -3.3992,4.69883 -3.6992,7.29883 -0.5,4.3 0.098,8.7 0.3984,13 0.4,6.5 -1.5992,8.70156 -8.1992,9.10156 -3.1,0.2 -6.3004,0.4 -9.4004,1 -15.2,2.9 -23,15.99844 -18,29.39844 1.6,4.2 3.9,6.50156 8.5,5.60156 16.1,-3.3 32.2996,-6.10117 48.0996,-10.20117 6.9,-1.8 15.4008,2.40117 14.8008,10.70117 -0.9,13 -1.2992,26.29844 3.8008,38.89844 1.9,4.7 0.1,6.40156 -4.4004,7.60156 -12.2,3.4 -22.9,9.29961 -31.5,19.09961 -12.9,14.8 -24.2996,30.30039 -30.0996,49.40041 -0.8,2.5 -2.0008,4.8992 -3.3008,7.1992 -2.1,3.9 -5.2996,7.4992 -6.5996,11.6992 -2,6.3 -3.1008,12.9 -3.8008,19.5 -0.4,4.1 0.8,8.2016 5.5,10.1016 9.4,3.8 18.4996,8.2 28.0996,11.5 6.7,2.3 13.8008,4.0984 20.8008,4.3984 8.5,0.4 16.7004,1.4 24.9004,4 2.6,0.8 7.2,10e-4 9,-1.7988 10.1,-10.2 23.2996,-17.5012 29.5996,-31.2012 0.6,-1.2 1.5,-2.1996 2.5,-3.0996 6.8,-6.2 14.2008,-11.9 18.3008,-20.5 0.5,-1 1.9,-1.9 3,-2.5 0.8,-0.4 2.1992,-0.4996 2.6992,-0.1 4.8,4.5 10.5,8.0996 12.5,15.0996 2.5,8.9 5.6008,17.7004 8.8008,26.4004 4,11.1 13.1992,10.6004 21.1992,4.9004 3.4,-2.5 6.6008,-5.2996 10.3008,-7.0996 2.6,-1.3 6.2988,-2.2004 8.7988,-1.4004 6.5,2.1 11.3008,-0 15.8008,-4.2012 5.6,-5.4 10.3988,-10.9996 14.2988,-18.0996 4.3,-7.9 11.8016,-14.2 18.1016,-21 2.3,-2.5 6.2988,-3.8992 7.7988,-6.6992 5.2,-9.7 7.1,-20.40117 7.5,-31.20117 0.2,-3.4 -1.9,-5.39883 -6,-4.29883 -5.4,1.5 -11.0004,2.39961 -16.4004,4.09961 -5.4,1.7 -10.0992,0.60078 -14.6992,-2.19922 -5,-3.2 -9.9008,-6.80078 -15.3008,-9.30078 -6.7,-3.2 -10.6992,-7.79922 -11.6992,-15.19922 -0.5,-3.7 -2.3,-7.3 -3,-11 -1.3,-7 -4.9,-12.30117 -10.5,-16.70117 -9.7,-7.5 -15.7,-16.69961 -15.5,-30.09961 0.2,-9.8 -3.7008,-18.79922 -13.8008,-23.69922 -2.9,-1.4 -5.2992,-4.80078 -6.6992,-7.80078 -5.6,-12.1 -7.3004,-24.80078 -3.4004,-37.80078 2.6,-8.8 1.3012,-12.79922 -6.7988,-17.69922 -3.1,-1.9 -7.2016,-2.59961 -9.6016,-5.09961 -8.4,-8.7 -19,-10.40039 -33.5,-11.40039 z m -4.6113,188.49805 c 1.6133,-0.0117 3.0117,1.08984 3.5117,3.40234 0.042,0.22697 0.095,0.44159 0.1465,0.6582 0.049,0.21224 0.1064,0.41635 0.1641,0.61914 0.7766,2.66898 2.2858,4.54143 4.1914,6.11329 1.3183,1.0875 2.8234,2.03476 4.3984,3.00976 8.0288,4.91902 11.995,9.45452 12.0664,14.85352 5e-4,0.021 -3e-4,0.043 0,0.064 0,0.5135 -0.027,1.0343 -0.094,1.5645 -0.025,0.2128 -0.065,0.4307 -0.1016,0.6464 -0.045,0.2587 -0.099,0.5201 -0.1602,0.7832 -0.5436,2.4 -1.8241,5.0211 -3.707,7.8907 -0.3936,0.595 -0.8408,1.214 -1.291,1.834 -0.4527,0.6274 -0.8017,1.2086 -1.3125,1.8632 -0.3688,0.4759 -0.8217,0.9148 -1.2305,1.375 -3.0269,3.4081 -7.0176,6.3745 -11.0703,8.2246 -6.7,3.1 -13.5,3.2004 -19.5,-3.0996 -2.1378,-2.1833 -4.543,-4.1305 -7.0644,-6.0468 -3.0184,-2.2617 -6.2236,-4.496 -9.4356,-7.0547 0.4756,-0.9512 0.9643,-2.0636 1.5137,-3.1875 0.4843,-1.0217 1.0149,-2.051 1.6875,-3.0118 4.5,-6.5 9,-13.1007 14,-19.30073 3,-3.7 6.5988,-7 10.2988,-10 0.975,-0.7875 2.0203,-1.19414 2.9883,-1.20117 z M -993.2,705.8 c -3,-7.2 -2.3,-12.8 2.3,-17.6 8.6,-8.9 14.2,-20.4 24.4,-28.1 3.8,-2.8 5.6,-8.1 8.6,-12.1 5.7,-7.5 12.9,-12.9 22.7,-14 0.6,-0.1 1.6,-0.1 1.9,-0.5 5.2,-6.5 12.3,-4.4 19,-4.3 4.6,0 9.3,-0.1 13.9,-0.3 8.7,-0.5 14.6,3.3 18.4,11 4,8.1 4.9,16.5 2.8,25.2 -0.2,1 -0.9,2.1 -0.6,2.9 3.8,9 -0.1,17.7 -0.8,26.5 -0.2,2.1 0.5,4.7 1.6,6.5 6.5,10.9 9.9,22.5 9.2,35.1 -0.2,3.7 -0.6,8.2 -2.7,10.7 -6.5,7.7 -6.1,16.4 -4.2,25 1.8,8.5 5,16.8 7.3,25.2 0.8,3 0.8,6.2 1.3,9.2 0.9,7 1.9,13.9 3,22.3 2.9,-1.9 4.4,-2.8 5.7,-3.8 15.3,-12.3 30.6,-24.6 45.9,-36.9 5,-4 10.2,-8 15.2,-12 5.7,-4.6 12.3,-2.8 18.7,-2.6 6.1,0.2 12.2,0.4 18.2,-0.3 6.6,-0.7 11.7,1.7 13,9.2 1.7,9.6 6.9,16.8 13,23.7 4,4.5 5.3,9.8 3.7,15.2 -2.6,8.6 -2.1,16.4 2.8,24.1 3.4,5.4 3.5,11.3 1.3,17.2 -0.5,1.2 -0.8,2.5 -1.2,3.8 -3.1,10.1 -7.7,19.8 -6.5,30.9 0.3,3.2 -1.3,6.8 -2.5,10.1 -5.4,14.1 -4.9,28.5 -3.3,43.2 1.1,10.1 -2.5,19.5 -7.6,28.3 -0.3,0.6 -0.8,1.2 -1.4,1.4 -8,2.4 -9.6,9.7 -11.9,16 -4.1,11.2 -9.2,22.1 -9.3,34.4 0,2.7 -0.2,5.4 0.3,7.9 1,5.5 -1.2,9.2 -6.2,10.8 -6.5,2.2 -8.8,6.8 -9.3,13.1 -0.6,6.6 -2.3,13.2 -2.1,19.8 0.2,7.9 -3.4,13.7 -8.1,19.2 -4.3,5 -4.6,10.8 -3.7,16.9 0.6,3.8 1.8,7.4 2.5,11.2 0.9,5.6 -0.5,8.3 -5.9,9.8 -4.3,1.2 -8.8,2.1 -13.2,1.9 -6.5,-0.2 -10.4,2.8 -12.8,8.3 -1.1,2.6 -2.1,5.2 -2.9,7.9 -1.9,6.7 -12.7,12.5 -19.4,10.5 -2.9,-0.9 -4.3,-2.2 -4,-5.6 0.5,-6 0.3,-12 0.5,-18 0.3,-9.5 9,-21.2 17.9,-24.1 3.8,-1.2 6.6,-6.2 6.3,-10.9 -0.6,-8 -0.7,-16 -1.8,-23.9 -1.5,-11.1 3,-19.5 11.1,-26.3 4,-3.3 5.6,-7.8 4.8,-12.4 -2.1,-12.1 0.2,-23.2 5.9,-33.7 3.2,-5.9 4.3,-11.5 1.5,-18 -4.5,-10.3 -3.1,-21.4 -1.7,-32 1.6,-12.9 0.9,-25.4 -1.7,-38 -0.6,-3 0.5,-6.4 1.2,-9.5 0.9,-4 2.5,-7.9 3.1,-11.9 0.3,-1.8 -1.3,-3.8 -1.8,-5.8 -1.7,-6.9 -3.9,-13.7 -4.9,-20.7 -0.9,-6.1 -2.4,-12.5 0.5,-18.7 0.4,-1 -0.8,-3.9 -1.9,-4.3 -7.5,-2.5 -15.1,-5 -22.9,-6.6 -2,-0.4 -5.3,1.4 -6.9,3.1 -4.8,5.2 -9.8,10.6 -13.4,16.6 -3.6,6.1 -8.5,10.4 -14.7,12.8 -11.4,4.4 -13.4,13.6 -13.7,23.8 -0.1,3.8 0.2,7.7 0.9,11.4 2.2,11 -1.6,21 -4.6,31.1 -1.7,5.9 -1.7,11.3 0,17.1 3.3,11.1 2,15.2 -8,21.2 -4.4,2.6 -4.7,5.6 -3.1,9.4 1.5,3.5 3.4,6.9 5.5,10 2.6,3.8 2.6,7.2 0,11 -7.9,11.7 -15.4,23.8 -18.1,37.9 -0.5,2.7 0,5.8 0.7,8.6 0.6,2.5 2,4.9 3,7.4 3.6,9.1 2.2,14.3 -6,22.3 -6.4,6.3 -14.7,8 -22.5,4.7 -7.2,-3.1 -9.9,-9.6 -5.4,-15.9 6,-8.4 7.2,-16.6 2.4,-25.8 -5.1,-9.9 -3.7,-19.7 0.3,-29.7 1.7,-4.2 1.2,-9.3 2.9,-13.5 3.4,-8.4 5.8,-16.2 2.9,-25.6 -1.5,-4.7 0.9,-10.5 1.3,-15.8 0.7,-10.1 1.3,-20.2 1.8,-30.2 0,-0.6 -0.1,-1.4 -0.4,-1.9 -5.5,-7.2 -4.3,-14.6 -1.3,-22.5 1.6,-4.2 1.2,-9.1 1.6,-13.7 1.1,-13.4 1.6,-26.9 3.5,-40.2 2.5,-17.9 3.4,-35.3 -5.1,-52.1 -1.1,-2.1 -0.1,-5.9 1.2,-8.4 3,-5.9 6.9,-11.4 10,-17.2 0.9,-1.6 1,-4.2 0.4,-5.9 -1.3,-3.6 -3.5,-6.8 -5,-10.3 -2.7,-6.2 -5.8,-12.3 -7.5,-18.7 -1,-3.7 0.5,-8.1 1,-12.2 0.8,-6.2 2.4,-12.4 2.5,-18.7 0.1,-7.5 -3.3,-11.1 -10.6,-12.9 -5.8,-1.4 -11.6,-2.3 -17.4,-3.8 -7,-1.8 -13.4,0.2 -19.9,2.4 -3.8,1.4 -7.6,1.9 -11.5,2.7 z m 491.5,520.8 c 3.3,-11.3 11,-10.4 19.8,-7.8 5.8,1.8 12,2.6 18,3.9 6,1.3 11.9,2.6 18.1,0.5 2.2,-0.7 5.4,0 7.7,1 6.8,3 13.3,6.8 20.1,9.8 3.4,1.5 7.3,2.9 10.9,2.8 10,-0.2 19.4,1.4 28.4,6.1 2.6,1.4 6.9,0.6 10,-0.4 11.4,-3.5 21.8,-8.8 30.3,-17.5 2.9,-2.9 6,-6.1 9.7,-7.7 12.8,-5.5 20.8,-17.3 32.7,-23.9 1.2,-0.7 1.9,-2.6 2.6,-4.1 4.3,-10 11.1,-17.7 20.9,-22.5 8.1,-3.9 12.6,-9.8 11.6,-19.4 -1.2,-12.1 -2,-24.2 -2.7,-36.3 -0.2,-3.9 0,-8 0.9,-11.8 1.9,-8.1 -0.9,-14.5 -7.1,-18.8 -6.5,-4.5 -10.9,-10.4 -15.5,-16.5 -12.1,-16.2 -26.6,-30.4 -44.8,-39.1 -20.6,-9.8 -36.8,-24.9 -53.9,-39.1 -3.6,-3 -7.4,-5.6 -11.1,-8.6 -6.3,-5.1 -13,-7.3 -21.3,-4.7 -2.2,0.7 -6.4,-0.6 -7.9,-2.4 -4.9,-5.8 -9.6,-11.9 -13.2,-18.5 -2.5,-4.6 -5.7,-7.7 -10.4,-9.3 -3.7,-1.3 -7.6,-2.6 -11.5,-3.1 -5.9,-0.6 -10.5,-3.3 -12.7,-8.4 -4.1,-9 -7.4,-18.4 -10.8,-27.7 -0.5,-1.4 0.2,-3.2 0.4,-4.8 0.8,-5 1.6,-10 2.3,-15 0.3,-1.8 0,-3.8 0.8,-5.3 7.9,-14.5 14.2,-30 25.8,-42.3 2.1,-2.2 3.7,-5.1 5.1,-7.9 3.4,-6.5 8.7,-10 15.8,-10.8 18.5,-2 36,-7.4 53,-14.6 3.5,-1.5 7.7,-2.5 11.4,-2.3 6.7,0.5 13.3,2.1 20,3.1 1.7,0.2 3.6,0 5.2,-0.6 7.6,-2.8 15.5,-5.2 22.7,-8.9 9.3,-4.8 17.9,-3.5 25.9,1.7 5.1,3.3 9.3,3.3 13.3,-0.5 7.1,-6.6 16.2,-5.1 24.4,-7 7.2,-1.7 14.2,-1.9 21.6,-1.4 8.7,0.7 17.6,-0.3 26.4,-0.8 3.6,-0.2 4.7,1 4.7,4.5 -0.1,9.1 -5.2,15.9 -15.9,18.4 -5.9,1.4 -9.4,4 -11.1,9.5 -1.5,4.8 -5.3,8.5 -4.3,14.4 1.7,9.3 -1.2,18.2 -7.4,25 -4,4.4 -10.1,7.2 -15.7,9.9 -6.7,3.2 -13.8,5.8 -20.8,8.2 -5.2,1.8 -7.2,0.5 -8.7,-4.9 -0.8,-2.9 -1.5,-5.8 -1.9,-8.7 -2.6,-16.3 -12.6,-26.1 -29.1,-27.8 -9.6,-1 -18.9,-2.9 -28.1,-6 -4.2,-1.4 -9.6,0.9 -14.5,1.1 -10.1,0.4 -20.2,1 -30.3,0.8 -8.3,-0.2 -19.2,7.9 -20,16.4 -0.8,9.6 -1.4,15.6 10.9,21.2 6,2.7 11.2,7.7 16.2,12.3 5.9,5.4 11.8,10.9 16.6,17.3 8.2,11.1 19.1,16.7 32.4,18.3 3.2,0.4 4.4,1.6 5.1,4.7 1,4.8 2.7,9.6 4.2,14.3 2.5,7.5 3.3,9.2 10.8,8 13.1,-2.2 23.4,4.7 34.6,8.5 1.6,0.6 3.2,1.7 4.5,3 4,4 7.9,8.1 11.8,12.2 3.7,4 6.9,7.7 7.3,14 0.6,9 5.8,13.4 14.8,14.9 3.8,0.6 6,2.3 8.2,5.3 4.9,6.7 10.3,13.1 15.8,19.3 9.8,11 16.4,23.8 22,37.1 0.5,1.2 0.4,2.6 0.5,3.9 0.6,7.3 1.3,14.5 1.9,21.8 0,0.5 0,1 0,1.5 -0.3,7.2 0.2,14.7 -1.1,21.7 -2.6,13.5 -5.2,27.9 -14.3,38.3 -6.9,7.8 -7,15.5 -6.2,24.2 0.4,3.7 -0.4,5.5 -3.8,7.2 -11.2,5.7 -20,14 -26.6,24.9 -10.4,17.3 -25.9,27.6 -45.7,31.7 -11.2,2.3 -22.3,5.3 -33.1,8.8 -8.8,2.8 -17.1,6.9 -25.7,10.4 -12.9,5.3 -26,6.1 -39.2,1.5 -6.6,-2.3 -12.8,-1.5 -19.2,1.2 -6.7,2.8 -13.8,4.8 -20.9,6.1 -3.6,0.7 -8.3,0.4 -11.3,-1.5 -16.7,-10 -35.2,-12.4 -53.9,-14 -4.3,-0.4 -8.7,-0.1 -12.9,0.7 -4,0.7 -6.9,-0.7 -10.1,-2.7 -9.5,-6.2 -19.1,-12.2 -28.8,-17.9 -3.6,-2.1 -8.1,-2.9 -11.8,-5 -4.3,-2.6 -8.4,-5.8 -12.2,-9.2 -5.6,-5.1 -10.9,-10.5 -16.4,-15.8 -3.7,-3.6 -7.7,-6.9 -11.2,-10.7 -8.9,-9.8 -8.6,-20.1 0.4,-29.5 1.3,-1.3 2.7,-2.5 3.9,-3.9 3.9,-4.6 7.7,-7 13.8,-2.7 2.2,1.5 6.6,0.3 9.9,-0.3 5.8,-1 7,-0.4 6.8,5.5 -0.1,2.8 -0.6,5.6 -1.3,8.3 -1.9,7.5 0.3,14.1 5.4,19.3 5.2,5.3 11.4,9.6 17.2,14.3 0.7,0.6 1.8,0.9 2.7,1 10,0.7 14.7,7.2 17.8,15.7 0.7,1.9 1.6,4.4 3.1,5.4 5.4,3.2 11,6 17.3,9.5 z m 3714.1,-1 c 3.4,-11.9 11.8,-10.1 20.6,-7.6 5.3,1.5 10.7,2.1 16.1,3.4 6.5,1.5 12.8,2.9 19.5,0.8 2.2,-0.7 5.4,0.1 7.7,1.2 6.7,3 13,6.7 19.7,9.6 3.6,1.6 7.6,2.9 11.4,2.9 9.9,-0.2 19,1.5 27.9,6.1 2.7,1.4 7.2,0.6 10.5,-0.4 11.4,-3.4 21.7,-8.9 30.2,-17.6 2.6,-2.7 5.5,-5.7 8.9,-7.1 13,-5.5 21.1,-17.4 33.1,-24.2 1.4,-0.8 2.2,-2.9 2.9,-4.5 4.3,-9.8 10.9,-17.4 20.6,-22.1 8.3,-4 12.9,-9.9 11.8,-19.8 -1.3,-12.1 -2.1,-24.2 -2.7,-36.3 -0.2,-3.8 0,-7.7 0.9,-11.4 2,-8.3 -0.9,-14.8 -7.3,-19.2 -6.4,-4.4 -10.7,-10.2 -15.1,-16.2 -11.8,-15.8 -25.7,-29.9 -43.5,-38.4 -22.6,-10.8 -40.2,-27.6 -59.1,-43 -2.8,-2.3 -5.9,-4.3 -8.8,-6.6 -5.6,-4.3 -11.7,-6.4 -18.6,-3.7 -4.1,1.6 -7.5,0.2 -9.9,-2.7 -4.5,-5.7 -9,-11.5 -12.4,-17.9 -2.6,-4.8 -5.9,-7.9 -10.8,-9.6 -3.8,-1.3 -7.6,-2.6 -11.5,-3 -5.9,-0.7 -10.3,-3.5 -12.6,-8.6 -4,-8.9 -7.3,-18.1 -10.6,-27.3 -0.6,-1.6 0.4,-3.8 0.7,-5.7 0.7,-4.2 1.3,-8.4 2.1,-12.6 0.8,-3.6 1.3,-7.4 2.9,-10.7 4.4,-8.8 9,-17.7 14.2,-26.1 5,-8 10.8,-15.5 16.2,-23.3 3.4,-4.9 8.2,-7.3 13.8,-7.9 18.7,-2 36.3,-7.4 53.5,-14.8 3.2,-1.4 7,-2.4 10.5,-2.1 7,0.6 14,2.2 21,3.3 1.5,0.2 3.3,-0.1 4.7,-0.7 7.6,-2.8 15.5,-5.2 22.7,-8.9 9.7,-5 18.4,-3.3 26.8,2.1 4.4,2.8 7.9,2.7 11.7,-0.2 6.3,-4.8 13.3,-7 21.3,-6.9 3.6,0.1 7.1,-1.4 10.7,-2.1 1.9,-0.4 3.9,-0.7 5.9,-0.7 11.6,-0.1 23.2,0.2 34.8,-0.2 4.4,-0.1 5.6,1.2 5.3,5.3 -0.6,8.9 -5.6,15.3 -16.2,17.7 -6,1.3 -8.8,4.4 -11,9.7 -2.5,5.8 -4.7,11.2 -3.9,18 0.9,7.8 -2.6,14.9 -7.1,21.3 -0.8,1.2 -2,2.4 -3.3,3 -11.1,5.1 -22.1,10.3 -33.4,14.9 -5.5,2.2 -7.3,0.8 -8.9,-5.1 -0.7,-2.7 -1.4,-5.5 -1.9,-8.3 -2.9,-16.9 -12.9,-26.5 -30,-28.1 -9.1,-0.8 -17.9,-2.8 -26.6,-5.7 -4.5,-1.5 -10.3,0.8 -15.5,1 -9.9,0.4 -19.9,1 -29.8,0.7 -8,-0.2 -19.2,7.5 -20.1,15.7 -1.1,9.9 -1.5,16.2 10.6,21.8 6.7,3.1 12.5,8.8 18.1,14 6.5,6 12.7,12.3 18.2,19.3 6.7,8.5 15.5,12.5 25.6,14 5.6,0.8 9,2.6 9.6,8.7 0.4,3.6 1.9,7 3,10.5 2.6,8 4.4,10 12.9,8.7 8.2,-1.3 14.7,2 22,4 14.9,3.9 23.1,15.6 32.5,25.9 1,1.1 1.2,3 1.3,4.6 0.7,10.6 5.4,16.4 15.7,18.1 3.6,0.6 5.7,2.3 7.8,5.1 5,6.6 10.3,13.1 15.8,19.3 9.9,11.1 16.5,24.1 22.3,37.6 0.6,1.4 0.3,3.3 0.4,4.9 0.6,6.8 1.2,13.5 1.8,20.3 0.1,1 -0.2,1.9 -0.3,2.9 -0.3,6.4 -0.5,12.9 -0.7,19.3 0,0.7 0.3,1.4 0.1,2 -4.5,12.4 -8.1,25.3 -14.1,37 -2.4,4.7 -6.9,8.6 -7.2,14.5 -0.2,3.8 0.1,7.7 0.8,11.4 0.5,2.9 -0.5,4.2 -2.9,5.4 -11.9,6 -21.1,14.7 -28.1,26.1 -10.4,17.1 -25.9,27 -45.6,31.1 -11.7,2.4 -23.9,4.3 -34.4,9.5 -11.8,5.9 -24.2,8.9 -36.3,13.2 -7.8,2.8 -15,0 -22.4,-1.2 -0.5,-0.1 -0.9,-0.3 -1.4,-0.5 -8.4,-2.4 -16.3,-2.4 -24.5,1.5 -5.7,2.8 -12.4,3.6 -18.5,5.5 -4.5,1.4 -8.4,0.4 -12.4,-1.9 -20.8,-11.8 -43.4,-14.6 -66.9,-13.3 -2.7,0.1 -5.9,-0.7 -8.2,-2.1 -9.4,-5.6 -18.5,-11.8 -28,-17.3 -4.4,-2.6 -9.6,-3.7 -13.9,-6.3 -4.2,-2.5 -8.1,-5.6 -11.8,-8.9 -5.8,-5.2 -11.2,-10.8 -16.8,-16.2 -3.7,-3.6 -7.7,-6.9 -11.1,-10.8 -8.6,-9.6 -8.3,-19.9 0.5,-29.1 1.6,-1.7 3.5,-3.2 5,-4.9 3.6,-4.1 6.8,-5.8 12.2,-2.1 2.4,1.6 7,0.6 10.4,0 6,-1 7.3,-0.3 7,5.7 -0.1,2.8 -0.7,5.6 -1.4,8.3 -1.8,6.9 0.1,13.3 4.7,18.1 5.5,5.7 12,10.3 18.2,15.4 0.6,0.5 1.5,0.8 2.3,0.8 10,0.5 14.8,7.1 17.9,15.6 0.7,1.9 1.5,4.5 3,5.4 5.1,3.3 10.7,6.1 17.2,9.7 z M 399.7,781.9 c 5.2,5.8 9.1,10.7 13.5,15.1 6.4,6.2 13.1,11.8 17.9,19.8 4.3,7.2 10.3,13.5 16.2,19.6 6.5,6.6 13.6,12.6 20.8,18.5 3.5,2.9 5,5.9 4.4,10.3 -2.1,15.6 2.7,24.6 16.5,32.5 4.1,2.4 8.2,5.2 11.5,8.6 4.8,4.8 6.4,10.8 3.4,17.4 -0.6,1.2 -1,2.5 -1.5,3.7 -3,8.4 -2.5,10.5 5,15.8 5.8,4.1 11.8,7.9 18.4,12.3 0.9,-1 2.6,-2.3 3.5,-4.1 2.4,-4.7 6.4,-7.2 11,-9.5 7.2,-3.7 14.2,-8 21,-12.4 4.9,-3.2 8.3,-7.7 11,-13.2 2.1,-4.3 6.4,-7.5 10,-10.9 3.2,-3.1 4.9,-5.9 4.1,-11.1 -2,-13.7 5.3,-23.9 19.2,-29.7 3,-1.3 5.8,-4.2 7.6,-7 2.5,-4 1,-6.6 -3.7,-6.4 -4.1,0.2 -8.1,1.5 -12.1,2.5 -8.2,2.2 -16.3,4.6 -24.7,0.7 -1.2,-0.5 -3.5,0.4 -4.8,1.3 -3,2.4 -5.9,5 -8.4,7.9 -2.7,3.1 -5.9,3.8 -9.7,3.5 -12.5,-1.1 -21.3,-9.7 -22.2,-22.1 -0.1,-1.7 0.6,-3.6 1.5,-5 2.1,-3.2 4.5,-6.2 6.9,-9.2 6.6,-8.3 14,-15.9 18.9,-25.6 3.9,-7.7 10.7,-12.8 18.4,-17.1 3.7,-2.1 6.6,-5.8 9.5,-9.2 3.8,-4.4 8,-4.7 13,-2.8 10.7,4.1 21.2,8.7 32.2,11.9 5.8,1.7 12.4,1.1 18.6,1.5 3.1,0.2 6.3,0.1 9.4,0.5 7.3,1 12.2,-2.5 15.5,-8.5 1.6,-2.9 3.7,-4.3 7,-4.6 6.1,-0.5 12.2,-1.5 18.3,-1.9 8.7,-0.5 13.9,5.4 18.8,11.4 0.5,0.7 0.1,2.6 -0.5,3.7 -1.8,3.3 -4.6,6.1 -5.5,9.6 -1.4,5.1 -1.4,10.5 -2.4,15.7 -0.4,2 -1.4,4.5 -3,5.7 -4.9,3.7 -9.9,7.4 -15.4,10.2 -11.1,5.9 -18.8,15.2 -26.5,24.6 -1.2,1.5 -1.8,3.9 -2,5.9 -0.9,11.2 -5.2,19.6 -16.6,23.6 -7.2,2.5 -12.7,7.2 -14,15.5 -0.2,1.3 -1.4,2.6 -2.4,3.5 -1.5,1.4 -3.1,2.5 -4.8,3.6 -6.7,4 -10.6,8.3 -6.6,17.1 2.9,6.6 0.3,10.6 -6.2,14.5 -1.7,1 -3.5,2.1 -5.3,2.7 -7.7,2.4 -9.3,8.7 -10,15.5 -0.2,2.1 -0.3,4.4 0.3,6.5 2.1,7.7 -1.3,13.2 -7.8,15.9 -10.3,4.2 -13.7,13 -16.3,22.3 -1.5,5.4 -4.6,8.7 -9.4,10.6 -5.1,2 -10.2,4.2 -15.4,5.6 -4.2,1.2 -5.8,3.6 -5.3,7.6 1,8.4 1.5,16.9 3.5,25.1 1.7,7.3 1.1,14.1 -1.1,21 -4.5,14.1 -11.9,26.7 -20.3,38.7 -4.1,5.9 -4.9,11.6 -3.3,18.3 3.9,16.2 -1.9,30.6 -9.3,44.6 -0.5,0.9 -1.1,1.6 -1.7,2.5 -3.3,5.2 -4.7,9.6 -0.6,16 6.8,10.6 8.2,22.6 3.7,34.9 -0.6,1.5 -1.4,3.3 -1.2,4.8 1.3,9.8 3,19.6 4.2,29.5 0.9,7.2 1.3,14.4 1.9,21.6 0.2,2.6 1,5.2 1,7.7 0,4.4 0.8,9.3 -0.9,13.1 -4.1,9.4 -9.4,18.3 -14.3,27.3 -0.9,1.6 -2.1,3.1 -2.6,4.8 -1.4,4.4 -3.2,8.3 -8.7,7.8 -6.5,-0.5 -11.8,-4.3 -12.2,-9.8 -0.4,-4.5 0.6,-9.2 1.4,-13.7 0.7,-3.9 0.6,-7.2 -1.2,-11 -1.4,-3 -1.7,-7 -1.1,-10.4 2.1,-13 0.5,-24.6 -9.4,-34.5 -1.6,-1.6 -1.4,-6.2 -0.6,-9 2.4,-8.8 5.8,-17.3 8.3,-26 0.7,-2.3 0.7,-5.7 -0.5,-7.6 -6.3,-9.6 -7,-19.4 -3,-30.1 1,-2.6 0.5,-6.8 -1,-9.3 -6.4,-10.9 -5.5,-20.8 1.8,-31 8.1,-11.3 5.9,-37 -3.1,-47.5 -2.1,-2.5 -6.8,-2.7 -6.6,-7.2 0.1,-3.7 -0.3,-7.6 0.5,-11.2 1.9,-8.8 4,-17.5 6.5,-26 1.5,-5.2 0.5,-9.3 -2.6,-13.5 -3.9,-5.2 -7.8,-9.9 -8.9,-17.2 -1.9,-12.5 -6.4,-24.7 -10,-36.9 -0.7,-2.3 -2.2,-4.3 -3.5,-6.4 -4,-6.9 -8.9,-13.4 -12,-20.6 -5.3,-12.1 -14.1,-20.7 -24.5,-28.2 -10.4,-7.5 -19,-16.7 -25.7,-27.6 -2.6,-4.2 -4,-9 -5.9,-13.6 -1.6,-4 -2.9,-8.1 -4.8,-12 -4.8,-9.6 -8.1,-11.1 -18.6,-8.7 -6.5,1.5 -12.9,3.1 -19.2,5 -5.5,1.7 -10.2,4.5 -14.8,8.4 -5.2,4.4 -12.4,7 -19.2,8.6 -7.4,1.7 -11.6,-3.2 -10.4,-10.7 0.9,-5.9 1.6,-11.9 3.4,-17.5 1,-3.2 4.1,-5.7 6.2,-8.5 0.9,-1.1 1.9,-2.2 2.6,-3.4 10.7,-19.4 27,-33.2 45.2,-44.9 1.3,-0.8 3.1,-1.1 4.7,-1.2 13.4,-1.2 23.2,-8.2 30.9,-18.8 3.8,-6.3 10.1,-9.5 16.2,-10.1 z m 886.6,101.9 c -7.9,-6.3 -9.5,-15.4 -12.2,-23.9 -1.7,-5.4 -6.2,-9.9 -11.6,-9 -14.5,2.5 -28.4,-1.6 -42.6,-1.9 -7.6,-0.2 -15.2,0.7 -22.8,1.6 -7.7,0.9 -15.1,1.3 -22.6,-1.8 -3.2,-1.3 -7.1,-1.9 -10.6,-1.8 -8.8,0.3 -17.6,1.6 -26.4,1.7 -4.9,0 -9.9,-1 -14.6,-2.6 -9.8,-3.4 -17.9,-0.8 -25.3,5.6 -3.2,2.7 -6.5,4.7 -11,5.1 -5.5,0.6 -11,2.3 -16.4,3.6 -0.5,0.1 -1,0.6 -1.4,0.5 -7.3,-1.5 -12.1,3.4 -17.5,6.8 -2,1.2 -4,2.6 -6.2,3.2 -8.9,2.3 -15.3,8 -21.5,14.4 -5.1,5.3 -10.6,10.2 -16.4,14.7 -12.4,9.6 -20.8,22.3 -28.2,35.8 -0.8,1.4 -1.7,2.9 -3,3.7 -6.2,4 -10.6,15.2 -8.2,22.3 3.3,10.1 7.1,20 10,30.2 1.4,5 2.1,10.5 1.5,15.5 -1.4,12.6 2.8,22.1 13.3,29 1.8,1.2 3.6,2.9 4.7,4.8 3.6,5.8 8,9.9 15.2,10.9 4,0.5 8.3,1.9 11.5,4.2 3,2.1 5.6,5.7 6.9,9.1 3.3,8.8 6.7,16.6 17,19.8 6.3,1.9 9.4,8 11.7,14.1 0.9,2.2 2.6,5.1 4.6,5.8 14.9,5.3 28.6,12.7 41,22.6 7.7,6.2 16.8,3.6 25.5,2.9 2.7,-0.2 5.6,0.2 8,1.3 12.7,5.8 25.6,10.6 39.1,14.4 7.3,2 13.4,0.5 20.1,0.7 8.8,0.4 17.5,2 26.2,3 1.3,0.2 2.7,0.6 3.9,0.2 7.2,-2.6 14.6,-2.4 22.1,-1.8 4.3,0.3 8.9,-0.4 13.1,-1.7 8.8,-2.8 17.1,-1.5 25.2,1.8 4.5,1.8 8,0.9 11.5,-1.9 3.8,-3 8,-5.6 11.2,-9.2 5.4,-6 12.1,-7.5 19.6,-7.8 5.4,-0.2 10.7,0 16.1,0.8 7.2,1 14.7,-0.3 22.1,-0.9 9.3,-0.8 18.5,-2.3 27.8,-2.9 2.7,-0.2 6.3,1.1 8.1,3 2.7,2.8 2.5,7.1 0.1,10.2 -2.1,2.7 -4.9,5.2 -7.9,6.5 -4.8,2.1 -10.2,2.9 -15.2,4.5 -6.3,2 -12.9,3.4 -18.6,6.5 -8.2,4.4 -16.1,9.6 -23.2,15.5 -7.7,6.3 -16.5,8.1 -25.8,9 -1,0.1 -2,0.2 -3,0.2 -7.6,0.4 -14.7,1.9 -21.5,6.1 -8.8,5.4 -18.9,4.1 -28.7,2.3 -1.7,-0.3 -3.8,-0.4 -5.2,0.4 -9.6,5.3 -19.7,8.1 -30.7,9.1 -7.3,0.7 -14.9,2.8 -21.3,6.2 -8.9,4.7 -17.7,5.1 -26.4,2.1 -18.6,-6.3 -38,-6 -57.1,-8.1 -6.3,-0.7 -12.9,0.9 -19.3,1.7 -10.7,1.5 -19.2,-2.8 -26.5,-10 -3,-3 -5.6,-3.7 -9,-1.1 -3.6,2.7 -7.4,2.3 -11.2,0.1 -4.6,-2.6 -9.5,-4.9 -13.7,-8.1 -4.3,-3.2 -8.7,-4.2 -13.9,-4.1 -5.6,0.2 -11.3,-0.5 -17,-0.5 -2.2,0 -4.6,0.6 -6.7,1.4 -12,4.7 -31.7,-1.1 -38.7,-12 -3,-4.6 -4.4,-10.3 -7.7,-14.7 -4.7,-6.4 -10.7,-11.3 -19.2,-12.3 -1.4,-0.2 -2.9,-1.5 -4,-2.6 -4.6,-4.3 -9.3,-8.6 -13.7,-13.2 -6.2,-6.3 -12.6,-11.5 -21.5,-14.3 -13.4,-4.2 -18.6,-14.3 -16.6,-28.4 1.2,-8.2 1.4,-16.2 -2.9,-23.7 -3.5,-6.1 -2,-12.7 -0.5,-18.5 2.9,-11.2 1.6,-21.9 -0.8,-32.8 -1.3,-5.8 -2.4,-11.7 -3.6,-17.5 -0.6,-3 0.1,-5.3 1.8,-8.1 3.8,-6.2 7.4,-12.7 9.5,-19.6 3,-9.9 8.9,-17.4 16.3,-24 4.7,-4.2 8.2,-8.9 10.9,-14.5 4.8,-10 11,-19.2 20.2,-25.6 4.9,-3.4 10.9,-5.2 16.3,-8 3.6,-1.9 7.1,-4.1 10.5,-6.5 3.2,-2.3 6,-5.1 9.3,-7.3 15,-9.8 30.1,-19.5 45.3,-29.1 1.8,-1.1 4.5,-2.1 6.4,-1.7 7.2,1.7 13.2,-0.7 18.5,-5 4.1,-3.3 8.5,-6.8 11.3,-11.2 5.9,-9.2 14.7,-12.7 24.5,-14 9.7,-1.2 19.5,-2 29.2,-1.9 5.3,0 9.1,-1.9 12.3,-5.3 5.3,-5.6 10.8,-7.4 18.1,-3.7 2.3,1.1 5.7,1.2 8.2,0.5 8.6,-2.4 17,-5.4 25.5,-8.2 2.8,-0.9 5.6,-2.3 8.4,-3 6.4,-1.6 12.7,-3.1 17.8,-8 2.8,-2.7 6.7,-2.9 10.7,-1.6 6.6,2 13.5,3.6 20.3,4.9 3.5,0.7 7.2,0.2 10.8,0.3 5.4,0.1 10.8,0.2 16.2,0.2 3.1,0 6.5,0.7 9.3,-0.3 6,-2.1 11.3,-0.8 15.2,3.2 11.2,11.5 24.5,9.8 38.2,7.5 5.7,-1 11.4,-2.5 17.1,-3.3 2.1,-0.3 4.7,0.2 6.4,1.4 4.7,3.2 8.9,4.3 14.1,0.7 4.4,-3 9.6,-3.8 14.8,-1.9 4.2,1.5 4.9,5.4 1.6,8.3 -7.7,6.8 -15.4,13.7 -23.2,20.5 -0.8,0.7 -1.9,1.4 -3,1.5 -5.9,0.6 -9.5,4.2 -11.2,9.3 -1.8,5.1 -3.4,10.6 -3.6,15.9 -0.5,17.9 -4.9,35 -12.1,51 -3.3,7.3 -10.7,12.9 -17,18.5 -3.2,2.9 -9.5,0.2 -12.3,-4.4 -5.8,-9.3 -6,-19.1 -2.4,-29.2 1.1,-1.2 1.7,-2.5 2.3,-4.1 z m -2429.5996,-99.49922 c -5.5,0.1 -7.5,5.89922 -10,10.19922 -0.1,0.2 -0.5004,0.3 -0.9004,0.5 -5,-3.1 -9.8992,-6.70078 -15.1992,-9.30078 -2.5,-1.2 -6.3008,-1.79883 -8.8008,-0.79883 -7.1,2.7 -13.9008,6.39961 -20.8008,9.59961 -1.8,0.8 -3.6996,1.39922 -5.5996,1.69922 -3.2,0.5 -6.5992,0.30156 -9.6992,1.10156 -11.2,2.9 -22.6,4.7 -33,10.5 -5.2,2.8 -11.7012,3.8 -17.7012,4.5 -12,1.4 -22.9996,4.9 -33.0996,11.5 -2,1.3 -5.0992,1.3 -7.6992,1.5 -3.3,0.2 -6.9012,-1.00039 -9.7012,0.0996 -7.6,3.1 -14.6984,2.1 -21.8984,-1 -0.9,-0.4 -2.0004,-0.80117 -2.9004,-0.70117 -4,0.4 -8.3004,0.30039 -11.9004,1.90039 -1.7,0.7 -2.1004,4.60117 -2.9004,7.20117 -1.3,4.6 -3.7996,8.59844 -8.5996,9.39844 -7.3,1.3 -13.5008,5.10156 -20.3008,7.60156 -11.8,4.4 -24,7.49961 -34.5,15.59961 -6.7,5.1 -12.5992,10.09922 -16.1992,17.69922 -0.8,1.7 -2.6008,3.10117 -4.3008,4.20117 -8.2,5.30001 -16.9992,9.79923 -24.6992,15.69923 -9.6,7.4 -17.1996,17 -22.0996,28 -3.2,7 -5.5012,14.49922 -11.7012,19.19922 -8.6,6.5 -12.8988,15 -15.7988,25 -1.6,5.5 -5.1012,10.50078 -7.7012,15.80078 0,4.3 0,8.69961 0.1016,13.0996 1.4,6.4 4.0992,12.9012 3.6992,19.2012 -0.6,11.3 1.7004,22.0992 2.4004,33.1992 0.047,0.7831 -0.088,1.578 -0.1016,2.3652 -0.017,0.8683 -0.045,1.7362 -0.1133,2.6075 -0.2571,3.3832 -0.6835,6.7733 -0.8847,10.1269 -0.1,2.4 -0.5012,4.9996 0.2988,7.0996 2.5,6.8 5.5008,13.5012 8.3008,20.2012 2.6474,6.4225 6.4179,11.9188 10.6992,17.0566 4.2721,5.1001 9.0459,9.8451 13.7305,14.75 0.206,0.2136 0.4094,0.4225 0.6152,0.6368 1.5612,1.6207 3.1642,3.1549 4.8067,4.6093 1.826,1.617 3.7084,3.1195 5.623,4.5606 3.2444,2.4443 6.6038,4.6687 10.0527,6.7285 7.4517,4.4456 15.3096,8.1776 23.2715,11.957 1.1863,0.5932 2.1986,1.6388 3.0977,2.7285 0.1962,0.2273 0.4207,0.4525 0.6035,0.6719 4.3921,5.211 9.6744,9.1415 15.5098,12.3809 1.9625,1.0734 3.9952,2.0719 6.0898,3.0195 9.5,4.3 18.5992,9.7008 27.6992,14.8008 4.1,2.3 8.0008,3.0992 12.3008,1.1992 9.6,-4.2 19.3,-1.3992 29,-0.6992 0.67,0.052 1.3841,0.3745 2.0371,0.8066 0.4712,0.2895 0.8334,0.6768 1.1953,1.0645 0.1081,0.115 0.276,0.2141 0.3672,0.3281 0.017,0.022 0.037,0.037 0.055,0.059 0.011,0.015 0.034,0.026 0.045,0.041 1.3239,1.6549 2.7146,3.1282 4.1582,4.4531 10.3184,9.3992 23.5122,10.8218 37.2422,9.9473 3.8,-0.3 7.4004,-3.4996 10.9004,-5.5996 4.9,-3 9.9008,-3.4996 15.3008,-1.5996 0.9,0.3 1.9988,0.4984 2.7988,0.8984 0.4282,0.2059 0.8569,0.3657 1.2852,0.5586 1.7525,0.7934 3.5075,1.4616 5.2656,2.0254 8.2472,2.6228 16.5975,2.6531 25.4492,-0.9824 3.5,-1.4 8.6012,-0.3016 12.7012,0.8984 0.6343,0.1748 1.2656,0.2892 1.8984,0.4317 1.1788,0.2682 2.3549,0.4808 3.5293,0.6484 5.0951,0.716 10.1588,0.569 15.2422,0.1719 0.802,-0.062 1.6068,-0.1098 2.4101,-0.1817 2.0348,-0.1829 4.0706,-0.3822 6.1192,-0.5703 5.5,-0.5 11.3992,-0.9992 16.6992,0.3008 0.4671,0.1123 0.9243,0.1521 1.3867,0.2305 1.0308,0.1791 2.0498,0.2766 3.0606,0.3125 6.2059,0.1982 12.0853,-1.8999 18.1543,-2.1426 16.4,-0.7 30.5,-9.9004 46.5,-11.9004 6.5626,-0.8576 12.86,-2.4681 18.998,-4.5215 0.072,-0.024 0.1446,-0.048 0.2168,-0.072 10.2446,-3.4466 20.0456,-8.1218 29.8848,-12.6055 2.853,-1.2763 4.8036,-0.8617 6.0644,1.1172 0.4579,0.6764 0.8421,1.5178 1.1348,2.5821 1.7,6 3.7996,11.9004 5.5996,17.9004 0.5,1.7 0.8004,3.8 0.4004,5.5 -2.6,10.6 -5.1,21.2996 -8.5,31.5996 -1.4,4.3 -4.9992,7.9007 -7.6992,11.8007 -1.3,1.9 -3.0004,3.3985 -3.9004,5.3985 -3.3,7.3 -5.4996,15.1012 -11.5996,21.2012 -2.1,2.1 -1.6012,6.8003 -2.2012,10.4003 -0.6615,3.8489 -1.3391,7.6142 -2.8711,11.0645 -0.116,0.2612 -0.2414,0.5189 -0.3691,0.7754 -0.5057,1.0177 -1.1374,1.9924 -1.8633,2.9316 -0.3477,0.4447 -0.7269,0.8775 -1.1348,1.2989 -0.412,0.434 -0.6797,0.9175 -1.1601,1.3281 -1.6,1.3 -1.8012,4.2008 -2.7012,6.3008 -3.7,9.2 -7.2988,18.4996 -11.2988,27.5996 -1,2.3 -3.5016,4.2004 -5.6016,5.9004 -3.7,3.1 -8.1,5.3992 -11.5,8.6992 -5.7587,5.5343 -6.3088,11.2359 -2.166,15.6836 1.3886,1.4593 3.2755,2.7843 5.666,3.9179 1.6,0.8 3.2008,1.6 4.8008,2.5 h -0.092 c 0.063,0.032 0.1276,0.068 0.1914,0.1 h 5 c 1.3,-0.7 2.7004,-1.1996 3.9004,-2.0996 6.4,-4.7 14.9,-8.2 18.5,-14.5 4.9,-8.6 9.7996,-17.2004 14.5996,-25.9004 5.3,-9.5 12.1,-17.3996 20,-24.5996 2.4,-2.3 3.9008,-4.3004 4.3008,-7.9004 0.2,-2.7 1.8996,-6.4 4.0996,-7.5 4.5,-2.3 4.7004,-6.0007 5.4004,-9.8007 0.5,-2.6 0.9004,-5.1989 1.4004,-7.7989 0.7,-3.8 2.8984,-6.1015 6.3984,-8.1015 6.9,-3.9 13.4016,-8.5 19.6016,-13.5 4.2,-3.4 5.3992,-8.4 4.6992,-14 -0.9,-7.1 -1.4,-14.2985 -1.5,-21.3985 0,-2.3 1.4992,-5.1015 3.1992,-6.6015 6.00001,-5.2 12.4004,-9.9992 18.9004,-14.6992 2.5,-1.9 3.20117,-4 3.70117,-7 1.1,-7.3 1.99883,-15.1004 5.29883,-21.4004 2.8,-5.4 2.79961,-9.2 -0.40039,-13.5 -2.9,-3.8 -2.7,-7.4996 -1,-11.5996 2.5,-6 4.70078,-12.1 7.30078,-18 4.4,-10.1 2.1,-18.3997 -6.5,-25.0997 -2.9,-2.2 -2.9,-4.8007 -1,-7.3007 1.6,-2.1 3.59961,-3.8996 5.59961,-5.5996 3.4,-2.9 7.40117,-5.2993 10.20117,-8.6993 2,-2.5 2.89844,-6.1004 3.39844,-9.4004 0.8,-5 1.5,-10.2011 1,-15.2011 -0.4,-4.5 -1.39922,-9.7985 -4.19922,-12.8985 -6.5,-7.1 -14.29922,-12.9015 -21.19922,-19.6015 -2.5,-2.4 -3.5,-6.1996 -5.5,-9.0996 -1.9,-2.8 -3.80156,-6.1993 -6.60156,-7.6993 -7.80001,-4.29996 -16.29961,-5.60074 -25.09961,-3.30074 -6.4,1.7 -12.7,3.59964 -19,5.59964 -7.7,2.4 -15.8988,4.2008 -18.2988,13.8008 -0.2,0.6 -0.7012,1.0996 -1.2012,1.5996 -6.8,6.8 -15.2004,11.2996 -24.4004,12.5996 -10.4,1.5 -18.0988,6.1 -23.7988,14.5 -3,4.3 -5.3008,9.1015 -7.8008,13.6015 -5.5,-1.4 -11,-2.8004 -16.5,-3.9004 -4.1,-0.9 -7.1,0.5989 -8.5,4.7989 -2.3,7.1 -5.1992,14.0011 -7.1992,21.2011 -2.4,8.5 2.3996,17.2989 10.0996,18.7989 12.4,2.5 23.8008,-0.5996 34.3008,-7.0996 1.8,-1.1 2.8,-3.6 4,-5.5 2.6,-4.4 4.5988,-9.1993 7.7988,-13.1993 4.3,-5.3 11.1,-5.5996 15,-0.1 3.6,5.1 6.3,11.4 7.5,17.5 1.1,5.4 -1.5988,11.5985 4.7012,15.3985 0.2,0.1 0.2984,0.6004 0.3984,0.9004 1.8,6.1 3.7016,12.1011 5.1016,18.2011 1.6,7.2 -2.0012,12.1985 -9.2012,14.3985 -6,1.8 -12.1004,3.5004 -17.9004,5.9004 -3.1,1.3 -6.1988,3.6008 -8.2988,6.3008 -6.1,7.8 -20.9012,12.6992 -28.2012,9.1992 -7.4,-3.5 -15.0988,-6.5992 -22.7988,-9.6992 -1.7,-0.7 -4.3012,-1.3 -5.7012,-0.5 -7.2,4.2 -14.7,4.1992 -22.5,2.6992 -1.2,-0.2 -2.6984,0.1 -3.8984,0.5996 -4.4,2 -8.6,1.2008 -13,-0.1992 -11.3,-3.7 -22.7012,-5.6993 -34.7012,-2.6993 -4.2,1 -9.8004,0.6997 -13.4004,-1.4003 -7.5,-4.5 -15.3992,-5.7008 -23.6992,-6.3008 -10.8,-0.8 -20.9996,-2.4004 -28.5996,-11.9004 -5.8,-7.4 -14.2004,-10.0988 -23.9004,-10.2988 -8.6,-0.2 -17.0004,-2.7008 -24.4004,-7.8008 -5.2,-3.6 -10.3988,-7.7 -16.2988,-9.5 -7.2,-2.2 -12.0008,-6.4992 -15.8008,-12.1992 -4.3,-6.5 -8.5996,-13.0997 -12.0996,-20.0997 -3.4,-6.9 -8.0004,-12.0011 -14.9004,-15.7011 -6.7,-3.6 -11.9004,-8.8 -10.4004,-18 1.5,-9.5 -2.1,-17.4989 -8,-25.2989 -9,-12 -13.3992,-25.50152 -7.1992,-40.60152 2,-4.9 4.4004,-9.99961 4.9004,-15.09961 0.9,-9 5.1,-15.49883 11.5,-21.29883 1.3,-1.2 2.4996,-3.3 2.5996,-5 0.7,-8.8 4.2,-16.40117 9.5,-23.20117 7.6,-9.8 17.5996,-16.60039 28.0996,-22.90039 1.5,-0.9 2.7,-2.3 4,-3.5 2.7,-2.6 4.9992,-6.09961 8.1992,-7.59961 9.8,-4.4 19.6004,-8.79883 29.9004,-11.79883 9.4,-2.7 19.2004,-3.90117 28.9004,-5.20117 12.2,-1.6 24.4004,-2.79922 35.4004,-9.19922 3.8,-2.2 8.3004,-3.29961 12.4004,-5.09961 6.1,-2.6 12.2996,-2.50117 18.5996,-1.20117 2.1,0.5 4.3004,0.70039 6.4004,0.40039 7.4,-1 14.7996,-2.09961 22.0996,-3.59961 10.9,-2.2 21.3996,-1.70039 31.5996,3.09961 4.8,2.2 9.7008,4.69922 14.8008,5.69922 14.3,2.80004 24.9992,10.10082 32.1992,22.80082 4.2,7.5 10.1004,12.09961 19.4004,10.09961 0.6,-0.2 1.3,-0.1 2,0 10.5,1.2 16.6,12.2 12,21.5 -2.2,4.5 -4.3004,9 -6.4004,13.5 -4.1,9 -1.4008,18.60117 7.1992,23.70117 3.5,2.1 7.5,3.39844 11.5,4.39844 11.7,3 24.4012,-9.59961 22.2012,-21.59961 -0.5,-3.2 -0.2004,-6.60039 -0.4004,-9.90039 -0.3,-6.4 0.2992,-13.09922 -1.3008,-19.19922 -1.8,-6.9 -1.3984,-12.29961 3.6016,-17.59961 1.6,-1.7 1.6,-4.90078 2.5,-7.30078 1.6,-4.4 2.0988,-10.5 5.2988,-13 15.9,-12.5 26.5004,-30.99961 45.4004,-40.09961 3.1,-1.5 3.40039,-4.59961 0.90039,-7.09961 -4.89999,-5 -9.80119,-10.00039 -15.20119,-14.40039 -2,-1.6 -5.3992,-2.19922 -8.1992,-2.19922 -4.2,0 -8.7008,1.69961 -12.8008,1.09961 -11.8,-1.6 -23.5992,-3.60078 -35.1992,-6.30078 -4.7,-1.1 -7.9008,-0.70039 -11.8008,2.09961 -8.2,5.9 -16.1984,12.40156 -27.3984,11.60156 -7.9,-0.5 -9.0012,-1.20078 -10.7012,-8.80078 -0.4,-1.8 -1.4992,-4.60078 -2.6992,-4.80078 -7.6,-1.2 -15.4,-2.59844 -23,-2.39844 z" />
		
		
	</g>
</svg>
