

    <svg aria-hidden="true" style="position: absolute; width: 0; height: 0; overflow: hidden;" xmlns="http://www.w3.org/2000/svg">
    <symbol id="logo" viewBox="0 0 200 35">

 <path d="m181 25.9v-.916c.233-.233.448-.447.694-.691.355.0468.78.104 1.27.167 0 .123.0668.34-.0127.462-.262.403-.031.692.182.973.382.505.894.823 1.5.921.139.294.261.55.4.843.265.105.565.223.864.34.0415-.106.057-.148.0738-.187.0169-.0397.0338-.0809.0584-.136.96-.0653 1.87.474 2.71.275.582.254 1.04.471 1.51.647.186.0695.406.0596.611.0653.416.0114.416.0057.899.301.287-.121.586-.257.892-.372.37-.139.671-.363.939-.65.119-.128.294-.201.437-.306.2-.146.397-.298.593-.451.301-.234.6-.47 1.01-.789.0485-.0979.145-.346.288-.565.106-.163.251-.335.42-.42.311-.157.591-.336.835-.67.0709-.42-.0542-.882-.111-1.36-.0697-.58-.0169-1.17-.0169-1.73-.692-.748-1.34-1.48-2.03-2.18-.393-.393-.855-.701-1.39-.905-.345-.131-.655-.377-.949-.613-.414-.331-.797-.701-1.2-1.05-.241-.207-.477-.434-.752-.584-.183-.101-.401-.173-.644-.165-.261.0085-.526-.0681-.75-.102-.218-.377-.406-.701-.643-1.11-.393-.145-.864-.319-1.37-.506-.159-.39-.393-.78-.543-1.22-.0808-.238-.143-.522-.0485-.66.193-.277.0514-.548.126-.806.0507-.119.0979-.243.153-.36.332-.709.797-1.33 1.24-1.97.299-.434.621-.621 1.15-.65.587-.0326 1.15-.279 1.71-.488.267-.0993.526-.216.8-.331.508.257 1.08.0681 1.6.136.413-.197.794-.424 1.21-.556.183-.0582.455.0269.638.133.444.255.813.116 1.22-.139.508-.0496 1.05-.123 1.6-.149.56-.0269 1.12-.0057 1.76-.0057-.0709.311-.131.565-.169.733-.213.152-.358.255-.565.403h-.332c-.419.496-.44 1.04-.389 1.55-.138.267-.26.501-.379.731-1.15.651-1.59.82-2.16.814-.057-.299-.0612-.628-.184-.904-.145-.322-.353-.626-.716-.783-.329-.143-.651-.315-1.02-.272-.265.0312-.529-.0213-.711-.162-.201-.156-.418-.179-.586-.115-.637.247-1.29.0596-2 .152-.533.18-.695.621-.597 1.26.208.15.452.318.687.496.546.417 1.08.833 1.46 1.44.211.335.574.563 1.01.623.193.0255.379.111.614.184.262.326.095.899.559 1.24 1.17-.16 2.08.374 2.84 1.34.0556.19.129.444.218.746.0766.0766.194.194.312.312h.443c.631.994 1.64 1.73 2 2.93.136.403-.135.865.172 1.27-.34.511.064 1.15-.278 1.66.0127.501-.339.853-.529 1.27-.0737.16-.196.298-.322.482.0408.204-.0979.467.162.722-.186.122-.366.241-.548.359-.423.272-.762.651-1.02 1.06-.489.773-1.18 1.21-2.02 1.47-.528.159-1.09.183-1.6.424-.078.0369-.173.0482-.243.0965-.482.333-1.08.365-1.61.576-.326.131-.787.142-1.11.0142-.572-.228-1.04-.0596-1.56.115-.329.111-.668.308-1.07.167-.166-.123-.345-.26-.526-.393-.0155-.0114-.045-.0071-.0683-.0057-.413.0142-.77-.234-1.16-.271-.563-.0525-1.13-.0128-1.7-.0128-.73-.496-1.45-1-2.29-1.3-.423-.193-.523-.691-.952-.931-.37-.21-.641-.611-.987-.957zm-10.8-14.4v-.621c.224-.38.665-.461 1.08-.723.211-.506.728-.787 1.3-1.06h.984c.0936-.149.209-.316.308-.491.416-.732 1.05-1.08 1.72-1.08.759.379 1.39.692 2.02 1.01.345-.228.677-.448 1.07-.711.322.0553.742-.125 1.13.129.0837.0539.238.034.349.00422.648-.174.638-.128 1.31-.0128.532.0922 1.1.0624 1.59-.274.608.227 1.22.457 1.9.711.461-.034.546-.599.748-.735.545-.2.915-.336 1.44-.528h.548c.189.109.281.274.193.532-.243.162-.502.333-.802.532-.05.2-.0951.464-.186.711-.0324.0879-.164.153-.264.2-.539.25-1.04.586-1.68.587-.19 0-.411.176-.562.328-.189.19-.319.438-.467.648-.254 0-.464.0057-.675-.0014-.323-.0114-.613.0298-.902.228-.416.287-.904.261-1.38.133-.233-.0624-.46-.148-.689-.217-.0436-.0128-.102-.0184-.14 0-.626.299-1.29.0525-1.97.163-.284.868-.875 1.59-1.47 2.32 0 .323.0211.655-.007.983-.0239.288-.105.57-.169.891.237.113.447.24.674.318.23.0794.475.111.637.146.427.35.8.657 1.17.965.0366.0298.0626.0894.101.0965.794.149 1.18.83 1.76 1.33h.674c.667-.261 1.2-.658 1.75-1.1.37-.0596.735-.0013 1.04.329v.597c-.26.237-.488.594-.837.621-.288.325-.514.582-.746.845-.871-.0042-1.56.403-2.14.993-.543.56-1.23.79-1.93.986-.194.0539-.421.0213-.657-.109-.455-.251-.912-.482-1.26-.874h-.332c-.295-.355-.606-.726-.929-1.11h-.739c-.0738-.111-.165-.248-.325-.491v-.308c-.159-.0979-.34-.21-.423-.261-.05-.827-.37-1.46-.302-2.14.342-.421.335-.875.214-1.36-.0908-.367-.265-.725-.213-1.12.0296-.218.102-.431.167-.695.277-.245.59-.523.979-.867h.589c.269-.214.475-.461.55-.867h-1.94c-.282.223-.645.135-.966.228-.39.115-.872.153-1.25.0284-.508-.17-.909-.133-1.33.159-.0654.0454-.186.0071-.343.0071zm-8.69 17.8c-.553.173-1.12.349-1.71.535-.807-.556-1.78-.678-2.73-.841-.269-.0468-.603-.139-.837.0979-.833-.365-1.48-1.06-2.51-1.31-.109-.118-.366-.295-.477-.538-.116-.254-.372-.288-.518-.479-.17-.224-.399-.401-.593-.609-.501-.532-.516-.909 0-1.46.129-.138.267-.268.417-.418.343.238.743.135 1.15.16.0528.194.0937.382-.038.577-.203.305-.0253.607.146.804.352.407.694.871 1.31.919.0752.0057.145.0894.294.186.0908.184.226.457.338.685.292.182.555.345.851.529.0879-.129.179-.264.302-.447.896.0013 1.76.46 2.64.264.79.437 1.53.872 2.41.718.226.118.42.22.664.346.418-.201.851-.41 1.29-.614.0387-.0184.113.0057.131-.0198.409-.583 1.13-.776 1.59-1.3.0866-.0993.209-.172.323-.243.277-.174.491-.399.618-.702.156-.37.428-.623.79-.799.2-.0979.379-.241.565-.363 0-.55.008-1.07-.007-1.58-.007-.199.0851-.418-.119-.592-.0479-.0411-.0556-.22-.0113-.264.265-.264.0709-.584.14-.838-.681-.74-1.34-1.46-2.01-2.18-.373-.4-.823-.678-1.32-.922-.496-.244-.98-.528-1.39-.925-.443-.423-.942-.786-1.43-1.16-.228-.173-.488-.302-.738-.453-.489.244-.759.17-1.06-.292-.0965-.149-.193-.298-.282-.45-.0894-.152-.17-.309-.272-.495-.267-.0596-.543-.149-.827-.179-.333-.034-.424-.399-.715-.474-.143-.572-.709-1.05-.329-1.74.0994-.182.0155-.464.0155-.616.522-1.16 1.14-2.17 1.99-2.98 1.16.0269 2.11-.499 3.12-.847.508.289 1.08.0468 1.52.131.511-.216.933-.394 1.35-.572.22.0652.441.104.638.196.294.138.555.16.826-.0454.257-.194.586-.0738.857-.156.896-.27 1.8-.0482 2.68-.14.166.316-.007.553-.106.804-.319.0383-.462.582-.877.294-.369.807-.369.807-.374 1.63-.131.252-.241.468-.374.728-.662.296-1.3.762-2.14.837-.0612-.326-.0626-.658-.19-.929-.159-.336-.374-.628-.756-.826-.455-.235-.905-.267-1.38-.261-.374-.201-.698-.404-1.19-.179-.332.153-.79.0553-1.19.0298-.53-.0326-.936.115-1.14.739v.523c.227.169.481.36.739.546.56.403 1.06.854 1.46 1.43.22.319.556.59 1.02.601.189.0042.376.113.582.18.24.349.104.877.536 1.23 1.18-.133 2.12.376 2.88 1.37.129.594.166.671.512 1.04h.418c.23.277.488.495.623.775.262.536.799.836 1.05 1.41.237.532.448 1.02.396 1.61-.0225.244.0951.471.0155.738-.0766.261-.01.562-.0183.845-.0113.373-.366 1.32-.635 1.72-.113.167-.233.329-.36.508.0528.226-.111.504.148.706-.179.0993-.265.284-.489.367-.48.179-.762.638-1.04 1.03-.75 1.06-1.22 1.32-2.79 1.65-.403.0851-.801.238-1.17.427-.494.254-1.04.328-1.55.532-.254.101-.627.111-.945-.0638-.182-.101-.42-.0979-.698-.156zm-9.38-21.3c-.16.00197-.325.00721-.502.00721-.396.518-.808 1.06-1.22 1.6-.455.186-1 .0312-1.37.471v1.18h-.69c-.321.166-.556.286-.764.394-.326.657-.343.728-.0289 1.29.789.165 1.49-.21 2.24-.252.234-.221.509-.132.748-.132l.201.201c.0113.746-.0851 1.53.329 2.27-.143.0808-.251.173-.375.206-.557.145-1.06.391-1.42.844-.399.506-.841.989-1.09 1.6-.148.365-.277.744-.484 1.07-.155.25-.35.451-.373.773-.0211.305-.112.606-.16.852.504.59 1.16.748 1.75.933.793.248 1.65.228 2.43.325.407-.345.664-.749 1.07-.949.112-.437.46-.684.732-.987.267-.298.516-.611.776-.919l.533.533c.267.708.488 1.3.705 1.88h.479c.597-.159.905-.837 1.6-.416.316-.282.659-.586.99-.88.0141-.139.0274-.25.0429-.396.457-.448.928-.911 1.38-1.35.0993-.437.192-.847.297-1.31-.0507-.0482-.133-.125-.21-.197-.241.0553-.454-.0071-.694.105-.268.123-.614.102-.916-.0895-.37-.234-.766-.431-1.13-.631-.116-.444-.228-.872-.343-1.31-.363-.423-.871-.743-1.1-1.3 0-.213.0225-.428-.007-.637-.0253-.194-.106-.381-.19-.665-.0894-.0596-.265-.16-.423-.284-.177-.139-.331-.291-.417-.525-.133-.363-.373-1.29-.218-1.52.17-.257.078-.489.132-.765-.189-.123-.377-.244-.562-.366-.149-.0993-.313-.183-.44-.305-.243-.235-.542-.314-.853-.342-.152-.0135-.306-.015-.466-.013zm-.456 8.95h.325v.319c.237.135.469.224.647.377.163.142.265.355.389.528-.236.475-.372.999-1.06 1.18h-.545c-.342-.272-.661-.526-1-.797.346-.623.753-1.16 1.25-1.61zm-8.8-5.67c-.722-.0567-1.38.294-2.08.4-.65.0993-1 .464-1.29.977-.138.25-.261.506-.393.759-.038.0738-.0823.145-.128.224.313.157.572-.017.818-.155.662-.369.742-.294 1.39.22.322-.0213.713.0496 1-.0894.328-.157.712.113.983-.207.0296-.0355.157-.034.203 0 .345.258.671.0851 1.02.0085.336-.0723.698-.0298 1.05-.0468.0352-.0013.0669-.0624.109-.104.064.061.129.121.211.199-.0514.174-.105.357-.194.655-.353.302-.79.675-1.21 1.03-.0528.794-.633 1.19-1.11 1.7-.531-.349-.782-.828-.921-1.43-.689-.285-1.42-.584-2.2-.908-.328.203-.684.424-.97.601.0471.45.0865.83.125 1.2 1.06 1.01 2.38 1.68 3.53 2.69.394-.592 1.14-.641 1.68-1.18h.933c.0866.0454.183.0965.323.169.169.23.203.54.163.882-.376.333-.691.746-1.21.959-.288.118-.477.475-.796.816-.167.0851-.46.234-.797.406-.729-.0865-1.16.389-1.52.989-.472.088-.862-.14-1.24-.389-.572-.377-1.14-.745-1.75-1.07-.481-.258-1.01-.305-1.5-.499-.427-.17-.767-.318-.833-.821-.0239-.194-.0626-.411-.17-.563-.162-.226-.114-.403-.038-.637.0654-.204.116-.505.0141-.651-.236-.335-.209-.684-.233-1.05-.0127-.194-.0993-.383-.14-.531.226-.223.424-.418.573-.566 0-.217.0464-.367-.007-.447-.352-.511 0-.908.237-1.28.268-.424.64-.783 1.02-1.23.139-.689.522-1.32 1.25-1.75.482.0255.986 0 1.18-.621v-.594c.116-.0879.247-.187.454-.345.0267 0 .169-.0184.304.00281.475.0794.902-.0738 1.3-.295.386-.217.716-.403 1.19-.153.218.116.55.0199.821.0199.13-.278.251-.535.4-.851h.718c.499.00141.977-.0142 1.45-.264.321-.167.74-.143 1.07-.199.105.105.156.156.214.214-.14.421-.282.848-.455 1.36-.243.172-.417.511-.57.864-.14.323-.316.603-.733.6-.0499 0-.101.0936-.197.19.17.766-.559 1.34-.587 2.14-.15.323-.531.329-.841.495-.697-.465-.983-1.31-1.62-1.85zm-16.9-3.97c-.0903-.000985-.185.0201-.285.074-.387.21-.774.421-1.16.631-.166 0-.332-.0128-.496.00274-.193.0199-.344-.0877-.512-.129-.216-.0525-.489-.0583-.685.031-.601.275-1.25.472-1.73.983-.139.149-.38.203-.554.291-.318-.299-.318-.299-.162-.948-.152-.211-.321-.445-.467-.65h-.752c-.523.244-.921.428-1.32.616-.254.471-.382.572-.843.655-.482.0879-.742.216-1.15.477-.444.284-.936.504-1.36.817-.304.227-.608.281-.958.268-.26-.0099-.549.0697-.773-.0197-.281-.112-.485.0523-.723.0551-.126.423-.453.613-.847.663-.287.0355-.521.126-.722.343-.0908.359.0338.657.299.909.949.207.976.251 1.57-.125.383-.241.752-.285 1.22-.255.243.207.52.444.818.698h.365c.289.163.557.315.747.423.0794.399.184.706.191 1.02.0169.766.196 1.46.714 2.05.0352.0397.007.138.007.216-.24.316-.484.638-.718.948.172.525.335 1.02.498 1.52.142.213.057.451.187.709.155.304.109.705.18 1.06.0514.25-.16.423-.146.651.05.837-.24 1.65-.147 2.49.0584.528-.132 1.02-.311 1.52-.819.223-1.42.766-1.97 1.39-.0908.104-.111.269-.121.296l.728.728c.704-.201 1.47-.377 2.03-.976.495 0 .993-.0211 1.49.0058.501.027.997.103 1.49.157.491.322 1.06.43 1.62.537.403.0752.793-.226 1.22-.13.275-.289.623-.102.935-.133.328-.0326.685-.0823.986.0127.339.108.665.211.977.0454.343-.183.739.102 1.07-.18.0823-.0709.274-.0015.409-.0299.214-.0454.423-.119.622-.177.0837-.184.165-.36.211-.462.262-.138.457-.24.685-.36.411.0766.891-.121 1.31.163.614-.394 1.17-.842 1.78-1.22.486-.295.875-.75 1.31-1.13.007-.37.349-.376.567-.487.193-.0965.43-.0993.645-.153.441-.109.85-.262 1.03-.745.0542-.142.138-.33.254-.376.35-.138.526-.502.907-.593.0352-.804-.482-1.26-.993-1.76.128-.742-.329-1.18-.929-1.47-.207-.0993-.309-.269-.489-.369.0528-.372-.0436-.746-.355-.901-.313-.156-.553-.389-.708-.638-.118-.193-.308-.225-.42-.38h-.701c-.377-.376-.831-.58-1.34-.606.26-.328.504-.631.743-.938.379-.484.637-1.01.665-1.64.0127-.265.0809-.531.14-.792.0225-.104.0952-.196.136-.296.106-.264.206-.531.325-.837-.6-.76-1.04-1.65-1.81-2.26-.416-.0624-.817.00997-1.24-.132-.359-.122-.791-.0258-1.21-.0258-.397-.27-.78-.586-1.21-.804-.239-.121-.474-.325-.745-.328zm-1.45 2.65.745.745c.562-.0227 1.02.269 1.53.511-.0598.104-.114.197-.173.302.125.438.35.831.64 1.21.204.268.267.643.373.919-.113.302-.298.356-.518.329-.42.356-.718.847-1.29 1.02-.143.0426-.247.26-.34.414-.136.224-.245.465-.403.772-.172.0553-.406.204-.627.189-.515-.0411-.914.182-1.37.451-.55-.0894-1.05.0937-1.56.199-.294.0596-.567.223-.823.329-.0415.332-.0724.601-.106.871-.0338.268-.0696.536-.101.779.592.416 1.13.174 1.76-.732.211-.0411.426-.0808.742-.142.982.444 2.09.579 3.28.16.767.292.767.292 1.38.908.373.0567.739.104 1.07.342.226.163.506.258.772.356.272.101.418.278.556.539.217.416.525.783.821 1.21v1.36c-.172.16-.318.376-.521.467-.233.105-.248.345-.42.485-.165.135-.254.362-.39.569-.34-.0667-.647-.153-.959-.181-.328-.0298-.661-.0072-1.09-.0072-.423.329-.905.704-1.47 1.14-.409.0511-.766-.275-1.26-.575-.689.0397-1.5-.0297-2.23-.312-.706-.274-1.48-.457-2.1-.963h-.57c-.0183-.0567-.0429-.118-.0556-.18-.0352-.191.0415-.347.135-.512.118-.207.268-.437.271-.66.007-.302-.108-.609-.186-.908-.0612-.233-.149-.458-.22-.688-.0127-.0426-.0155-.0993 0-.14.295-.722.0753-1.48.136-2.21.0211-.258.0211-.522 0-.779-.0197-.22-.0895-.434-.136-.651-.0141-.0653-.0169-.136-.0457-.194-.106-.218-.284-.409-.24-.682.0197-.116.389-1.04.461-1.16.0837-.131.157-.267.206-.347.194-.706-.119-1.29-.262-1.91-.0556-.233-.145-.458-.23-.718.179-.394.834-.575.661-1.22.182-.156.357-.308.613-.526.008-.0028.135-.0452.263-.0778.108-.0284.254-.0994.319-.0554.143.0936.275.136.445.135.638-.0099 1.28.0114 1.91-.0127.213-.0085.423-.119.607-.174zm-30.5 12.4c-.0626-.2-.108-.346-.136-.44.148-.677.288-1.32.423-1.95-.227-.306-.413-.56-.603-.818.0113-.0114.0436-.044.0654-.0653-.173-.634-.333-1.26-.521-1.88-.0626-.207-.149-.434-.296-.58-.265-.264-.403-.594-.538-.916-.169-.4-.43-.732-.765-.949-.654-.426-1.12-1.01-1.58-1.61-.0922-.121-.211-.274-.204-.404.0296-.536-.326-.83-.681-1.18-.678.193-1.43.206-2.01.767-.221.211-.582.304-.895.382-.145.0355-.329-.0922-.529-.157-.0514-.475.0851-.916.275-1.35.106-.241.45-.335.424-.662.411-.316.542-.877 1.07-1.12.359-.165.63-.523.928-.784.731-.0426 1.33-.252 1.7-.931.174-.321.531-.401.892-.373.221.411.559.715.925.992.0894.0667.25.112.265.19.129.628.715.922 1.04 1.41.268.407.743.678 1.13 1.01 0 .22.007.431 0 .644-.0155.451.173.783.566 1 .173.0965.373.169.508.305.201.203.357.453.528.675-.119.335-.221.624-.343.966.384.288.78.583 1.22.912.465-.624 1.21-.833 1.77-1.3.0994-.0837.251-.153.285-.258.149-.468.532-.738.861-1.09v-.539c-.0099-.458.206-.749.613-.959.264-.138.606-.235.679-.655-.743-.187-1.45.329-2.15.0454-.211.234-.383.426-.556.617-.478.0156-.889-.061-1.19-.411-.321-.373-.343-.807 0-1.15.505-.502.882-1.09 1.25-1.68.078-.128.233-.217.369-.298.241-.143.506-.218.631-.542.0626-.162.353-.235.565-.363 1.06.593 2.17.938 3.47.705.0851-.0993.23-.268.434-.508.315-.0511.738-.119 1.16-.187.297.224.566.43.845.641-.418.431-.471.938-.434 1.48-.272.204-.519.474-.824.594-.384.152-.645.42-.919.691-.523.521-.522.522-.552 1.26-.184.184-.352.389-.556.545-.172.131-.387.203-.608.315-.204.424-.369.916-.984 1.02.0697.329.123.587.179.845-.277.387-.277.387-.858.674-.336.58-.345.643-.142 1.11-.174.278-.339.528-.655.715-.41.241-.562.729-.655 1.26-.335.122-.681.255-1.03.376-.339.116-.397.216-.292.545.0267.0837.0851.162.0894.245.0155.318.0113.623.125.94.0823.23-.007.515-.0993.792-.261.769-.661 1.44-1.15 2.12.0084.268-.0084.569.116.889.14.362-.0682.759-.191 1.11-.152.431-.407.824-.616 1.23.374.689.76 1.38.267 2.17.0478.165.129.312.128.458 0 .367.0338.721.135 1.08.0556.199.152.421.0267.665-.0626.123-.0464.349.0281.47.234.376.0697.698-.0936 1.01-.272.526-.569 1.04-.887 1.61-.228-.0553-.482-.116-.719-.173-.0752-.295-.113-.542-.064-.828.0422-.245.143-.556-.105-.799-.0486-.0468-.0542-.223-.0084-.265.228-.217.203-.535.113-.718-.163-.332-.149-.772-.54-.976-.0654-.725.539-1.3.421-1.96-.149-.289-.269-.523-.399-.773.193-.417.387-.84.0697-1.34-.123-.193-.0922-.485-.129-.722.153-.228.289-.433.465-.696.0709-.204-.149-.531.123-.793.0471-.0454-.0113-.217-.0422-.323-.0697-.23-.165-.453-.227-.685-.0556-.199-.146-.331-.375-.339zm-13-14.4c.287-.58.423-1.16.644-1.71.201-.492 0-.807-.183-1.18-.0486-.0979-.109-.189-.19-.326-.543-.0638-1.13-.135-1.75-.209-.0752-.0383-.193-.0993-.308-.159-.0141-.267.438-.912.738-1.03.349-.132.757-.119 1.02-.45.0296-.0369.136-.00281.201-.0199.806-.217 1.45-.596 1.59-1.52.0324-.201.213-.38.328-.572 1.13.313.922.255 1.33.853.105.311-.123.645.169.889-.057.333.064.667-.121 1.02-.157.296-.163.678-.296 1.01-.05.122-.045.294 0 .42.187.533.24 1.06-.007 1.59.0612.784-.399 1.5-.299 2.3.0324.265-.104.562-.203.83-.0865.233-.119.435.0598.634-.0436.0638-.0922.133-.115.167.122.323.245.604.332.896.057.193.142.441.0697.597-.25.536-.147 1.15-.407 1.68-.0281.0567-.0113.14 0 .211.0253.21.0837.42.078.627-.007.221-.0723.44-.0951.562.22.428.391.76.583 1.13.0436.427-.112.923.143 1.36.396.267.83.413 1.26.582.532.209.967.597 1.37 1.09.265-.0454.549-.095.929-.16.129.0667.343.179.61.318-.123.315-.234.596-.336.855-.575.461-1.26.567-1.96.696-.403.389-.77.877-1.37 1.06-.722.179-1.33-.284-2-.427-.217-.0454-.417-.345-.648-.722-.315-.227-.84-.0482-1.37-.105-.0084-.0738-.0352-.163-.0253-.247.045-.423-.0584-.804-.284-1.16-.0837-.132-.287-1.02-.287-1.16v-1.15c.387-.421.559-.932.573-1.52.0267-1.09.0766-2.18.143-3.27.0211-.352.167-.687.358-.983.241-.377.333-.811.469-1.22.0612-.184 0-.431-.064-.665-.142-.518-.411-.965-.678-1.41zm-12.8 7.31c.394.135.83.284 1.37.47.275.23.553.64.997.875.139.0738.253.155.419.197.204.0511.397.203.559.35.315.285.606.597.904.895.811.131 1.45-.217 2.03-.722.116-.101.279-.15.386-.257.197-.199.41-.177.628-.0823.142.061.269.153.418.24v.696c-.258.189-.565.411-.891.65-.204.227-.433.481-.684.759-.85-.0809-1.52.37-2.06.935-.565.594-1.3.753-1.98 1.05-.253.111-.506-.0496-.698-.18-.495-.338-.986-.675-1.51-.97-.34-.191-.567-.586-.914-.962-.2-.0468-.502-.118-.878-.206-.299-.121-.264-.522-.426-.81-.165-.292-.296-.583-.302-.945-.007-.296-.149-.59-.244-.926.119-.268.312-.576.386-.911.0654-.301-.221-.597-.126-.931-.217-.207-.116-.477-.148-.721-.007-.0582-.0808-.108-.118-.152.142-.342.284-.682.424-1.02.157-.0738.316-.148.502-.235.0584-.101.135-.235.22-.383h.81c.118-.24.234-.475.359-.729-.542-.373-1.08-.311-1.61-.206-.521.102-1.03.287-1.55.352-.516.0652-1.06.078-1.47-.296-.448.0965-.739.506-1.22.443v-.511c.238-.233.471-.515.847-.623.121-.034.218-.163.316-.258.393-.38.739-.82 1.43-1.01h.902c.367-.887 1-1.5 2.02-1.58.596.468 1.28.723 2 1.02.316-.204.671-.433 1.11-.712.257.0411.623-.109.97.123.0979.0653.295.0525.416.00281.441-.183.848-.118 1.31-.0199.519.109 1.1.104 1.63-.233.533.207 1.11.403 1.65.65.267.121.423-.0766.573-.125.211-.248.401-.472.583-.685.635.00851 1.1-.579 1.82-.389.0464.125.106.287.169.455-.302.2-.56.372-.858.569-.0654.216-.147.489-.235.783-.526.352-1.12.582-1.75.706-.332.0652-.643.112-.782.512-.0626.18-.287.306-.462.484-.631-.0213-1.3-.0624-1.83.416-.496.0624-.943-.088-1.4-.234-.17-.0553-.386-.0865-.547-.0312-.631.218-1.28.088-1.92.14-.112.396-.265.78-.514 1.07-.251.295-.332.716-.716.921-.123.0652-.2.292-.221.455-.0352.279.0084.567-.0155.85-.0225.267-.0922.528-.133.793-.007.0298.0253.0738.0598.186zm-6.59 9.57c.0436.221-.0936.475.174.696-.193.126-.373.247-.555.363-.423.272-.742.66-1.02 1.06-.643.895-1.1 1.22-2.23 1.48-.701.165-1.39.39-2.05.684-.542.237-1.11.485-1.73.431-.37-.0312-.732-.152-1.12-.237-.519.165-1.08.342-1.68.531-.837-.525-1.82-.701-2.8-.841-.255-.0369-.56-.109-.806.104-.827-.362-1.48-1.08-2.45-1.29-.163-.163-.404-.318-.516-.539-.132-.261-.401-.326-.563-.531-.16-.203-.36-.373-.546-.555-.582-.567-.478-1.04.0113-1.51.119-.115.234-.234.325-.325.423.0454.821.0865 1.27.135-.0267.173 0 .379-.0894.512-.189.295-.0598.572.088.755.338.418.664.888 1.28.966.122.0156.234.113.373.184.106.227.227.484.343.729.288.169.573.335.871.509.095-.146.19-.289.309-.47.441.0738.902.0922 1.32.234.467.159.926 0 1.21.0653.613.268 1.07.477 1.54.667.122.0496.267.0596.4.0567.414-.0128.824-.0156 1.12.322.793-.257 1.52-.515 2.06-1.14.0965-.113.258-.17.387-.255.149-.0979.301-.193.441-.302.214-.167.374-.382.635-.518.25-.131.458-.38.56-.675.128-.367.407-.577.74-.749.217-.111.409-.272.584-.394 0-.576.007-1.1-.007-1.62-.007-.176.078-.37-.101-.528-.0514-.0454-.0709-.207-.031-.258.21-.271.108-.577.14-.896-.22-.22-.461-.444-.682-.685-.407-.443-.809-.891-1.2-1.34-.455-.523-1.03-.868-1.65-1.16-.427-.207-.79-.498-1.17-.777-.638-.471-1.13-1.12-1.87-1.46-.0993-.0454-.201-.0837-.267-.111-.211.0284-.424.118-.59.0638-.194-.0638-.389-.221-.512-.39-.22-.302-.387-.643-.569-.952-.424-.121-.826-.235-1.24-.353-.0282-.0808-.0394-.177-.0894-.243-.465-.601-.704-1.24-.391-2 .0394-.0979-.0514-.25-.0894-.41.251-.45.516-.955.813-1.44.244-.4.508-.79.797-1.16.135-.17.353-.275.53-.407 1.09.0227 2.01-.484 3.01-.827.325.335.862-.157 1.15.268.616-.251 1.18-.481 1.77-.719.335.138.699.288 1.08.444.228-.153.448-.301.651-.437.542-.0539 1.06-.126 1.59-.153.518-.0255 1.04-.0057 1.55-.0057.22.285-.0253.518-.0951.809-.265.116-.563.247-.938.41-.064.123-.173.336-.316.616 0 .135.007.345 0 .556-.0155.577-.247 1.04-.78 1.29-.494.233-1.01.423-1.58.66-.139-.482-.258-.898-.386-1.34-.18-.18-.38-.38-.501-.501-.672-.37-1.38-.101-1.97-.499-.162-.109-.488-.0837-.692-.00422-.592.23-1.2.0667-1.85.15-.509.17-.685.59-.586 1.25.187.139.438.329.691.516.553.41 1.07.843 1.46 1.44.165.254.485.406.688.567.333.0738.617.136.908.201.298.339.0922.896.57 1.25 1.14-.119 2.1.357 2.86 1.37.101.339.142.783.55 1.05h.424c.631.994 1.64 1.73 2.01 2.93.102.39-.0865.82.132 1.22-.208.479 0 .999-.126 1.47-.149.548-.333 1.09-.689 1.56-.0922.126-.163.267-.279.454zm-18.4-16.8c-.404.529-.816 1.07-1.09 1.43-.607.321-1.14.215-1.5.647v1.18h-.689c-.319.165-.555.285-.755.389-.315.47-.346.898-.038 1.29.801.169 1.51-.21 2.25-.25.231-.244.512-.0978.729-.143l.214.214c0 .755-.0682 1.54.332 2.28-.149.0794-.259.166-.384.199-.559.145-1.06.397-1.42.848-.4.506-.834.994-1.08 1.61-.148.363-.279.742-.488 1.07-.157.25-.335.457-.372.774-.0352.306-.218.596-.0992.907.328.428.833.518 1.28.713.453.2.922.314 1.42.334.495.0184.987.101 1.41.147.384-.356.703-.653 1.06-.98.386-.735 1.1-1.18 1.51-1.88.248.248.495.421.636.658.118.199.0752.489.179.702.0626.126.0907.247.135.372.0851.244.23.467.348.692h.408c.633-.15.936-.851 1.63-.404.319-.289.661-.597.987-.894.0169-.139.0296-.251.0486-.407l1.38-1.38c.0908-.399.183-.809.281-1.24-.0436-.0468-.108-.115-.201-.214-.209.0709-.434-.0297-.701.104-.258.129-.616.0992-.916-.0923-.37-.235-.763-.434-1.12-.637-.057-.23-.113-.445-.163-.661-.0866-.376-.19-.728-.508-1-.292-.251-.536-.56-.769-.808 0-.267.0225-.457-.007-.641-.0626-.44-.0849-.898-.62-1.09-.15-.0553-.289-.244-.36-.403-.234-.522-.342-1.07-.284-1.65.241-.207.0967-.477.132-.697-.321-.44-.915-.478-1.2-.922-.0141-.0227-.0967.00986-.135-.0086-.46-.224-.95-.113-1.47-.146zm.026 8.94h.33c.0197.119.0408.247.0626.38.44.145.804.379.973.902-.227.39-.332.932-1.1 1.13h-.496c-.328-.26-.65-.513-.976-.773.0936-.357.393-.569.545-.854.174-.326.474-.501.661-.783zm-6.99-.257c-.553 1.34-.803 2.19-.726 3.03-.172.078-.349.159-.54.245-.22.287-.169.637-.17.976-.007.569-.177 1.02-.575 1.48.0556.42-.0851.865.104 1.29-.0366.0808-.0808.18-.148.329-.362.0596-.76.125-1.21.199-.22.206-.346.508-.291.904-.391-.0156-.684.651-1.13.116-.0612-1.04-.0528-1.36.536-1.97.279-.119.44-.189.589-.252 0-.594.0211-1.14-.007-1.68-.0239-.448.113-.804.448-1.1.0894-.0766.167-.166.267-.265 0-.218.0183-.455-.007-.687-.0429-.445.0478-.85.284-1.23.143-.233.254-.461.0486-.753-.113-.163-.0951-.418-.15-.714.0211-.0823.0951-.252.101-.424.0169-.519.0113-1.04 0-1.56 0-.131-.0486-.261-.0837-.39-.0723-.27-.112-.511.0737-.779.129-.186.135-.457.189-.662-.129-.129-.213-.213-.312-.312-.0486-.479-.102-.977-.14-1.48-.007-.0752.0723-.157.139-.292-.411-.153-.84-.313-1.26-.471-.468.302-.716.745-1.01 1.14-.0668.0894-.101.221-.187.272-.301.182-.617.336-.874.472-.0766.235-.165.42-.193.613-.0338.23-.111.528-.007.689.321.495.007.923-.0837 1.36-.0922.44-.122.844.0584 1.38-.184.24-.43.56-.698.912.14.291.302.626.44.911-.274.479-.529.894-.749 1.32-.118.231-.194.489-.255.743-.0486.203.007.406.136.579.287.384.121.719-.125 1.04-.101.129-.231.235-.357.363h-.906c-.106-.174-.21-.345-.34-.559.0766-.088.184-.177.247-.292.156-.292.291-.54.0866-.932-.284-.54-.277-1.07 0-1.63.159-.322-.0225-.696.257-.96.0612-.0567.0851-.153.136-.248-.235-.43-.189-.936-.106-1.4.165-.929.177-1.28-.169-2.03.133-.377.288-.738.294-1.16.0099-.784.0837-1.57.132-2.35.374-.637-.0965-1.21-.142-1.81-.316-.284-.0478-.531.0584-.78.0514-.121.149-.223.226-.332.17-.244.221-.477.0183-.743-.116-.153-.152-.367-.261-.526-.244-.353-.277-.786-.155-1.12.145-.399.057-.776.132-1.2-.116-.0837-.25-.179-.382-.275-.776-.431-1.61-.109-2.42-.0638-.157-.36 0-.631.169-.857.306-.403.664-.767.994-1.15.362-.42.719-.844 1.07-1.25h.488c.0752-.0979.162-.209.226-.292h1.89c.17.167.338.332.504.495-.038.329.277.611.135.938-.121.279.0225.539.007.807-.007.0936.0373.213-.007.279-.329.509-.0408.95.16 1.38.207.444.287.898.269 1.41-.123.182-.261.386-.417.614-.0922.565.078 1.14.291 1.68.207.528.0113 1.13.374 1.64.152-.0766.326-.133.46-.24.376-.305.735-.63 1.1-.949.088-.078.153-.203.254-.244.634-.264 1.01-.905 1.68-1.16.455.248.94.172 1.57.116.0084.00422.159.0879.349.193-.064.784.665 1.21.891 1.93-.322.39-.157.848 0 1.25.147.373.121.66 0 1.03-.17.528-.417 1.06-.306 1.65.0113.0624-.0113.135-.031.199-.304 1.05-.278 1.05-.167 2.2.031.322-.112.678-.237.994-.0794.207-.252.387-.538.427zm-35.9.255c.365-.377.455-.871.596-1.36.489-.174.787-.618.942-1.07.262-.757.783-1.28 1.34-1.78.322-.284.753-.441 1.21-.699 0-.0213.0155-.129.0324-.272.596-.702 1.41-1.1 2.3-1.35.166-.0482.315-.159.529-.27.292.0426.587-.102.843-.36v-.416c.496-.447.956-.126 1.42.0567.377-.274.811-.0794 1.22-.153.274-.365.709-.496 1.11-.535.637-.061 1.21-.231 1.78-.506.394-.19.855-.288 1.27-.332.545-.0582.956-.338 1.42-.529.0598-.0241.116-.0582.221-.112.33.183.674.373 1.04.573.0514-.0766.123-.187.25-.382.394-.224.889-.25 1.45.0553.007.0369.0169.145.038.315.0866.0652.217.163.437.329.0099 0 .165.0397.284-.00851.243-.0965.489-.211.695-.37.383-.295.756-.508 1.22-.189.241-.0667.434.119.651.133.424.0284.85.00851 1.28.00851h.257c.312.312.611.611.938.938-.163.254-.43.42-.716.488-.451.631-.969 1.14-1.62 1.58-.0682.275-.142.576-.255 1.03-.0373.0326-.189.169-.288.257.007.516.435.931.102 1.46-.0668.105.057.331.101.538-.2.352-.296.853-.906.955-.14-.0454-.328-.108-.66-.217-.145-.189-.372-.488-.599-.786.244-.509.461-.963.661-1.38-.217-.206-.386-.365-.617-.583h-.641c-.407-.471-.828-.957-1.16-1.35-.593-.206-1.08-.348-1.54-.545-.358-.153-.709-.291-1.1-.245-.196.0227-.384.104-.58.133-.199.0312-.389.0539-.587.116-.251.0794-.6.135-.85-.109-.637.115-1.18.471-1.79.655-.383.118-.797.131-1.2.191-.593.0894-1.19.167-1.74.423-.356.165-.726.299-1.09.448-.104.261-.254.437-.536.562-.562.25-.936.755-1.34 1.2-.199.216-.216.545-.145.794-.271.319-.508.597-.729.858.0197.36-.00704.662-.184.955-.313.514-.323 1.05-.0155 1.58.0766.132.111.299.21.407.426.464.485 1.01.4 1.63.285.218.458.557.833.698.133.0496.238.218.319.356.201.339.362.705.579 1.03.136.207.319.407.525.54.367.238.775.413 1.15.634.394.231.83.329 1.27.355.369.0213.657.138.905.394.148.153.301.301.508.509.369.0312.799.0482 1.22.112.187.0284.358.157.54.231.328.135.623.272 1.02.0936.258-.115.623.0114.94.0241.424.017.816.399 1.28.0837.0951-.0638.328.0794.543.139.163-.0851.356-.187.529-.278.731.118 1.33.671 2.08.545.284-.189.627-.274.679-.641.521-.177 1.04-.355 1.55-.526 0-.922-.0682-1.19-.427-1.6.0239-.522 0-1.07-.487-1.47h-.465c-.0908.126-.25.274-.316.454-.275.738-.936.814-1.56.949-.0809.017-.18-.0142-.262-.0454-.204-.0766-.403-.165-.548-.226-.166-.684.128-1.22.282-1.81.0837-.0426.2-.104.253-.131.196.034.348.0511.494.0894.126.0326.245.0922.372.14.17-.25.352-.494.508-.755.193-.322.477-.433.83-.545.566-.18 1.22-.254 1.53-.933.126-.279.447-.433.787-.47.173-.0184.345-.0766.508-.139.46-.177.915-.23 1.37 0 .038.0184.095-.0071.14.0057.0408.0114.0766.044.153.0908.302.833 1.09 1.3 1.66 1.98-.0612.461-.123.935-.194 1.47-.234.182-.522.406-.864.671.153.277.302.542.489.881.104.394-.115.818-.306 1.2-.131.261-.0994.488-.106.732 0 .0979.108.194.125.298.0225.136.007.279.007.409-.333.318-.299.714-.272 1.15-.42.359-.857.732-1.29 1.11.0394.438-.0951.888.152 1.28-.166.766-.837.943-1.44 1.29-.0514.238-.112.521-.194.899-.078.0652-.24.2-.36.302v.36c-.0324.0312-.0626.0695-.101.0979-.696.521-1.04 1.32-1.55 1.98-.0253.0326-.0457.0794-.0471.121-.0211.57-.495.732-.872.994-.382.265-.723.115-1.07-.0326-.0626-.125-.122-.243-.187-.374.0823-.597.671-.698 1.05-1 .214-.509.389-1.03.631-1.52.241-.488.553-.982.421-1.57.319-.0426.369-.281.438-.472.149-.414.343-.789.645-.999.149-.559.281-1.05.413-1.54.0281-.106.102-.227.0752-.318-.123-.418-.274-.83-.41-1.23-.868.296-1.61.784-2.52.848-.377.027-.792.166-1.13.329-.353.17-.682.216-1.05.22-.0866.0013-.182.0198-.258.0567-.287.138-.57.106-.862.0198-.149-.044-.33-.115-.46-.0695-.607.214-1.2.203-1.8-.0028-.149-.0496-.37-.0723-.487.0043-.475.308-.939.118-1.37-.0298-.271-.0922-.519-.136-.787-.111-.19.129-.376.255-.607.413-.199 0-.461.0241-.715-.0071-.216-.027-.424-.121-.745-.218-.19-.148-.478-.373-.804-.626-.445.0667-.962-.128-1.45.133-.0668.0355-.207-.0496-.306-.0936-.366-.16-.738-.299-1.03-.594-.189-.187-.509-.104-.726-.301-.304-.278-.641-.519-.942-.759-1.79-.76-3.03-2.01-3.62-3.93.199-.333.184-.809.0808-1.21-.146-.557-.078-1.1-.118-1.65-.00704-.104.0556-.252-.14-.255v-.992z"/>

    </symbol>
</svg>
