<svg width="48" height="48" version="1.1" viewBox="0 0 48 48" xml:space="preserve" xmlns="http://www.w3.org/2000/svg">

<path class="st1" d="m36.6 0.0089c-0.0736 0.417-0.118 0.839-0.221 1.25-0.412 1.68-1.2 3.16-2.36 4.45-0.113 0.128-0.216 0.265-0.319 0.402-0.0294 0.0392-0.054 0.0785-0.113 0.172 0.706-0.167 1.27-0.485 1.81-0.897-0.0981 1.47-0.574 2.82-1.32 4.07-0.755 1.27-1.69 2.36-3.02 3.06 0.485 0.0834 0.932-0.0687 1.37-0.226 0.432-0.152 0.848-0.348 1.3-0.535-0.181 0.485-0.348 0.956-0.53 1.43-0.652 1.7-1.44 3.32-2.6 4.74-0.755 0.917-1.64 1.67-2.71 2.22-0.103 0.054-0.196 0.113-0.294 0.177-0.0196 0.0098-0.0294 0.0392-0.0736 0.108 0.986 0.0098 1.84-0.353 2.76-0.711-0.157 0.378-0.284 0.691-0.417 1-0.667 1.56-1.41 3.08-2.44 4.45-1.15 1.52-2.45 2.86-4.19 3.72-0.0491 0.0245-0.0883 0.0588-0.162 0.108 1.15-0.0294 2.16-0.363 3.09-0.986-0.623 1.39-1.51 2.57-2.65 3.57-1.15 0.996-2.53 1.59-3.88 2.23 0.0098 0.0294 0.0147 0.0588 0.0245 0.0834 0.829-0.118 1.66-0.235 2.53-0.363-0.0834 0.103-0.137 0.181-0.201 0.25-0.657 0.77-1.42 1.39-2.36 1.78-0.863 0.358-1.73 0.731-2.59 1.09-0.118 0.0491-0.245 0.0736-0.422 0.128 0.0442-0.162 0.0686-0.284 0.113-0.397 0.907-2.29 1.79-4.59 2.74-6.86 2.26-5.41 4.91-10.6 7.63-15.8 1.39-2.64 2.83-5.27 4.26-7.91 0.0392-0.0785 0.0785-0.157 0.0785-0.255-0.0883 0.118-0.186 0.235-0.27 0.353-1.21 1.69-2.22 3.5-3.24 5.3-3.3 5.84-6.39 11.8-9.05 17.9-2.49 5.77-4.72 11.6-6.74 17.6-0.128 0.378-0.284 0.745-0.446 1.11-0.0344 0.0785-0.147 0.127-0.221 0.191-0.0392-0.0932-0.128-0.191-0.113-0.275 0.0932-0.642 0.162-1.29 0.324-1.92 0.731-2.89 1.73-5.69 2.75-8.48 0.23-0.633 0.245-1.22 0.0883-1.85-0.27-1.08-0.515-2.17-0.726-3.27-0.0932-0.481-0.0638-0.991-0.0834-1.49-0.0051-0.0932 0.0344-0.186 0.0686-0.343 0.27 0.701 0.579 1.31 1.04 1.85-0.309-1.24-0.476-2.49-0.485-3.76-0.0098-1.29 0.275-2.5 0.883-3.72 0.0736 0.961 0.294 1.8 0.819 2.63 0.0051-0.142 0.0147-0.221 0.0147-0.304-0.0098-0.848-0.0294-1.7-0.0294-2.55 0-2.66 0.794-5.09 2.18-7.34 0.0539-0.0834 0.123-0.157 0.186-0.235 0.0196 0.0049 0.0442 0.0098 0.0638 0.0147 0.0147 0.142 0.0392 0.28 0.0442 0.422 0.0245 0.628 0.0196 1.26 0.0736 1.88 0.0294 0.333 0.152 0.662 0.275 0.996 0.108-4.22 1.86-7.75 4.51-11 0.0588 1.02 0.0294 2 0.299 2.93 0.0245 0 0.0442 0.0049 0.0686 0.0049 0.0245-0.147 0.0638-0.289 0.0785-0.436 0.172-1.67 0.682-3.22 1.57-4.64 0.544-0.873 1.28-1.59 2.03-2.29 0.476-0.441 1.01-0.829 1.51-1.24 0.0588-0.049 0.132-0.0834 0.206-0.132-0.0588 0.745-0.118 1.48-0.172 2.2 0.0196 0.00491 0.0392 0.00981 0.0539 0.0147 0.0491-0.132 0.0981-0.27 0.142-0.402 0.481-1.5 1.28-2.78 2.54-3.75 0.897-0.691 1.9-1.16 2.98-1.48 0.0392-0.00981 0.0686-0.0343 0.108-0.049h0.0491c-0.0245 0.0834-0.0344 0.172-0.0785 0.24-0.0981 0.157-0.216 0.304-0.319 0.461-0.211 0.319-0.417 0.642-0.623 0.966 0.0147 0.0147 0.0344 0.0294 0.049 0.0441 0.804-0.662 1.62-1.3 2.58-1.72 0.0687 0.00491 0.132 0.00491 0.196 0.00491z"/>
</svg>
