<?xml version="1.0" encoding="UTF-8" standalone="no"?>
<svg
   version="1.1"
   viewBox="0 0 48 48"
   id="svg839"
   sodipodi:docname="reset.svg"
   inkscape:version="1.1.1 (3bf5ae0d25, 2021-09-20)"
   xmlns:inkscape="http://www.inkscape.org/namespaces/inkscape"
   xmlns:sodipodi="http://sodipodi.sourceforge.net/DTD/sodipodi-0.dtd"
   xmlns="http://www.w3.org/2000/svg"
   xmlns:svg="http://www.w3.org/2000/svg">
  <defs
     id="defs843" />
  <sodipodi:namedview
     id="namedview841"
     pagecolor="#ffffff"
     bordercolor="#666666"
     borderopacity="1.0"
     inkscape:pageshadow="2"
     inkscape:pageopacity="0.0"
     inkscape:pagecheckerboard="0"
     showgrid="false"
     inkscape:zoom="11.181126"
     inkscape:cx="18.915805"
     inkscape:cy="39.128438"
     inkscape:window-width="1920"
     inkscape:window-height="1009"
     inkscape:window-x="-8"
     inkscape:window-y="-8"
     inkscape:window-maximized="1"
     inkscape:current-layer="svg839"
     inkscape:snap-bbox="true"
     inkscape:bbox-paths="true"
     inkscape:bbox-nodes="true"
     inkscape:snap-bbox-edge-midpoints="true"
     inkscape:snap-page="true"
     inkscape:snap-bbox-midpoints="true"
     inkscape:snap-smooth-nodes="true"
     inkscape:object-paths="true"
     inkscape:snap-intersection-paths="true"
     inkscape:snap-object-midpoints="true"
     inkscape:snap-center="true"
     inkscape:snap-global="true" />
  <path
     id="path1832"
     style="fill:#000000;fill-opacity:1;stroke-width:1.12647"
     d="M 5.8168223,8.5831715 C -2.4010297,18.573597 -0.99897087,33.343346 8.9185588,41.617027 l -0.076433,0.162186 c -0.069629,0.04184 -0.4856577,0.266345 -1.0036113,0.544741 -1.0910963,0.568072 -1.0721814,0.553482 -0.9889205,0.904385 0.027386,0.100176 0.071114,0.235842 0.1072665,0.299047 l 0.065308,0.124941 0.5276358,-0.08732 c 1.0747269,-0.164599 2.1849905,-0.137856 3.5803547,0.07348 1.647189,0.205831 3.40136,0.711346 7.046657,1.961867 0.725622,0.231029 1.430546,0.463962 1.516099,0.480766 0.291618,0.06315 0.691056,-0.24709 0.610534,-0.472089 -0.02563,-0.07753 -0.111171,-0.13168 -0.57124,-0.344539 C 17.288244,44.108627 15.13164,42.34167 12.552785,39.626687 11.936284,39.085895 10.261569,37.173836 9.9200128,36.763079 9.8097205,36.627419 9.7100283,36.510755 9.6946847,36.503661 c -0.00451,-0.0053 -0.00732,-0.0024 -0.00867,0.0071 -0.00406,0.02826 0.00428,0.116389 0.024208,0.216474 C 9.8200942,37.47327 10.238136,39.55477 10.314497,39.9962 1.2563897,32.46373 -0.02497355,19.05137 7.4683896,9.9417046 14.986601,0.80183149 28.460492,-0.50985019 37.600367,7.0083613 46.592011,14.404644 47.996946,27.561845 40.882114,36.68908 L 39.71108,36.557676 c -0.928255,-0.03488 -1.71179,-0.106361 -1.756141,-0.08851 -0.297176,0.167092 -8.863971,5.840275 -8.933017,5.92463 -0.166453,0.209733 -0.117432,0.669829 0.08687,0.812159 0.03385,0.04501 0.729125,0.0141 1.792425,-0.05257 0.959657,-0.07331 1.730944,-0.122298 1.740134,-0.124072 0.0036,-0.0027 0.02959,0.104322 0.05048,0.229546 0.04728,0.330892 0.292599,0.694627 0.610515,0.892482 0.122695,0.07685 0.222864,0.158799 0.221382,0.170707 0.0068,0.009 -0.295163,0.562456 -0.636787,1.213982 -0.815918,1.501484 -0.875168,1.644519 -0.906288,1.97799 -0.0218,0.2278 0.0052,0.388507 0.0817,0.485979 l 0.63701,-0.473101 c 0.07447,0.09903 0.196062,0.126261 0.366793,0.09091 0.134715,-0.0083 0.318204,-0.13826 2.188563,-1.587003 1.070902,-0.825025 2.934144,-2.281393 4.081501,-3.192121 l 2.125477,-1.673085 0.544098,-1.523826 c 0.224442,-0.676162 0.423321,-1.216094 0.533303,-1.538406 l 0.01148,-0.01048 -0.0233,-0.03056 C 50.388653,28.038913 48.849829,13.489954 38.960298,5.355095 28.927117,-2.8979262 14.069843,-1.4500091 5.8168223,8.5831715 Z" />
</svg>
