<svg width="48" height="48" version="1.1" viewBox="0 0 48 48" xml:space="preserve" xmlns="http://www.w3.org/2000/svg">


<path d="m7.2 38c-0.34 2.5 0.42 5.2 2.4 6.2 2.3 1.4 5.4 0.014 6.7-2.9 0.0037-0.0094 4e-4 -0.024 0.0043-0.033 1.6-3.2 2.7-7.2 6.9-10l1.6-1.2 1.1 1.4c3.2 4.1 3.3 8.3 4 12 0.0036 0.0079-0.0062 0.024-0.0043 0.033 0.48 3.1 3.1 5.3 5.7 4.5 8e-3 -0.0029 0.021 0.0064 0.029 0.0036 2.6-0.6 4.2-4.1 3.9-7.1-3e-4 -0.0098 0.0045-0.023 0.0042-0.033-0.13-3-2.2-5.8-4.8-5.4-1.3 0.19-1.9 0.55-2.3 0.91-0.19 0.18-0.32 0.34-0.43 0.44-0.0051 0.0039-0.013 0.017-0.018 0.022 0.17 0.42 0.46 1.1 0.83 2 0.31-0.27 0.67-0.46 1.1-0.57 1.1-0.29 2.2 0.068 3 1.3 0.49 0.81 0.67 2 0.48 3.1-0.2 1.1-0.74 2-1.6 2.5l-0.027 0.03c-1 0.61-2.1 0.26-2.8-0.57-0.79-0.83-1.3-2.1-1.1-3.4l6e-3 8e-4c0.0097-0.098 0.021-0.2 0.034-0.26 0.082-0.64 0.29-1.2 0.6-1.6l-1.2-2.8c-0.0049-0.0095-0.011-0.021-0.016-0.031-0.19-0.42-0.41-1.1-0.66-2-0.51-1.8-1.2-4.4-2.5-7.5 3.6-4.8 8.3-11 11-15 2.6-3.5 2-7.4 1.3-9.1l-14 19-9.3-22c-2.3 2.9-2 6.6-1.1 9.1 2.3 5.7 4.6 11 6.9 17-1.6 2.2-3.2 4.7-4.4 6.8-0.35 0.59-0.64 1.1-0.89 1.4-0.0086 0.012-0.02 0.027-0.029 0.039-0.086 0.12-0.17 0.23-0.24 0.31-0.015 0.017-0.04 0.052-0.058 0.074-0.061 0.079-0.3 0.39-0.42 0.54-0.4 0.52-0.77 1-1.4 1.8 0.18 0.48 0.25 1 0.16 1.7l-0.0043 0.033c-0.11 1.3-0.89 2.5-1.9 3.2s-2.1 0.73-3-0.15l-0.028-0.0036c-0.73-0.63-0.98-1.7-0.89-2.8 0.0056-0.07 0.014-0.14 0.022-0.21 0.13-1 0.56-2 1.2-2.7 1-0.99 2.3-1 3.2-0.49 0.35 0.21 0.66 0.5 0.9 0.85l1.4-1.8c-0.19-0.28-0.41-0.56-0.59-0.79-0.32-0.39-0.8-0.86-1.7-1.2-2.4-0.92-5.1 1.1-6 4-0.2 0.56-0.3 1.2-0.4 1.7l-0.0041-0.0053z"/></svg>
