<svg version="1.1" viewBox="0 0 48 48" xmlns="http://www.w3.org/2000/svg">
 <g>
  <path d="m12 0c-.11-.0023-.24.063-.39.2-.22.2-.29.32-.92 1.7-.28.59-.51 1.1-.52 1.1-.0076.0074-.12-.022-.24-.068-.31-.12-.7-.1-.96.043-.1.052-.19.092-.19.088-.0037-.0075-.38-.58-.84-1.3-.52-.79-.87-1.3-.92-1.3-.21-.069-.56.14-.62.37-.023.094.52 9.2.56 9.5.011.041.48.56 1 1.2l.72.76v26c-.13-.08-1.9-1.4-2.5-1.8-.097-.072-.18-.12-.17-.098-.00013.015.053.14.12.28.2.43 1.1 2.5 1.3 3.2 1.2 3.1 1.8 5.5 1.8 7.9-.0038.45.0065.54.059.59.15.15.55-.052.61-.31.019-.075.1-.73.19-1.4.38-3.4.64-5 1.1-6.4.36-1.2.76-2.1 1.3-2.9l.27-.39-.074-.1c-.037-.053-.13-.14-.2-.2-.25-.2-.23-.21-1.1.45-.42.31-.76.56-.82.6v-25c.17-.25.45-.68.81-1.2l.79-1.2.053-2.4c.034-1.3.072-3.4.086-4.6.03-2.1.025-2.3-.041-2.4-.066-.14-.15-.21-.26-.21z"/>
  <path d="m33 0c-1.9 0-3.3.12-4.2.41l-.0039.002h-.002c-1 .33-2.2 1.1-3.5 2.3l.41.67c.93-.38 2.3-.58 4.1-.58h.49c-.036.11-.12.36-.31.82l-.002.002v.0039c-.21.54-.53 1.3-.96 2.3-.43.96-.85 1.9-1.3 2.9l-.002.002c-.41.94-.81 1.9-1.2 2.8-.39.93-.8 1.9-1.2 2.8h-.002v.002c-.42.9-.87 1.8-1.4 2.7l-.002.002v.002c-.48.87-.93 1.6-1.3 2.1-.42.55-.75.97-.99 1.2-.25.27-.44.48-.58.63-.064.069-.11.13-.15.17-.02.023-.037.04-.055.062-.0027.0034-.0069.0099-.0098.014l-.68.68h1.5c1.1 0 1.9-.044 2.5-.14l-.002.002c.43-.061.85-.15 1.3-.28l.0059-.002h.0039c.42-.14.83-.32 1.2-.56.43-.24.97-.62 1.6-1.1.3-.23.63-.49.99-.76l-.45-.66c-.2.12-.6.29-1.2.47h-.002c-.5.16-1.4.26-2.6.26-.12 0-.17.0017-.27.002.014-.016.029-.035.043-.051 1-1.2 2.1-2.8 3.1-4.9h.69c2.5.034 4-.19 5.1-.72.35 1.1.72 2.3 1.2 3.8.48 1.7.89 2.9 1.2 3.7.27.61.73 1 1.3 1.2s1.2.021 2-.3l.002-.002h.002c.23-.1.45-.22.66-.34l.59-.36.0059-.0039c.23-.15.67-.47 1.4-1l.004-.004c.27-.21.58-.45.93-.71l-.45-.66c-.17.11-.45.24-.82.39h-.002l-.002.002c-.33.14-.63.2-.91.2-.52 0-.8-.15-1-.51-.11-.19-.21-.4-.29-.64l.0039.018c-.087-.31-.36-1.1-.84-2.5v-.002c-.47-1.4-1.2-3.7-2.1-6.8l-1.3-4.3.002.002c-.42-1.4-.84-2.9-1.3-4.2l-.086-.29zm-1.3 6.3c.63 2.1 1.2 3.8 1.5 5-.44.02-.87.043-1.3.043l-2.5-.051c.76-1.7 1.5-3.3 2.2-5z" color="#000000" style="-inkscape-stroke:none"/>
  <path d="m41 26-1.5.17c-.67.075-1.5.11-2.5.11l-7.1-.23h-1.3c-.46 0-.88.035-1.3.11h-.002c-.54.092-1.1.44-1.8.99v-.002c-.29.22-.57.44-.83.66-.25.2-.45.36-.58.46l-1.4 1.1 1.7-.2c.67-.075 1.5-.11 2.5-.11l7.1.23h.0098c.59 0 1-.043 1.5-.068-.39.46-.76.83-1.2 1.5-.33.48-.67.99-1 1.5l-.002.0039-.002.002c-.33.53-.66 1.1-.97 1.6-.31.51-.61 1-.89 1.5l-.002.002-.002.0039c-.27.46-.55.92-.83 1.4-.28.45-.62 1-1 1.6-2.8 4.5-5.2 7.5-6.9 9.1l-1 .88h14c.51 0 1-.088 1.6-.26l.0059-.002c1.5-.48 2.8-1.4 3.9-2.7l-.59-.77c-1.1.49-2 .72-2.6.72l-7.1-.21h-.0078c-1.4 0-2.7.13-4.1.27 1.1-1 2.2-2.1 3.2-3.6.59-.82 1.2-1.7 1.7-2.5l.002-.002c.54-.85 1.1-1.7 1.7-2.6v-.002c.58-.92 1.2-1.9 1.8-2.8l.002-.002c.61-.98 1.2-2 1.9-3l.0039-.0039.002-.0039c1.2-1.9 2.1-3.2 2.8-3.7z" color="#000000" style="-inkscape-stroke:none"/>
 </g>
</svg>
