<?xml version="1.0" encoding="UTF-8" standalone="no"?>
<svg
   width="48"
   height="48"
   version="1.1"
   viewBox="0 0 48 48"
   xml:space="preserve"
   id="svg4"
   sodipodi:docname="stamp3d.svg"
   inkscape:version="1.1.1 (3bf5ae0d25, 2021-09-20)"
   xmlns:inkscape="http://www.inkscape.org/namespaces/inkscape"
   xmlns:sodipodi="http://sodipodi.sourceforge.net/DTD/sodipodi-0.dtd"
   xmlns="http://www.w3.org/2000/svg"
   xmlns:svg="http://www.w3.org/2000/svg"><defs
   id="defs8" /><sodipodi:namedview
   id="namedview6"
   pagecolor="#ffffff"
   bordercolor="#666666"
   borderopacity="1.0"
   inkscape:pageshadow="2"
   inkscape:pageopacity="0.0"
   inkscape:pagecheckerboard="0"
   showgrid="false"
   showguides="true"
   inkscape:guide-bbox="true"
   inkscape:snap-global="true"
   inkscape:snap-bbox="true"
   inkscape:zoom="3.5208025"
   inkscape:cx="24.00021"
   inkscape:cy="24.142223"
   inkscape:window-width="1536"
   inkscape:window-height="793"
   inkscape:window-x="1912"
   inkscape:window-y="-8"
   inkscape:window-maximized="1"
   inkscape:current-layer="svg4"><sodipodi:guide
     position="77.255114,43.171555"
     orientation="1,0"
     id="guide1152" /><sodipodi:guide
     position="24,45.2"
     orientation="0,-1"
     id="guide1154" /><sodipodi:guide
     position="34.118,35.2"
     orientation="0,-1"
     id="guide1156" /><sodipodi:guide
     position="28.309,16.06"
     orientation="0,-1"
     id="guide1158" /><sodipodi:guide
     position="41.4,14.2"
     orientation="0,-1"
     id="guide1160" /><sodipodi:guide
     position="43.7,5.7"
     orientation="0,-1"
     id="guide1162" /><sodipodi:guide
     position="5,4.5"
     orientation="0,-1"
     id="guide1164" /><sodipodi:guide
     position="38.911583,-17.326016"
     orientation="0,-1"
     id="guide1166" /></sodipodi:namedview>


<path
   d="m24 2.8a10 10 0 0 0-10 10 10 10 0 0 0 0.039 0.44 14 18 0 0 1 6.1 15 14 18 0 0 1-0.33 3.7h8.5a14 18 0 0 1-0.33-3.7 14 18 0 0 1 6.1-15 10 10 0 0 0 0.039-0.44 10 10 0 0 0-10-10zm-18 31-2.3 8.5h40l-2.3-8.5zm18 1.8a2.7 2.5 0 0 1 2.7 2.5 2.7 2.5 0 0 1-2.7 2.5 2.7 2.5 0 0 1-2.7-2.5 2.7 2.5 0 0 1 2.7-2.5zm-19 7.9v0.18c0 0.96 0.8 1.7 1.8 1.7h35c1 0 1.8-0.77 1.8-1.7v-0.18z"
   stroke-linecap="round"
   stroke-linejoin="round"
   stroke-width="4.9"
   id="path2" /><ellipse
   style="fill:#d40000;stroke-width:23.1;stroke-linecap:round;stroke-linejoin:round"
   id="path879"
   cx="76.82679"
   cy="21.860508"
   rx="18.85"
   ry="4.25" /><ellipse
   style="fill:#d40000;stroke-width:23.1;stroke-linecap:round;stroke-linejoin:round"
   id="path879-2"
   cx="77.823166"
   cy="30.958851"
   rx="18.85"
   ry="4.25" /><ellipse
   style="fill:#ff6600;stroke-width:20.7844;stroke-linecap:round;stroke-linejoin:round"
   id="path879-1"
   cx="77.921738"
   cy="33.941128"
   rx="16.96039"
   ry="3.8239608" /><ellipse
   style="fill:#00ff00;stroke-width:26.0585;stroke-linecap:round;stroke-linejoin:round"
   id="path879-0"
   cx="77.397125"
   cy="25.822645"
   rx="21.264223"
   ry="4.7943206" /></svg>
