<svg width="48" height="48" version="1.1" viewBox="0 0 48 48" xml:space="preserve" xmlns="http://www.w3.org/2000/svg">


<path d="m24 2.8a10 10 0 0 0-10 10 10 10 0 0 0 0.039 0.44 14 18 0 0 1 6.1 15 14 18 0 0 1-0.33 3.7h8.5a14 18 0 0 1-0.33-3.7 14 18 0 0 1 6.1-15 10 10 0 0 0 0.039-0.44 10 10 0 0 0-10-10zm-18 31-2.3 8.5h40l-2.3-8.5zm18 1.8a2.7 2.5 0 0 1 2.7 2.5 2.7 2.5 0 0 1-2.7 2.5 2.7 2.5 0 0 1-2.7-2.5 2.7 2.5 0 0 1 2.7-2.5zm-19 7.9v0.18c0 0.96 0.8 1.7 1.8 1.7h35c1 0 1.8-0.77 1.8-1.7v-0.18z" stroke-linecap="round" stroke-linejoin="round" stroke-width="4.9"/></svg>
