<svg width="48" height="48" version="1.1" viewBox="0 0 48 48" xmlns="http://www.w3.org/2000/svg">
 <path d="m0.0996 0-0.0508 22.2 11.5 11.8 6.14-6.14-5.51-5.51 1.41-1.41 5.51 5.51 2.82-2.82-5.51-5.51 1.41-1.41 5.51 5.51 2.82-2.82-5.51-5.51 1.41-1.41 5.51 5.51 6.38-6.38-11.7-11.6h-22.2zm33.9 11.6 2.48 2.46 10.4-10.4-2.47-2.47-10.4 10.4zm2.48 2.46-6.39 6.39 7.51 7.51-1.41 1.41-7.51-7.51-2.82 2.82 7.51 7.51-1.41 1.41-7.51-7.51-2.82 2.82 7.51 7.51-1.41 1.41-7.51-7.51-6.17 6.17 10.1 10.3c1.58 1.58 4.13 1.61 5.69 0.0449l16.9-16.9c1.56-1.56 1.54-4.11-0.0469-5.69l0.00781-0.0566-10.3-10.2zm-22.4 22.4-2.45-2.5-10.4 10.4 2.47 2.47 10.4-10.4zm6.17-6.17 1.41-1.41-2.48-2.48-1.41 1.41 2.48 2.48zm4.23-4.23 1.41-1.41-2.48-2.48-1.41 1.41 2.48 2.48zm4.23-4.23 1.41-1.41-2.48-2.48-1.41 1.41 2.48 2.48zm-18.7-15.8c2.2 0 3.99 1.79 3.99 3.99s-1.79 3.99-3.99 3.99c-2.2 0-3.99-1.79-3.99-3.99s1.79-3.99 3.99-3.99z"/>
</svg>
