<svg width="48" height="48" version="1.1" viewBox="0 0 48 48" xmlns="http://www.w3.org/2000/svg" xmlns:cc="http://creativecommons.org/ns#" xmlns:dc="http://purl.org/dc/elements/1.1/" xmlns:rdf="http://www.w3.org/1999/02/22-rdf-syntax-ns#">
 <path d="m46.7 24.2-24.4-24.2h-22.2l-0.0519 22.2 24.1 24.6c1.58 1.58 4.13 1.61 5.69 0.0459l16.9-16.9c1.56-1.56 1.54-4.11-0.0459-5.69zm-40.7-14.2c0-2.2 1.79-3.99 3.99-3.99 2.2 0 3.99 1.79 3.99 3.99 0 2.2-1.79 3.99-3.99 3.99-2.2 0-3.99-1.79-3.99-3.99zm21.7 27.8-15.5-15.5 1.41-1.41 15.5 15.5zm4.23-4.23-15.5-15.5 1.41-1.41 15.5 15.5zm4.23-4.23-15.5-15.5 1.41-1.41 15.5 15.5z" stroke-width="2"/>
</svg>
