<svg version="1.1" viewBox="0 0 48 48" xmlns="http://www.w3.org/2000/svg">
 <path d="m38 11-.017.0013c-.087-.00064-.18.019-.27.071-.37.2-.74.4-1.1.61-.16 0-.32-.012-.48.0026-.19.019-.33-.084-.49-.12-.21-.05-.47-.056-.66.03-.58.26-1.2.45-1.7.95-.13.14-.37.19-.53.28-.31-.29-.31-.29-.16-.91-.15-.2-.31-.43-.45-.63h-.72c-.5.23-.89.41-1.3.59-.24.45-.37.55-.81.63-.46.085-.72.21-1.1.46-.43.27-.9.48-1.3.79-.29.22-.59.27-.92.26-.25-.0097-.53.067-.74-.02-.27-.11-.47.05-.7.053-.12.41-.44.59-.81.64-.28.034-.5.12-.7.33-.087.35.033.63.29.87.91.2.94.24 1.5-.12.37-.23.72-.27 1.2-.25.23.2.5.43.79.67h.35c.28.16.54.3.72.41.076.38.18.68.18.98.016.74.19 1.4.69 2 .034.038.0063.13.0063.21-.23.3-.47.61-.69.91.17.51.32.98.48 1.5.14.2.055.43.18.68.15.29.1.68.17 1 .049.24-.15.41-.14.63.048.81-.23 1.6-.14 2.4.056.51-.13.98-.3 1.5-.79.21-1.4.74-1.9 1.3-.087.1-.11.26-.12.28l.7.7c.68-.19 1.4-.36 2-.94.48 0 .96-.022 1.4.0051.48.026.96.1 1.4.15.47.31 1 .41 1.6.52.39.072.76-.22 1.2-.13.26-.28.6-.098.9-.13.32-.031.66-.078.95.013.33.1.64.2.94.044.33-.18.71.097 1-.17.079-.068.26-.00017.39-.028.21-.044.41-.11.6-.17.081-.18.16-.35.2-.44.25-.13.44-.23.66-.35.4.074.86-.12 1.3.16.59-.38 1.1-.81 1.7-1.2.47-.28.84-.72 1.3-1.1.0068-.36.34-.36.55-.47.19-.093.41-.096.62-.15.42-.1.82-.25.99-.72.052-.14.13-.32.24-.36.34-.13.51-.48.87-.57.034-.77-.46-1.2-.95-1.7.12-.71-.32-1.1-.89-1.4-.2-.096-.3-.26-.47-.35.051-.36-.042-.72-.34-.87-.3-.15-.53-.37-.68-.61-.11-.19-.3-.22-.4-.37h-.67c-.36-.36-.8-.56-1.3-.58.25-.32.49-.61.72-.9.36-.47.61-.97.64-1.6.012-.26.077-.51.13-.76.022-.1.092-.19.13-.28.1-.25.2-.51.31-.81-.58-.73-1-1.6-1.7-2.2-.4-.06-.79.0097-1.2-.13-.35-.12-.76-.025-1.2-.025-.38-.26-.75-.56-1.2-.77-.23-.12-.46-.31-.72-.32zm-22 .018c-.1.052-.16.085-.21.11-.45.18-.84.45-1.4.51-.4.042-.84.14-1.2.32-.55.26-1.1.43-1.7.49-.39.038-.8.16-1.1.52-.39.071-.81-.12-1.2.15-.45-.18-.89-.48-1.4-.054v.4c-.25.25-.53.39-.81.35-.21.11-.35.21-.51.26-.86.24-1.6.62-2.2 1.3-.016.14-.031.24-.031.26-.44.25-.85.4-1.2.67-.54.48-1 .98-1.3 1.7-.15.43-.44.86-.91 1-.14.47-.22.95-.57 1.3l-.013.0075v.95c.19.0032.13.15.14.25.038.53-.028 1.1.11 1.6.099.39.11.84-.078 1.2.57 1.8 1.8 3.1 3.5 3.8.29.23.61.46.91.73.21.19.52.11.7.29.28.28.64.42.99.57.095.042.23.12.29.09.47-.25.97-.064 1.4-.13.31.24.59.46.77.6.31.093.51.18.72.21.24.03.5.0064.69.0064.22-.15.4-.27.58-.4.26-.024.5.018.76.11.41.14.86.33 1.3.029.11-.074.33-.052.47-.0039.58.2 1.1.21 1.7.0026.13-.044.3.024.44.066.28.083.55.11.83-.019.073-.036.17-.053.25-.054.35-.0039.67-.048 1-.21.33-.16.72-.29 1.1-.32.88-.062 1.6-.53 2.4-.82.13.38.28.78.39 1.2.026.088-.046.2-.073.31-.13.47-.25.94-.4 1.5-.29.2-.48.56-.62.96-.066.18-.12.41-.42.45.13.57-.17 1-.4 1.5-.23.47-.4.97-.61 1.5-.36.29-.93.39-1 .96.063.13.12.24.18.36.33.14.66.29 1 .031.36-.25.82-.41.84-.96.0013-.04.021-.085.045-.12.49-.64.82-1.4 1.5-1.9.037-.027.065-.064.096-.094v-.35c.12-.098.27-.23.35-.29.079-.36.14-.64.19-.87.58-.33 1.2-.5 1.4-1.2-.24-.38-.11-.81-.15-1.2.42-.36.84-.72 1.2-1.1-.026-.42-.059-.8.26-1.1 0-.13.014-.26-.0075-.39-.016-.1-.12-.19-.12-.29.0063-.23-.023-.45.1-.7.18-.37.39-.78.29-1.2-.18-.33-.32-.58-.47-.85.33-.26.61-.47.83-.65.068-.51.13-.97.19-1.4-.55-.65-1.3-1.1-1.6-1.9-.074-.045-.11-.077-.15-.088-.043-.012-.098.013-.13-.0051-.44-.22-.88-.17-1.3 0-.16.06-.32.12-.49.13-.33.036-.64.18-.76.45-.3.65-.93.73-1.5.9-.34.11-.61.21-.8.52-.15.25-.33.49-.49.73-.12-.046-.24-.1-.36-.13-.14-.037-.29-.054-.48-.086-.051.026-.16.086-.24.13-.15.57-.43 1.1-.27 1.7.14.059.33.14.53.22.079.03.17.06.25.044.6-.13 1.2-.2 1.5-.91.064-.17.22-.31.3-.44h.45c.47.38.49.91.47 1.4.35.39.41.65.41 1.5-.49.16-.99.34-1.5.51-.05.35-.38.44-.65.62-.72.12-1.3-.41-2-.53-.17.088-.35.19-.51.27-.21-.057-.43-.2-.52-.13-.45.3-.82-.064-1.2-.08-.31-.012-.66-.13-.9-.024-.38.17-.67.04-.98-.09-.18-.071-.34-.19-.52-.22-.41-.061-.82-.078-1.2-.11-.2-.2-.35-.34-.49-.49-.24-.25-.52-.36-.87-.38-.42-.025-.84-.12-1.2-.34-.36-.21-.75-.38-1.1-.61-.2-.13-.37-.32-.5-.52-.21-.31-.36-.66-.56-.99-.078-.13-.18-.29-.31-.34-.36-.14-.53-.46-.8-.67.082-.6.025-1.1-.38-1.6-.095-.1-.13-.27-.2-.39-.3-.51-.29-1 .015-1.5.17-.28.2-.57.18-.92.21-.25.44-.52.7-.83-.068-.24-.052-.56.14-.76.39-.43.75-.91 1.3-1.2.27-.12.42-.29.52-.54.35-.14.71-.27 1-.43.53-.25 1.1-.32 1.7-.41.39-.058.79-.069 1.2-.18.59-.18 1.1-.52 1.7-.63.24.23.58.18.82.1.19-.06.37-.082.56-.11.19-.028.37-.11.56-.13.38-.044.71.088 1.1.24.44.19.91.33 1.5.53.32.38.72.85 1.1 1.3h.62c.22.21.38.36.59.56-.19.4-.4.84-.64 1.3.22.29.44.57.58.76.32.1.5.16.64.21.59-.098.68-.58.87-.92-.042-.2-.16-.42-.098-.52.32-.51-.091-.91-.098-1.4.095-.085.24-.22.28-.25.11-.44.18-.73.25-.99.63-.42 1.1-.91 1.6-1.5.28-.065.53-.23.69-.47l-.9-.9h-.25c-.41 0-.82.019-1.2-.0088-.21-.013-.39-.19-.63-.13-.45-.31-.81-.1-1.2.18-.2.15-.44.26-.67.36-.11.046-.26.0088-.27.0088-.21-.16-.34-.25-.42-.32-.02-.16-.03-.27-.036-.3-.54-.29-1-.27-1.4-.053-.12.19-.19.29-.24.37-.35-.19-.68-.38-1-.55zm21 2.5v.0051l.72.72c.54-.022.98.26 1.5.49-.058.1-.11.19-.17.29.12.42.34.8.62 1.2.2.26.26.62.36.88-.11.29-.29.34-.5.32-.4.34-.69.82-1.2.98-.14.041-.24.25-.33.4-.13.22-.24.45-.39.74-.17.053-.39.2-.6.18-.5-.04-.88.17-1.3.43-.53-.086-1 .09-1.5.19-.28.057-.55.21-.79.32-.04.32-.069.58-.1.84-.033.26-.068.52-.098.75.57.4 1.1.17 1.7-.7.2-.04.41-.079.71-.14.95.43 2 .56 3.2.15.74.28.74.28 1.3.87.36.055.71.099 1 .33.22.16.49.25.74.34.26.097.4.27.54.52.21.4.51.75.79 1.2v1.3c-.17.15-.31.36-.5.45-.22.1-.24.33-.4.47-.16.13-.24.35-.37.55-.33-.064-.62-.15-.92-.17-.32-.029-.64-.0075-1-.0075-.41.32-.87.68-1.4 1.1-.39.049-.74-.27-1.2-.55-.66.038-1.4-.029-2.1-.3-.68-.26-1.4-.44-2-.93h-.55c-.018-.055-.04-.11-.053-.17-.034-.18.039-.33.13-.49.11-.2.26-.42.26-.64.0068-.29-.1-.59-.18-.87-.059-.22-.14-.44-.21-.66-.012-.041-.015-.096 0-.14.28-.69.072-1.4.13-2.1.02-.25.02-.5 0-.75-.019-.21-.086-.42-.13-.63-.014-.063-.017-.13-.045-.19-.1-.21-.27-.39-.23-.66.019-.11.37-1 .44-1.1.081-.13.15-.26.2-.33.19-.68-.11-1.2-.25-1.8-.054-.22-.14-.44-.22-.69.17-.38.8-.55.64-1.2.18-.15.34-.3.59-.51.0078-.0026.13-.042.25-.074.1-.027.24-.096.31-.054.14.09.26.13.43.13.61-.0097 1.2.011 1.8-.011.2-.0072.41-.12.58-.17z" fill="#803300" stroke="#000" stroke-opacity=".59" stroke-width=".3"/>
</svg>
