<svg aria-hidden="true" style="position: absolute; width: 0; height: 0; overflow: hidden;"
    xmlns="http://www.w3.org/2000/svg">
    <symbol id="logo" viewBox="0 0 1200 177">
        <path d="m425 15.4c-0.333 1.26-0.595 2.74-1.09 4.12-0.976 2.81-1.12 5.57-0.428 8.47 0.286 1.19-0.0714 2.55-0.143 3.83-0.238 3.83-2 7.4-1.83 11.4 0.0714 1.67-0.69 3.38-1.02 5.07-0.167 0.881-0.119 1.79-0.238 2.67-0.309 2.45 0.69 4.62 1.5 6.81 0.595 1.62 0.0714 3.12-0.238 4.67-0.476 2.4-1.21 4.76-1.45 7.19-0.214 2.29-0.167 4.67 0.214 6.93 0.286 1.62 1.26 3.14 2.02 4.67 0.666 1.38 0.857 2.78 0.595 4.26-0.333 1.88 0.357 3.28 1.98 4.19 1.02 0.571 2.12 1.09 3.24 1.45 3.38 1.05 6.09 3.09 8.62 5.47 0.309 0.286 0.857 0.452 1.29 0.428 0.857-0.0714 1.69-0.333 2.55-0.476 1.38-0.214 2.48 0.333 3.4 1.31 0.143 0.143 0.214 0.405 0.238 0.643 0.119 1.59-1.48 3.93-2.78 4.76-2.31 1.45-4.95 1.74-7.5 2.45-0.619 0.167-1.26 0.595-1.69 1.07-1.95 2.33-4.31 3.98-7.31 4.55-0.738 0.143-1.57 0.0237-2.31-0.19-2.19-0.666-4.38-1.33-6.5-2.21-0.833-0.357-1.55-1.19-2.07-1.98-0.928-1.4-2.07-2.09-3.76-1.95-1.02 0.0714-2.07 0.0476-3.09 0.143-0.905 0.0952-1.55-0.381-1.52-1.12 0.19-3.57-2.09-6.47-2.57-9.83-0.167-1.17-0.286-2.36-0.405-3.52-0.0952-0.976-0.167-1.95-0.238-2.95-0.0714-0.833 0.0477-1.5 0.738-2.21 2.31-2.36 2.83-5.45 2.48-8.5-0.262-2.19-0.0477-4.24 0.238-6.33 0.357-2.83 0.952-5.62 0.405-8.5-0.0714-0.333 0-0.714 0.143-1.05 0.714-1.83 1.52-3.64 2.21-5.47 0.69-1.83 1.62-3.67 1.81-5.57 0.286-2.71-0.619-5.31-2.31-7.52-0.857-1.09-1.09-2.31-0.619-3.64 0.976-2.88 2-5.74 2.93-8.62 0.428-1.33-1.09-5.33-2.26-5.97-0.524-0.286-1.21-0.262-1.83-0.405-2.36-0.619-4.71-1.33-7.21-1.17-0.405 0.0238-0.976-0.476-1.19-0.881-0.143-0.262 0.0952-0.833 0.262-1.21 0.381-0.762 0.857-1.45 1.24-2.21 0.547-1.09 1.62-1.26 2.64-1.59 1.19-0.381 2.36-0.857 3.52-1.31 0.928-0.357 1.83-0.857 2.81-1.07 3-0.666 4.97-2.64 6.66-5 0.286-0.381 0.262-0.976 0.452-1.45 0.428-1.09 0.786-2.21 1.36-3.21 0.19-0.357 0.928-0.619 1.38-0.571 3.55 0.357 5.5 2.38 5.93 5.95 0.238 1.62 0.524 3.31 0.786 5.26zm598 118c-1.12-0.119-2.21-0.19-3.28-0.381-0.809-0.167-1.26 0.143-1.62 0.809-0.452 0.833-0.928 1.67-1.48 2.43-0.214 0.286-0.666 0.595-0.976 0.571-0.333-0.0238-0.881-0.405-0.928-0.69-0.143-1.31-0.619-2.83-0.119-3.9 1.24-2.67 2.88-5.17 4.5-7.64 0.381-0.571 1.33-0.786 2.05-1.09 0.833-0.357 1.05-0.905 0.952-1.79-0.309-2.5-0.595-5-0.786-7.52-0.048-0.643 0.143-1.38 0.452-1.93 1.33-2.29 1.62-4.62 0.809-7.12-0.19-0.595-0.19-1.26-0.357-1.86-0.452-1.5-0.167-2.81 0.904-3.95 0.143-0.143 0.262-0.309 0.381-0.452 2.71-3.14 2.62-1.95 0.738-5.69-0.619-1.24-0.928-2.38-0.5-3.74 0.286-0.928 0.333-1.98 0.714-2.86 0.833-1.9 0.5-3.74 0.071-5.67-0.476-2.26-0.524-4.59-1.02-6.86-0.595-2.59-1.4-5.17-2.26-7.71-0.571-1.71-1.36-2.05-3.09-1.62-1.12 0.286-2.19 0.666-3.31 0.881-1.4 0.286-2.05 1.07-2.26 2.48-0.333 1.93-0.476 1.98-2.4 1.45-0.833-0.238-1.67-0.524-2.48-0.786-0.904-0.309-1.14-0.952-1.02-1.86 0.309-2.31 1.55-4.02 3.38-5.36 2.31-1.67 4.78-2.93 7.59-3.45 1.21-0.214 1.59-0.928 1.57-1.95-0.024-1.31-0.024-2.62-0.262-3.9-0.238-1.26 0.19-2.19 1.24-2.64 1.24-0.547 2.62-0.809 3.93-1.26 0.452-0.143 0.881-0.428 1.21-0.762 0.904-0.928 1.69-2.02 2.64-2.88 1.71-1.52 3.95-1.4 5.33 0.405 0.881 1.17 1.48 2.59 2 3.98 0.595 1.55 2.05 2.33 3.55 1.55 0.643-0.333 1.26-0.857 1.69-1.45 1.4-2 3.57-2.81 5.67-3.67 0.595-0.238 1.48 0.0952 2.17 0.333 1.57 0.547 2.81 0.0238 3.83-1.12 0.714-0.786 1.38-1.64 1.93-2.55 1.74-2.88 4.67-4.14 7.52-5.47 0.238-0.119 0.619-0.0238 0.904 0.0476 2.26 0.5 4.55 1 6.81 1.55 0.381 0.0952 0.762 0.381 1 0.69 1.67 2.17 2.48 2.36 4.93 1.02 1.74-0.952 3.45-1.93 5.21-2.81 0.452-0.214 1.21-0.357 1.52-0.119 0.286 0.238 0.286 1 0.214 1.5-0.357 2-1.38 3.71-2.71 5.19-1 1.12-2.05 2.24-3.21 3.17-1.09 0.857-1.74 1.83-1.95 3.19-0.19 1.29-0.714 2.52-0.905 3.81-0.524 3.98-2.98 7-5 10.2-0.857 1.36-4.55 1.48-5.52 0.214-0.286-0.381-0.286-1.02-0.357-1.55-0.167-0.952-0.048-2.05-0.5-2.81-0.881-1.43-2.09-2.67-3.21-3.95-0.19-0.214-0.643-0.333-0.952-0.333-2.95 0.143-5.78 0.5-8.38 2.19-2.67 1.74-5.57 3.14-8.28 4.78-0.643 0.381-1.07 1.17-1.52 1.81-2.05 2.83-1.45 6.05-1.24 9.19 0.19 2.64 0.5 5.26 0.619 7.9 0.023 0.571-0.405 1.19-0.714 1.71-0.262 0.428-0.69 0.762-1.05 1.12-0.571 0.595-0.643 1.17-0.381 2.02 0.333 1.12 0.452 2.36 0.31 3.5-0.143 1.17 0.071 2.14 0.643 3.05 0.619 0.976 0.214 1.43-0.595 1.98-0.976 0.666-1.86 1.45-2.74 2.24-1.5 1.38-2.36 3.02-2.07 5.17 0.071 0.571-0.238 1.21-0.405 1.81-0.547 1.81-1.12 3.59-1.71 5.38-0.095 0.286-0.238 0.571-0.405 0.857-0.571 1-1.17 1.98-1.76 2.95-1.1 1.74-1.5 3.59-1.24 5.67 0.333 2.52-0.19 4.97-0.952 7.36-0.238 0.714-1.02 1.21-1.43 1.9-0.524 0.905-0.976 1.88-1.33 2.86-0.19 0.714-0.167 1.4-0.286 2.24zm-287-77.6c-2.88 0.119-5.33 0.762-7.62 2.21-2.62 1.67-5.43 3.05-8.09 4.67-0.666 0.405-1.12 1.24-1.59 1.9-2.02 2.78-1.45 5.97-1.24 9.07 0.19 2.64 0.428 5.28 0.69 7.9 0.0714 0.762-0.143 1.36-0.786 1.86-0.524 0.405-0.976 0.928-1.33 1.5-0.19 0.309-0.214 0.786-0.167 1.17 0.119 1.33 0.286 2.64 0.476 3.98 0.143 0.976 0.167 2.05 0.595 2.9 0.524 1.05 0.238 1.5-0.643 2.07-1 0.666-1.9 1.5-2.81 2.33-1.4 1.29-2.19 2.83-1.95 4.86 0.0714 0.643-0.238 1.36-0.428 2.02-0.547 1.76-1.12 3.52-1.69 5.28-0.0952 0.286-0.214 0.595-0.357 0.857-0.547 0.928-1.07 1.86-1.64 2.74-1.19 1.88-1.48 3.88-1.43 6.12 0.0477 2.4-0.476 4.86-0.952 7.24-0.119 0.666-1 1.14-1.36 1.81-0.547 1.02-1.14 2.07-1.38 3.19-0.452 2.02-0.333 2.05-2.38 1.64-2.21-0.428-2.24-0.452-3.4 1.48-0.333 0.547-0.595 1.12-0.976 1.62-0.19 0.262-0.619 0.547-0.905 0.524-0.357-0.0477-0.905-0.357-0.952-0.643-0.19-1.21-0.69-2.69-0.238-3.67 1.31-2.76 2.95-5.38 4.62-7.97 0.357-0.547 1.26-0.738 1.95-1.02 0.857-0.357 1.12-0.905 1-1.86-0.333-2.5-0.595-5-0.786-7.52-0.0477-0.619 0.167-1.38 0.5-1.9 1.45-2.36 1.59-4.86 0.714-7.36-1.05-2.95-0.167-5.24 2.07-7.16 1.05-0.881 1.31-1.83 0.452-2.98-1.98-2.57-1.67-5.33-0.595-8.07 0.762-1.98 0.547-3.81 0.0952-5.76-0.405-1.74-0.405-3.57-0.762-5.33-0.405-1.98-1-3.88-1.52-5.83-0.286-1.02-0.524-2.07-0.881-3.07-0.666-1.93-1.45-2.36-3.38-1.86-1.07 0.262-2.12 0.643-3.21 0.857-1.36 0.286-1.98 1.05-2.21 2.4-0.357 2-0.452 2.02-2.48 1.5-0.381-0.0952-0.762-0.19-1.14-0.309-2.5-0.762-2.76-1.29-1.98-3.78 0.547-1.69 1.71-2.93 3.12-3.95 2.26-1.64 4.74-2.9 7.47-3.43 1.26-0.238 1.67-0.928 1.64-2.02-0.0238-1.26-0.0238-2.55-0.262-3.78-0.262-1.31 0.167-2.26 1.29-2.74 1.21-0.524 2.55-0.762 3.81-1.21 0.476-0.167 0.952-0.452 1.31-0.809 0.905-0.928 1.69-2.02 2.67-2.88 1.67-1.45 3.9-1.36 5.26 0.405 0.905 1.17 1.5 2.59 2.02 3.98 0.643 1.69 2.26 2.43 3.83 1.5 0.476-0.262 0.952-0.643 1.24-1.09 1.33-2.12 3.55-3 5.69-3.83 0.714-0.286 1.79 0.0714 2.62 0.333 1.31 0.381 2.33 0 3.24-0.881 0.595-0.571 1.26-1.17 1.59-1.9 1.17-2.48 3.36-3.81 5.52-5.19 1.64-1.05 3.21-1.57 5.21-0.762 1.52 0.619 3.24 0.69 4.83 1.12 0.5 0.119 1.07 0.452 1.38 0.857 1.52 1.93 2.45 2.17 4.69 0.976 1.79-0.952 3.52-1.98 5.31-2.88 0.476-0.238 1.12-0.119 1.67-0.167 0.0477 0.524 0.19 1.09 0.0952 1.59-0.357 1.98-1.36 3.64-2.67 5.09-1.17 1.29-2.43 2.52-3.76 3.64-0.714 0.595-1.12 1.26-1.31 2.14-0.381 1.74-0.952 3.43-1.21 5.19-0.547 3.74-3 6.47-4.83 9.52-0.786 1.31-4.45 1.4-5.43 0.214-0.309-0.381-0.5-1.07-0.381-1.52 0.333-1.29-0.0952-2.36-0.762-3.36-0.619-0.905-1.36-1.74-2.07-2.59-0.714-1-1.62-1.64-2.71-1.14zm352 12.9c2.14 0.0952 3.86-0.405 5.33-1.43 1.52-1.02 2.95-0.928 4.24 0.167 1.09 0.928 2.29 0.952 3.59 1.12 2.64 0.333 5.02-0.833 7.59-0.881 3.45-0.0714 6.93-0.0952 10.4-0.19 0.405 0 0.833-0.19 1.21-0.333 1.43-0.595 2.07-0.214 1.71 1.29-0.286 1.21-0.881 2.48-1.69 3.4-0.952 1.07-2.31 1.79-3.45 2.69-0.405 0.333-0.786 0.738-1.05 1.19-1.31 2.29-2.36 4.78-3.93 6.86-2.05 2.69-2.38 2.02-4.28 0.119-1.26-1.26-1.93-2.86-2.29-4.62-0.071-0.357-0.452-0.809-0.786-0.952-3.07-1.36-6.16-2.67-9.26-3.98-0.333-0.143-0.857-0.238-1.14-0.0952-1.67 0.857-3.31 1.79-4.93 2.74-0.143 0.0952-0.238 0.428-0.214 0.619 0.19 1.81 0.404 3.62 0.643 5.4 0.119 0.786 0.619 1.14 1.38 1.55 1.29 0.643 2.33 1.71 3.5 2.59 0.619 0.476 1.21 0.976 1.86 1.45 3.33 2.43 6.69 4.81 9.95 7.31 0.809 0.595 1.17 0.524 1.95-0.0714 1.67-1.26 3.52-2.24 5.28-3.38 0.714-0.452 1.36-1 2.05-1.48 0.19-0.143 0.405-0.262 0.619-0.333 1.83-0.452 3.62-0.309 5.28 0.666 1.93 1.14 2.55 3.52 1.09 5.19-1.21 1.4-2.83 2.5-4.28 3.71-1.02 0.857-2.29 1.5-3.09 2.52-2 2.57-4.69 3.95-7.76 4.4-2.33 0.333-3.76 1.55-5.05 3.31-1.62 2.19-2.48 2.4-4.9 1.05-2.57-1.45-5.05-3.14-7.57-4.69-2.31-1.43-4.59-2.81-7.43-3.21-2-0.286-3.93-1.38-5.81-2.24-1.29-0.571-2.07-1.67-2.33-3.12-0.071-0.381-0.143-0.786-0.286-1.14-0.762-1.98-1.21-3.93-0.524-6.09 0.262-0.786 0-1.93-0.428-2.69-0.881-1.69-1.14-3.4-0.857-5.24 0.048-0.357-0.119-0.833-0.309-1.17-0.69-1.12-0.619-1.79 0.452-2.55 1.69-1.19 2.36-2.69 1.62-4.71-0.428-1.21-0.238-2.4 0.429-3.43 1.29-1.93 2.59-3.88 4.12-5.64 1.33-1.52 2.62-2.98 2.76-5.09 0.024-0.309 0.262-0.643 0.452-0.928 0.809-1.21 1.59-2.45 2.48-3.62 0.405-0.524 0.976-1.02 1.57-1.26 0.904-0.357 1.88-0.619 2.86-0.714 2.71-0.262 4.05-2.12 4.43-4.76 0.119-0.928 0.666-1.81 1.12-2.64 0.143-0.262 0.619-0.452 0.976-0.476 0.619-0.0714 1.29-0.119 1.9 0.0476 2.26 0.571 4.24-0.143 6.02-1.4 2.07-1.45 4.26-1.5 6.57-0.905 0.238 0.0476 0.452 0.0952 0.69 0.143 3.07 0.405 3.14 0.428 4.31-2.48 0.5-1.21 1.29-1.69 2.45-1.86 0.167-0.0238 0.333-0.0714 0.476-0.0476 3.69 1.12 6.97-0.405 10.4-1.48 1.24-0.405 2.64-0.309 3.98-0.309 0.857 0 1.12 0.524 0.785 1.4-0.643 1.69-1.14 3.45-1.76 5.17-0.143 0.405-0.428 0.738-0.643 1.12-1.14 1.98-2.26 3.95-3.43 5.93-0.19 0.333-0.547 0.595-0.881 0.762-0.476 0.262-1.02 0.381-1.55 0.595-1.07 0.452-1.64 1.14-1.62 2.45 0.023 2.26-0.904 4.31-1.88 6.31-0.19 0.381-0.405 0.786-0.476 1.19-0.405 2.4-2.43 4.24-4.83 4.19-0.428 0-0.952-0.405-1.21-0.762-1.67-2.21-3.28-4.48-4.88-6.74-1.14-1.62-3.45-2.29-5.31-1.71-2.67 0.786-5.4 1.45-8.14 2-1.81 0.357-5.19 3.24-5.67 5-0.167 0.595-0.547 1.12-0.833 1.69-0.524 1.09-1.07 2.21-1.71 3.5zm-321 0.0238c2.21 0.0476 3.93-0.452 5.43-1.48 1.5-1 2.88-0.857 4.14 0.167 1.14 0.928 2.36 0.976 3.71 1.14 2.59 0.333 4.95-0.833 7.47-0.881 0.0477 0 0.0714-0.0238 0.119-0.0238 3.43-0.0476 6.86-0.0952 10.3-0.19 0.571-0.0238 1.12-0.286 1.67-0.476 0.976-0.309 1.33-0.0952 1.38 0.928 0.0714 1.5-0.524 2.74-1.55 3.74-0.905 0.881-1.88 1.71-2.95 2.38-1.07 0.643-1.69 1.5-2.24 2.59-1 2-2.19 3.93-3.33 5.86-0.167 0.309-0.452 0.547-0.69 0.809-1.29 1.29-1.71 1.29-3.05 0.0952-1.55-1.4-2.59-3.09-2.9-5.17-0.0952-0.666-0.357-0.928-0.928-1.17-3.07-1.29-6.09-2.59-9.16-3.88-0.381-0.167-0.928-0.262-1.26-0.0952-1.64 0.833-3.24 1.76-4.83 2.69-0.143 0.0952-0.262 0.405-0.238 0.619 0.19 1.86 0.405 3.69 0.666 5.52 0.0952 0.738 0.571 1.09 1.33 1.45 1.14 0.547 2.12 1.48 3.17 2.26 0.905 0.69 1.79 1.43 2.69 2.09 3.12 2.31 6.28 4.57 9.35 6.93 0.833 0.619 1.24 0.666 2.14 0 1.88-1.4 3.98-2.57 6.05-3.71 0.952-0.524 1.5-1.83 2.86-1.62 1.38 0.238 2.86 0.262 4.09 0.809 2.14 0.952 2.74 3.52 1.21 5.28-1.19 1.38-2.78 2.43-4.19 3.62-1.12 0.928-2.43 1.69-3.33 2.78-1.88 2.26-4.26 3.64-7.05 4.02-2.67 0.381-4.43 1.76-5.9 3.86-1.09 1.59-2.02 1.86-3.74 0.976-2.09-1.09-4.12-2.36-6.14-3.59-1.69-1.02-3.28-2.21-5.05-3.12-1.31-0.666-2.83-0.928-4.21-1.45-2.29-0.857-4.59-1.64-6.74-2.76-0.809-0.428-1.21-1.64-1.74-2.55-0.214-0.405-0.19-0.928-0.357-1.36-0.786-1.95-1.19-3.86-0.476-5.97 0.262-0.762 0.0477-1.86-0.357-2.59-0.928-1.76-1.29-3.52-0.905-5.47 0.0714-0.333-0.119-0.738-0.286-1.05-0.714-1.17-0.69-1.81 0.405-2.57 1.69-1.19 2.4-2.67 1.67-4.69-0.428-1.21-0.262-2.43 0.405-3.43 1.31-1.98 2.67-3.93 4.19-5.71 1.29-1.5 2.55-2.93 2.69-5 0.0238-0.333 0.238-0.643 0.428-0.928 0.809-1.21 1.59-2.45 2.48-3.62 0.405-0.524 0.952-1.05 1.55-1.29 0.905-0.381 1.88-0.643 2.86-0.714 2.78-0.262 4.12-2.19 4.48-4.86 0.119-0.952 0.738-1.86 1.24-2.74 0.119-0.214 0.595-0.309 0.928-0.333 0.595-0.0476 1.21-0.0952 1.79 0.0476 2.26 0.571 4.24-0.119 6.02-1.38 2.02-1.4 4.17-1.52 6.45-0.976 0.381 0.0952 0.786 0.143 1.17 0.19 2.69 0.381 2.76 0.405 3.83-2.14 0.524-1.24 1.17-2.12 2.57-2.21 0.238-0.0238 0.476-0.0714 0.69 0 2.52 0.857 4.93 0.119 7.33-0.547 1.59-0.452 3.17-0.928 4.76-1.38 0.19-0.0476 0.405-0.0714 0.595-0.0476 2.05 0.119 3.05 0 1.9 2.5-0.0714 0.19-0.143 0.357-0.214 0.547-0.738 2.45-1.57 4.88-3.36 6.83-0.309 0.333-0.571 0.786-0.738 1.21-0.738 2.02-1.67 3.78-4.07 4.31-0.809 0.167-1.02 0.976-1.14 1.86-0.262 1.74-0.714 3.45-1.21 5.14-0.357 1.29-0.928 2.5-1.36 3.76-0.5 1.55-3.24 3.43-4.78 3.09-0.524-0.119-1.05-0.69-1.4-1.19-1.52-2.07-3.02-4.17-4.5-6.28-1.17-1.69-3.43-2.31-5.4-1.74-2.67 0.786-5.4 1.4-8.14 1.98-1.83 0.381-5.09 3.24-5.59 5.07-0.143 0.524-0.476 0.976-0.738 1.48-0.619 1.21-1.19 2.36-1.9 3.74zm184 30.2c0.0714-0.595 0.0477-0.928 0.167-1.21 1-2.14 0.905-4.38 0.643-6.64-0.286-2.43-0.69-4.86-0.857-7.31-0.0952-1.45 0.167-2.9 0.19-4.38 0.0238-0.547-0.0952-1.09-0.238-1.62-0.619-2.31-1.29-4.64-1.95-6.95-0.119-0.428-0.381-0.857-0.666-1.21-1.12-1.43-1.19-2.83-0.19-4.28 0.238-0.357 0.476-0.738 0.643-1.14 0.595-1.43 0.428-2.14-0.928-2.83-1.69-0.857-3.45-1.57-5.19-2.33-0.286-0.119-0.643-0.143-0.881-0.333-0.714-0.571-1.57-1.07-2-1.81-0.666-1.19 0.738-1.43 1.31-1.95 3.48-3.12 7.07-6.12 11.4-8.14 0.357-0.167 0.595-0.619 0.833-0.952 1.05-1.48 2.05-3.02 3.17-4.45 0.595-0.762 1.36-1.45 2.14-2.05 1.26-0.976 2.71-1.4 4.19-0.547 1.43 0.833 1.57 2.33 1.45 3.76-0.214 2.48-0.619 4.95-0.881 7.43-0.119 1.17-0.19 2.38 0.0238 3.5 0.381 1.95 0.405 3.86-0.381 5.69-0.762 1.74-0.666 3.31 0.405 4.9 0.476 0.714 0.714 1.57 1.02 2.38 0.428 1.14 0.5 2.31-0.0952 3.45-2.33 4.55-1.29 8.88 0.738 13.2 0.381 0.809 0.69 1.67 1 2.5 0.762 2.09 2.5 3.19 4.24 4.33 1.31 0.857 2.57 0.714 3.74-0.167 0.643-0.476 1.26-1.14 1.64-1.83 0.476-0.905 1.09-1.05 2.07-1.14 1.59-0.167 3.24-0.428 4.71-1.02 2.09-0.809 2.57-2.17 1.93-4.31-0.214-0.714-0.381-1.48-0.738-2.12-0.809-1.55-0.857-3.12-0.0714-4.64 1.83-3.55 2-7.07 0.309-10.7-0.452-0.952-0.619-2.05-0.762-3.09-0.119-0.976-0.619-1.67-1.45-2.02-1.52-0.619-3.09-1.17-4.69-1.62-0.428-0.119-0.976 0.167-1.48 0.286-1.33 0.286-1.69 0.0952-1.71-1.29-0.0238-0.786 0.143-1.64 0.476-2.36 0.452-0.928 1.31-1.4 2.38-0.928 1.64 0.762 2.88 0.238 4.05-1 1.09-1.17 2.33-2.12 3.88-2.81 1.98-0.881 3.02-2.88 3.95-4.76 0.738-1.48 1.88-2.43 3.26-3.14 1.31-0.666 4.57 0.19 5.33 1.45 0.19 0.309 0.309 0.833 0.167 1.12-1.12 2.26-0.19 4.5-0.0477 6.74 0.0952 1.79 0.119 3.55 0.19 5.33 0.0238 0.333 0.119 0.714 0.333 0.952 1.64 2.02 1.95 4.33 1.45 6.81-0.238 1.19-0.333 2.43-0.69 3.59-0.262 0.857-0.857 1.62-1.21 2.45-0.286 0.666-0.619 1.4-0.666 2.09-0.0952 1.9-0.0952 3.81 0 5.69 0.0714 1 0.595 1.98 0.666 2.98 0.167 1.98 0.0952 3.98 0.286 5.93 0.167 1.83 0.476 3.67 0.857 5.5 0.238 1.12 0.833 1.9 2.14 2.21 0.762 0.19 1.59 0.976 1.98 1.71 1.67 3.09 4.48 4.74 7.4 6.21 0.833 0.428 1.17 0.952 1.19 1.81 0.024 0.928-0.69 1.19-1.33 1.45-2.19 0.905-4.33 0.214-6.5-0.214-1.74-0.357-3.5-0.809-5.26-0.809-1.9 0-3.83 0.428-5.74 0.738-1.76 0.286-2.86-0.214-3.45-1.9-0.357-1-0.666-2.09-0.619-3.12 0.0952-1.71-0.714-2.88-1.71-4.14-1.17-1.5-2.38-1.95-4.12-1.05-1 0.524-2.14 0.809-3.19 1.26-1.57 0.666-2.83 1.59-3.76 3.19-2.02 3.48-5.12 5.26-9.28 5.45-2.19 0.0952-4.4 0.857-6.52 1.52-2.5 0.786-2.93 0.809-4.64-1.14-1.17-1.33-2.31-2.71-3.31-4.19-0.381-0.476-0.5-1.36-0.69-1.9zm-611-42.6c-4.48-1.62-8.52-0.643-12.6 0.262-0.857 0.19-1.71 0.333-2.52 0.643-2.62 1.02-5.07 0.762-7.45-0.738-0.5-0.309-1.4-0.262-2-0.0714-1.33 0.476-2.59 1.14-3.9 1.74-0.905 0.405-1.62 0.0714-1.43-0.881 0.167-0.952 0.595-2.02 1.26-2.67 0.905-0.881 2.19-1.4 3.26-2.12 0.69-0.476 1.45-0.952 1.98-1.57 1.81-2.17 3.69-4.19 6.62-4.71 0.786-0.143 1.64-0.0476 2.45 0.0714 1.88 0.309 2.24 0.405 3.12-1.64 0.928-2.17 2.55-3.48 4.33-4.71 0.619-0.428 1.31-0.738 2-1.02 1.62-0.69 3.02-0.714 4.71 0.381 2.43 1.57 5.21 2.59 7.88 3.76 0.405 0.19 1.12 0.0476 1.55-0.214 0.952-0.547 1.83-1.24 2.71-1.9 1.62-1.21 3.4-1.86 5.31-1.02 1.93 0.857 3.69 0.214 5.55-0.0476 0.952-0.143 2-0.238 2.88 0.0476 2.9 0.952 5.71 1.02 8.52-0.19 1.07-0.452 2.09-0.381 3.21 0.0714 2 0.833 4.09 1.45 6.09 2.31 1.57 0.69 2.76 0.262 3.88-0.809 0.19-0.19 0.452-0.381 0.547-0.619 0.786-1.71 2.31-2.29 3.95-2.81 1.43-0.452 2.83-1 4.19-1.67 1-0.5 1.88-0.381 2.81 0.0476 1.24 0.571 1.43 2.07 0.309 2.83-0.809 0.547-1.67 1.07-2.57 1.5-0.833 0.405-1.36 0.976-1.38 1.88-0.0477 2.55-1.55 3.76-3.78 4.55-1.98 0.69-3.86 1.55-6 1.69-1.81 0.119-3.09 1.33-4 2.86-1.02 1.74-2.38 2.67-4.52 2.17-1.74-0.405-3.33 0.119-4.71 1.14-2.02 1.5-4.19 1.43-6.43 0.809-0.452-0.119-0.952-0.167-1.38-0.357-2.62-1.09-5.19-0.357-7.81-0.0238-1.24 0.143-2.5 0.0952-3.74-0.0714-1.67-0.214-2.64 0.119-3.09 1.79-0.833 3.05-3.26 5.09-4.59 7.78-0.119 0.214-0.428 0.333-0.619 0.524-0.928 0.809-1.59 1.81-1.48 3.07 0.238 2.4 0.0477 4.74-0.833 7-0.333 0.881-0.119 1.48 0.738 1.76 1.9 0.666 3.81 1.26 5.71 1.93 0.476 0.167 1 0.428 1.36 0.809 1.67 1.76 3.19 3.78 5.52 4.59 1.76 0.595 3.17 1.59 4.5 2.74 1.05 0.905 1.93 1.98 2.88 3 0.976 1.02 2.09 1.64 3.57 1.31 3.21-0.738 6.19-1.9 8.55-4.33 1.52-1.55 3.33-1.83 5.33-0.976 1.43 0.619 1.88 1.52 1.4 3.05-0.595 1.95-2.19 2.9-3.78 3.9-0.595 0.381-1.19 0.905-1.57 1.48-1.26 1.98-2.76 3.31-5.33 3.33-2.12 0.0238-3.98 1.26-5.64 2.55-0.714 0.547-1.48 1.09-2.05 1.79-2.78 3.36-6.86 4.19-10.7 5.45-0.524 0.167-1.33-0.167-1.88-0.5-2.09-1.26-4.14-2.64-6.21-3.98-0.405-0.262-0.738-0.69-1.17-0.786-2.64-0.571-3.88-2.62-5.02-4.71-0.524-0.952-1.14-1.31-2.17-1.21-0.476 0.0476-0.952 0-1.43-0.0476-1.86-0.19-2.78-1.17-3.12-3-0.0952-0.5-0.452-0.952-0.69-1.43-0.476-0.952-1.09-1.83-1.36-2.83-0.547-2.05-0.952-4.12-1.36-6.21-0.0714-0.405-0.0952-0.928 0.119-1.24 1.88-2.81 1.81-5.78 0.905-8.85-0.214-0.714-0.238-1.5-0.5-2.19-0.976-2.64 0.238-4.76 1.52-6.88 0.214-0.357 0.547-0.738 0.905-0.905 1.05-0.476 1.9-1.05 2.52-2.09 0.238-0.381 1.36-0.524 1.93-0.333 1.59 0.5 2.4-0.381 3.09-1.5 0.381-0.786 0.69-1.76 1.12-2.71zm551-0.238c-4.5-1.62-8.57-0.666-12.6 0.262-0.857 0.19-1.71 0.309-2.52 0.643-2.64 1.02-5.07 0.738-7.45-0.762-0.5-0.309-1.4-0.262-2-0.0476-1.33 0.476-2.59 1.14-3.9 1.74-0.905 0.405-1.59 0.0476-1.43-0.905 0.167-0.905 0.524-1.98 1.17-2.59 0.952-0.905 2.24-1.45 3.36-2.19 0.69-0.476 1.43-0.952 1.98-1.59 1.81-2.17 3.69-4.19 6.62-4.69 0.786-0.143 1.64-0.0714 2.45 0.0952 1.98 0.381 2.33 0.19 3.09-1.67 0.857-2.05 2.36-3.33 4.05-4.52 0.714-0.5 1.5-0.881 2.29-1.21 1.62-0.714 3.02-0.69 4.71 0.405 2.43 1.57 5.21 2.57 7.88 3.76 0.381 0.167 1.05 0.0714 1.43-0.167 0.952-0.547 1.86-1.21 2.74-1.9 1.67-1.31 3.52-1.93 5.52-1.05 1.86 0.809 3.55 0.19 5.31-0.0714 0.976-0.143 2.09-0.238 3 0.0476 2.86 0.905 5.64 1.02 8.43-0.167 1.17-0.5 2.26-0.405 3.43 0.0952 1.98 0.809 4.02 1.43 5.97 2.29 1.5 0.666 2.67 0.309 3.78-0.738 0.167-0.167 0.405-0.309 0.5-0.524 0.857-2 2.71-2.55 4.55-3.17 1.26-0.428 2.55-0.881 3.74-1.48 1-0.5 1.88-0.357 2.81 0.0714 1.21 0.571 1.4 2.07 0.286 2.83-0.786 0.547-1.59 1.05-2.45 1.45-0.857 0.405-1.45 0.976-1.48 1.95-0.0477 2.57-1.57 3.76-3.78 4.55-1.98 0.69-3.86 1.55-6 1.69-1.76 0.119-3.05 1.29-3.93 2.76-1.05 1.79-2.4 2.76-4.59 2.26-1.59-0.381-3.12 0-4.4 0.952-2.19 1.64-4.52 1.74-6.97 0.881-3.07-1.07-6.09-0.833-9.21-0.262-1.09 0.214-2.26 0.0714-3.38-0.0714-1.81-0.238-2.76 0.0714-3.19 1.76-0.809 3.07-3.28 5.07-4.59 7.78-0.0952 0.214-0.428 0.333-0.643 0.5-0.928 0.833-1.57 1.83-1.45 3.09 0.238 2.36 0.0714 4.69-0.809 6.88-0.405 1.02-0.119 1.59 0.809 1.93 1.86 0.643 3.74 1.21 5.59 1.88 0.476 0.167 1 0.452 1.36 0.809 1.67 1.76 3.19 3.78 5.52 4.59 1.76 0.595 3.17 1.59 4.5 2.76 1.05 0.905 1.93 2 2.88 3 0.976 1.02 2.09 1.64 3.57 1.31 3.21-0.738 6.19-1.9 8.55-4.33 1.52-1.55 3.33-1.83 5.33-0.976 1.43 0.619 1.86 1.55 1.38 3.05-0.595 1.95-2.19 2.9-3.78 3.9-0.595 0.381-1.19 0.905-1.57 1.5-1.26 1.9-2.69 3.26-5.21 3.36-1.4 0.0476-2.88 0.809-4.17 1.52-1.21 0.643-2.4 1.48-3.28 2.52-2.88 3.43-6.95 4.48-10.9 5.71-0.571 0.167-1.43-0.143-2-0.476-2.09-1.26-4.14-2.62-6.21-3.95-0.357-0.238-0.69-0.643-1.07-0.738-2.81-0.619-4-2.9-5.38-5.05-0.286-0.428-0.928-0.738-1.48-0.881-0.595-0.167-1.26-0.0238-1.88-0.0952-1.79-0.19-2.76-1.17-3.12-2.9-0.119-0.571-0.524-1.07-0.786-1.62-0.452-0.905-1.02-1.79-1.29-2.76-0.547-2.05-0.952-4.12-1.36-6.21-0.0714-0.381-0.0952-0.928 0.119-1.24 1.88-2.81 1.76-5.78 0.905-8.85-0.309-1.14-0.524-2.31-0.786-3.48-0.524-2.26 1.62-6.21 3.78-7.05 0.286-0.119 0.643-0.357 0.762-0.619 0.476-1.31 1.48-1.67 2.67-1.31 1.5 0.452 2.36-0.262 3-1.4 0.524-0.928 0.881-1.9 1.33-2.88zm-673-15.9c-1.86 0.0974-3.26 1.04-4.31 2.74-1 1.59-2.17 3.12-3.28 4.64-0.547 0.762-1.31 0.952-2.24 1.09-1.4 0.214-2.81 0.69-4.14 1.19-0.833 0.333-1.19 1.07-1.07 2.05 0.119 1 0.119 1.98 0.167 2.98 0.0714 1.45-0.405 2-1.9 2.09-0.738 0.0476-1.5 0.0952-2.24 0.238-3.69 0.643-5.59 3.81-4.36 7.05 0.357 0.928 0.857 1.43 1.93 1.31 3.93-0.452 7.86-1.02 11.6-2.43 1.55-0.595 3.59 0.595 3.48 2.45-0.214 3.14-0.309 6.36 0.905 9.38 0.428 1.07 0.0234 1.45-0.976 1.74-2.21 0.619-4.4 1.45-6.07 3.09-3.86 3.83-7.12 8.07-8.69 13.4-0.167 0.547-0.476 1.07-0.762 1.57-0.5 0.905-1.21 1.74-1.52 2.69-0.428 1.4-0.595 2.93-0.857 4.4-0.214 1.24 0.309 2.26 1.43 2.76 1.74 0.762 3.43 1.64 5.24 2.21 2.07 0.666 4.24 1.31 6.4 1.5 1.93 0.167 3.81 0.381 5.69 0.928 0.666 0.19 1.76 0.0236 2.24-0.428 2.48-2.4 5.57-4.26 7.12-7.52 0.0952-0.19 0.262-0.381 0.428-0.547 1.67-1.5 3.45-2.88 4.45-4.97 0.119-0.238 0.381-0.452 0.619-0.547 0.214-0.0952 0.619-0.143 0.738-0.0238 1.14 1.12 2.52 2 2.98 3.74 0.547 2.05 1.31 4.05 2.02 6.05 0.976 2.71 3.19 2.64 5.12 1.21 0.762-0.571 1.48-1.21 2.33-1.62 0.643-0.309 1.55-0.571 2.19-0.357 1.52 0.5 2.62 0 3.67-0.976 1.36-1.26 2.62-2.5 3.4-4.31 1.12-2.59 3.45-4.28 5.59-6.05 0.238-0.214 0.619-0.381 0.69-0.619 0.619-2.43 1.26-4.86 1.71-7.33 0.143-0.809-0.428-1.38-1.48-1.07-1.09 0.333-2.26 0.476-3.33 0.857-1.86 0.666-3.4 0.19-4.88-0.928-0.262-0.19-0.524-0.381-0.786-0.547-1.4-0.905-3.19-1.55-4.12-2.81-0.952-1.26-1.17-3.14-1.5-4.81-0.333-1.52-1.09-2.62-2.29-3.57-2.31-1.88-3.95-4.05-3.81-7.36 0.0714-1.95-0.595-4.02-2.55-5.07-1.64-0.905-2.57-2.24-3-3.93-0.69-2.71-1.02-5.45 0.0952-8.16 0.452-1.12-0.0237-2.05-0.857-2.74-0.714-0.595-1.59-1.02-2.4-1.5-0.309-0.19-0.714-0.262-0.928-0.5-1.88-2.09-4.43-2.45-7.02-2.64-0.286-0.0208-0.562-0.024-0.826-0.0103zm-1.13 45c7.3e-4 3.2e-5 1e-3 4.76e-4 2e-3 4.76e-4 0.398 0.0124 0.716 0.321 0.838 0.907 0.13 0.636 0.424 1.09 0.816 1.46 0.0987 0.0933 0.205 0.182 0.314 0.267 0.257 0.201 0.54 0.388 0.843 0.578 4.02 2.57 3.62 3.93 1.38 7.19-0.928 1.3-2.14 2.09-3.62 2.5-0.248 0.07-0.5 0.13-0.762 0.18-1.5e-4 2.2e-5 -2.4e-4 -2.5e-5 -4.8e-4 0-0.262 0.0504-0.531 0.0919-0.807 0.125-0.189-0.0907-0.381-0.175-0.571-0.262-0.321-0.141-0.645-0.288-0.931-0.486-0.0374-0.0231-0.0794-0.0388-0.116-0.0633-1.4-1.02-2.78-2.07-4.12-3.19-0.148-0.119-0.218-0.348-0.259-0.59-0.0131-0.0709-0.0198-0.143-0.0244-0.213-7e-3 -0.0745-0.025-0.152-0.025-0.22 0-0.286 0.214-0.571 0.405-0.833 1.19-1.67 2.36-3.38 3.62-4.97 0.619-0.809 1.43-1.5 2.24-2.09 0.13-0.0964 0.255-0.16 0.378-0.208 0.0297-0.0122 0.0588-0.0231 0.0879-0.0326 0.0339-0.0103 0.0674-0.0213 0.1-0.0278 0.0705-0.0153 0.139-0.0224 0.206-0.0209 2e-3 6.6e-5 3e-3 -4.75e-4 6e-3 -4.75e-4zm615-45.2c-1.4-0.0952-3.02 0.833-4.26 2.76-1.02 1.62-2.21 3.17-3.36 4.74-0.524 0.69-1.26 0.881-2.14 1.02-1.48 0.262-2.95 0.714-4.33 1.33-0.476 0.214-0.809 1.12-0.881 1.74-0.119 1.02 0.0233 2.07 0.0947 3.09 0.0952 1.55-0.381 2.07-1.95 2.17-0.738 0.0476-1.5 0.0952-2.24 0.238-3.62 0.69-5.47 3.81-4.28 7 0.381 1 0.928 1.55 2.02 1.33 3.83-0.786 7.69-1.45 11.4-2.43 1.64-0.428 3.67 0.571 3.52 2.55-0.214 3.09-0.309 6.26 0.905 9.26 0.452 1.12 0.0238 1.52-1.05 1.81-2.9 0.809-5.45 2.21-7.5 4.55-3.07 3.52-5.78 7.21-7.16 11.8-0.19 0.595-0.476 1.17-0.786 1.71-0.5 0.928-1.26 1.79-1.57 2.78-0.476 1.5-0.738 3.07-0.905 4.64-0.0952 0.976 0.19 1.95 1.31 2.4 2.24 0.905 4.4 1.95 6.69 2.74 1.59 0.547 3.28 0.976 4.95 1.05 2.02 0.0952 3.98 0.333 5.93 0.952 0.619 0.19 1.71 2.4e-4 2.14-0.428 2.4-2.43 5.55-4.17 7.05-7.43 0.143-0.286 0.357-0.524 0.595-0.738 1.62-1.48 3.38-2.83 4.36-4.88 0.119-0.238 0.452-0.452 0.714-0.595 0.19-0.0952 0.524-0.119 0.643-0.0238 1.14 1.07 2.5 1.93 2.98 3.59 0.595 2.12 1.33 4.21 2.09 6.28 0.952 2.64 3.14 2.52 5.05 1.17 0.809-0.595 1.57-1.26 2.45-1.69 0.619-0.309 1.5-0.524 2.09-0.333 1.55 0.5 2.69 0 3.76-1 1.33-1.29 2.48-2.62 3.4-4.31 1.02-1.88 2.81-3.38 4.31-5 0.547-0.595 1.5-0.928 1.86-1.59 1.24-2.31 1.69-4.86 1.79-7.43 0.0477-0.809-0.452-1.29-1.43-1.02-1.29 0.357-2.62 0.571-3.9 0.976-1.29 0.405-2.4 0.143-3.5-0.524-1.19-0.762-2.36-1.62-3.64-2.21-1.59-0.762-2.55-1.86-2.78-3.62-0.119-0.881-0.547-1.74-0.714-2.62-0.309-1.67-1.17-2.93-2.5-3.98-2.31-1.79-3.74-3.98-3.69-7.16 0.0477-2.33-0.881-4.48-3.28-5.64-0.69-0.333-1.26-1.14-1.59-1.86-1.33-2.88-1.74-5.9-0.809-9 0.619-2.09 0.309-3.05-1.62-4.21-0.738-0.452-1.71-0.619-2.29-1.21-2-2.07-4.52-2.48-7.97-2.71zm-1.1 44.8c0.383-0.0027 0.716 0.259 0.835 0.809 0.0103 0.054 0.0226 0.105 0.0348 0.157 0.0118 0.0504 0.0253 0.099 0.0391 0.147 0.185 0.636 0.545 1.08 0.997 1.45 0.314 0.259 0.671 0.483 1.05 0.716 1.91 1.17 2.86 2.25 2.88 3.55 1.1e-4 5e-3 -8e-5 0.0103 0 0.0152 0 0.122-7e-3 0.245-0.0224 0.371-7e-3 0.0507-0.0154 0.103-0.0243 0.154-0.0103 0.0616-0.0236 0.124-0.0382 0.186-0.129 0.571-0.433 1.19-0.883 1.88-0.0938 0.142-0.2 0.288-0.307 0.436-0.108 0.149-0.191 0.288-0.312 0.443-0.0879 0.113-0.196 0.218-0.293 0.328-0.721 0.812-1.67 1.52-2.64 1.96-1.59 0.738-3.21 0.762-4.64-0.738-0.509-0.519-1.08-0.983-1.68-1.44-0.719-0.538-1.48-1.07-2.25-1.68 0.113-0.226 0.229-0.49 0.359-0.759 0.115-0.243 0.24-0.488 0.402-0.716 1.07-1.55 2.14-3.12 3.33-4.59 0.714-0.881 1.57-1.67 2.45-2.38 0.232-0.188 0.481-0.283 0.712-0.286zm-706-66.4c-0.714-1.71-0.547-3.05 0.547-4.19 2.05-2.12 3.38-4.86 5.81-6.69 0.905-0.666 1.33-1.93 2.05-2.88 1.36-1.79 3.07-3.07 5.4-3.33 0.143-0.0238 0.381-0.0238 0.452-0.119 1.24-1.55 2.93-1.05 4.52-1.02 1.09 0 2.21-0.0238 3.31-0.0714 2.07-0.119 3.48 0.786 4.38 2.62 0.952 1.93 1.17 3.93 0.666 6-0.0477 0.238-0.214 0.5-0.143 0.69 0.905 2.14-0.0238 4.21-0.19 6.31-0.0477 0.5 0.119 1.12 0.381 1.55 1.55 2.59 2.36 5.36 2.19 8.35-0.0477 0.881-0.143 1.95-0.643 2.55-1.55 1.83-1.45 3.9-1 5.95 0.428 2.02 1.19 4 1.74 6 0.19 0.714 0.19 1.48 0.309 2.19 0.214 1.67 0.452 3.31 0.714 5.31 0.69-0.452 1.05-0.666 1.36-0.905l10.9-8.78c1.19-0.952 2.43-1.9 3.62-2.86 1.36-1.09 2.93-0.666 4.45-0.619 1.45 0.0476 2.9 0.0952 4.33-0.0714 1.57-0.167 2.78 0.405 3.09 2.19 0.405 2.29 1.64 4 3.09 5.64 0.952 1.07 1.26 2.33 0.881 3.62-0.619 2.05-0.5 3.9 0.666 5.74 0.809 1.29 0.833 2.69 0.309 4.09-0.119 0.286-0.19 0.595-0.286 0.905-0.738 2.4-1.83 4.71-1.55 7.36 0.0714 0.762-0.309 1.62-0.595 2.4-1.29 3.36-1.17 6.78-0.786 10.3 0.262 2.4-0.595 4.64-1.81 6.74-0.0714 0.143-0.19 0.286-0.333 0.333-1.9 0.571-2.29 2.31-2.83 3.81-0.976 2.67-2.19 5.26-2.21 8.19 0 0.643-0.0477 1.29 0.0714 1.88 0.238 1.31-0.286 2.19-1.48 2.57-1.55 0.524-2.09 1.62-2.21 3.12-0.143 1.57-0.547 3.14-0.5 4.71 0.0477 1.88-0.809 3.26-1.93 4.57-1.02 1.19-1.09 2.57-0.881 4.02 0.143 0.905 0.428 1.76 0.595 2.67 0.214 1.33-0.119 1.98-1.4 2.33-1.02 0.286-2.09 0.5-3.14 0.452-1.55-0.0477-2.48 0.666-3.05 1.98-0.262 0.619-0.5 1.24-0.69 1.88-0.452 1.59-3.02 2.98-4.62 2.5-0.69-0.214-1.02-0.524-0.952-1.33 0.119-1.43 0.0714-2.86 0.119-4.28 0.0715-2.26 2.14-5.05 4.26-5.74 0.905-0.286 1.57-1.48 1.5-2.59-0.143-1.9-0.167-3.81-0.428-5.69-0.357-2.64 0.714-4.64 2.64-6.26 0.952-0.786 1.33-1.86 1.14-2.95-0.5-2.88 0.0477-5.52 1.4-8.02 0.762-1.4 1.02-2.74 0.357-4.28-1.07-2.45-0.738-5.09-0.405-7.62 0.381-3.07 0.214-6.05-0.405-9.05-0.143-0.714 0.119-1.52 0.286-2.26 0.214-0.952 0.595-1.88 0.738-2.83 0.0714-0.428-0.309-0.905-0.428-1.38-0.405-1.64-0.928-3.26-1.17-4.93-0.214-1.45-0.571-2.98 0.119-4.45 0.0952-0.238-0.19-0.928-0.452-1.02-1.79-0.595-3.59-1.19-5.45-1.57-0.476-0.0952-1.26 0.333-1.64 0.738-1.14 1.24-2.33 2.52-3.19 3.95-0.857 1.45-2.02 2.48-3.5 3.05-2.71 1.05-3.19 3.24-3.26 5.67-0.0238 0.905 0.0477 1.83 0.214 2.71 0.524 2.62-0.381 5-1.09 7.4-0.405 1.4-0.405 2.69 0 4.07 0.786 2.64 0.476 3.62-1.9 5.05-1.05 0.619-1.12 1.33-0.738 2.24 0.357 0.833 0.809 1.64 1.31 2.38 0.619 0.905 0.619 1.71 0 2.62-1.88 2.78-3.67 5.67-4.31 9.02-0.119 0.643 0 1.38 0.167 2.05 0.143 0.595 0.476 1.17 0.714 1.76 0.857 2.17 0.524 3.4-1.43 5.31-1.52 1.5-3.5 1.9-5.36 1.12-1.71-0.738-2.36-2.29-1.29-3.78 1.43-2 1.71-3.95 0.571-6.14-1.21-2.36-0.881-4.69 0.0714-7.07 0.405-1 0.286-2.21 0.69-3.21 0.809-2 1.38-3.86 0.69-6.09-0.357-1.12 0.214-2.5 0.309-3.76 0.167-2.4 0.309-4.81 0.428-7.19 0-0.143-0.0238-0.333-0.0952-0.452-1.31-1.71-1.02-3.48-0.309-5.36 0.381-1 0.286-2.17 0.381-3.26 0.262-3.19 0.381-6.4 0.833-9.57 0.595-4.26 0.809-8.4-1.21-12.4-0.262-0.5-0.0238-1.4 0.286-2 0.714-1.4 1.64-2.71 2.38-4.09 0.214-0.381 0.238-1 0.0952-1.4-0.309-0.857-0.833-1.62-1.19-2.45-0.643-1.48-1.38-2.93-1.79-4.45-0.238-0.881 0.119-1.93 0.238-2.9 0.19-1.48 0.571-2.95 0.595-4.45 0.0238-1.79-0.786-2.64-2.52-3.07-1.38-0.333-2.76-0.547-4.14-0.905-1.67-0.428-3.19 0.0476-4.74 0.571-0.905 0.333-1.81 0.452-2.74 0.643zm117 124c0.786-2.69 2.62-2.48 4.71-1.86 1.38 0.428 2.86 0.619 4.28 0.928 1.43 0.309 2.83 0.619 4.31 0.119 0.524-0.167 1.29 0 1.83 0.238 1.62 0.714 3.17 1.62 4.78 2.33 0.809 0.357 1.74 0.69 2.59 0.666 2.38-0.0477 4.62 0.333 6.76 1.45 0.619 0.333 1.64 0.143 2.38-0.0952 2.71-0.833 5.19-2.09 7.21-4.17 0.69-0.69 1.43-1.45 2.31-1.83 3.05-1.31 4.95-4.12 7.78-5.69 0.286-0.167 0.452-0.619 0.619-0.976 1.02-2.38 2.64-4.21 4.97-5.36 1.93-0.928 3-2.33 2.76-4.62-0.286-2.88-0.476-5.76-0.643-8.64-0.0477-0.928 0-1.9 0.214-2.81 0.452-1.93-0.214-3.45-1.69-4.48-1.55-1.07-2.59-2.48-3.69-3.93-2.88-3.86-6.33-7.24-10.7-9.31-4.9-2.33-8.76-5.93-12.8-9.31-0.857-0.714-1.76-1.33-2.64-2.05-1.5-1.21-3.09-1.74-5.07-1.12-0.524 0.167-1.52-0.143-1.88-0.571-1.17-1.38-2.29-2.83-3.14-4.4-0.595-1.09-1.36-1.83-2.48-2.21-0.881-0.309-1.81-0.619-2.74-0.738-1.4-0.143-2.5-0.786-3.02-2-0.976-2.14-1.76-4.38-2.57-6.59-0.119-0.333 0.0477-0.762 0.0952-1.14 0.19-1.19 0.381-2.38 0.547-3.57 0.0714-0.428 0-0.905 0.19-1.26 1.88-3.45 3.38-7.14 6.14-10.1 0.5-0.524 0.881-1.21 1.21-1.88 0.809-1.55 2.07-2.38 3.76-2.57 4.4-0.476 8.57-1.76 12.6-3.48 0.833-0.357 1.83-0.595 2.71-0.547 1.59 0.119 3.17 0.5 4.76 0.738 0.405 0.0476 0.857 0 1.24-0.143 1.81-0.666 3.69-1.24 5.4-2.12 2.21-1.14 4.26-0.833 6.17 0.405 1.21 0.786 2.21 0.786 3.17-0.119 1.69-1.57 3.86-1.21 5.81-1.67 1.71-0.405 3.38-0.452 5.14-0.333 2.07 0.167 4.19-0.0714 6.28-0.19 0.857-0.0476 1.12 0.238 1.12 1.07-0.0238 2.17-1.24 3.78-3.78 4.38-1.4 0.333-2.24 0.952-2.64 2.26-0.357 1.14-1.26 2.02-1.02 3.43 0.405 2.21-0.286 4.33-1.76 5.95-0.952 1.05-2.4 1.71-3.74 2.36-1.59 0.762-3.28 1.38-4.95 1.95-1.24 0.428-1.71 0.119-2.07-1.17-0.19-0.69-0.357-1.38-0.452-2.07-0.619-3.88-3-6.21-6.93-6.62-2.29-0.238-4.5-0.69-6.69-1.43-1-0.333-2.29 0.214-3.45 0.262-2.4 0.0952-4.81 0.238-7.21 0.19-1.98-0.0476-4.57 1.88-4.76 3.9-0.19 2.29-0.333 3.71 2.59 5.05 1.43 0.643 2.67 1.83 3.86 2.93 1.4 1.29 2.81 2.59 3.95 4.12 1.95 2.64 4.55 3.98 7.71 4.36 0.762 0.0952 1.05 0.381 1.21 1.12 0.238 1.14 0.643 2.29 1 3.4 0.595 1.79 0.786 2.19 2.57 1.9 3.12-0.524 5.57 1.12 8.24 2.02 0.381 0.143 0.762 0.405 1.07 0.714 0.952 0.952 1.88 1.93 2.81 2.9 0.881 0.952 1.64 1.83 1.74 3.33 0.143 2.14 1.38 3.19 3.52 3.55 0.905 0.143 1.43 0.547 1.95 1.26 1.17 1.59 2.45 3.12 3.76 4.59 2.33 2.62 3.9 5.67 5.24 8.83 0.119 0.286 0.0952 0.619 0.119 0.928 0.143 1.74 0.309 3.45 0.452 5.19v0.357c-0.0714 1.71 0.0477 3.5-0.262 5.17-0.619 3.21-1.24 6.64-3.4 9.12-1.64 1.86-1.67 3.69-1.48 5.76 0.0952 0.881-0.0952 1.31-0.905 1.71-2.67 1.36-4.76 3.33-6.33 5.93-2.48 4.12-6.17 6.57-10.9 7.55-2.67 0.547-5.31 1.26-7.88 2.09-2.09 0.666-4.07 1.64-6.12 2.48-3.07 1.26-6.19 1.45-9.33 0.357-1.57-0.547-3.05-0.357-4.57 0.286-1.59 0.666-3.28 1.14-4.97 1.45-0.857 0.167-1.98 0.0952-2.69-0.357-3.98-2.38-8.38-2.95-12.8-3.33-1.02-0.0952-2.07-0.0238-3.07 0.167-0.952 0.167-1.64-0.167-2.4-0.643-2.26-1.48-4.55-2.9-6.86-4.26-0.857-0.5-1.93-0.69-2.81-1.19-1.02-0.619-2-1.38-2.9-2.19-1.33-1.21-2.59-2.5-3.9-3.76-0.881-0.857-1.83-1.64-2.67-2.55-2.12-2.33-2.05-4.78 0.0952-7.02 0.309-0.309 0.643-0.595 0.928-0.928 0.928-1.09 1.83-1.67 3.28-0.643 0.524 0.357 1.57 0.0714 2.36-0.0714 1.38-0.238 1.67-0.0952 1.62 1.31-0.0238 0.666-0.143 1.33-0.309 1.98-0.452 1.79 0.0715 3.36 1.29 4.59 1.24 1.26 2.71 2.29 4.09 3.4 0.167 0.143 0.428 0.214 0.643 0.238 2.38 0.167 3.5 1.71 4.24 3.74 0.167 0.452 0.381 1.05 0.738 1.29 1.29 0.762 2.62 1.43 4.12 2.26zm884-0.238c0.809-2.83 2.81-2.4 4.9-1.81 1.26 0.357 2.55 0.5 3.83 0.809 1.55 0.357 3.05 0.69 4.64 0.19 0.524-0.167 1.29 0.0238 1.83 0.286 1.59 0.714 3.09 1.59 4.69 2.29 0.857 0.381 1.81 0.69 2.71 0.69 2.36-0.0477 4.52 0.357 6.64 1.45 0.643 0.333 1.71 0.143 2.5-0.0952 2.71-0.809 5.17-2.12 7.19-4.19 0.619-0.643 1.31-1.36 2.12-1.69 3.09-1.31 5.02-4.14 7.88-5.76 0.333-0.19 0.524-0.69 0.69-1.07 1.02-2.33 2.59-4.14 4.9-5.26 1.98-0.952 3.07-2.36 2.81-4.71-0.31-2.88-0.5-5.76-0.643-8.64-0.048-0.905 0-1.83 0.214-2.71 0.476-1.98-0.214-3.52-1.74-4.57-1.52-1.05-2.55-2.43-3.59-3.86-2.81-3.76-6.12-7.12-10.4-9.14-5.38-2.57-9.57-6.57-14.1-10.2-0.667-0.547-1.4-1.02-2.09-1.57-1.33-1.02-2.78-1.52-4.43-0.881-0.976 0.381-1.79 0.0476-2.36-0.643-1.07-1.36-2.14-2.74-2.95-4.26-0.619-1.14-1.4-1.88-2.57-2.29-0.905-0.309-1.81-0.619-2.74-0.714-1.4-0.167-2.45-0.833-3-2.05-0.952-2.12-1.74-4.31-2.52-6.5-0.143-0.381 0.096-0.905 0.167-1.36 0.167-1 0.31-2 0.5-3 0.19-0.857 0.31-1.76 0.69-2.55 1.05-2.09 2.14-4.21 3.38-6.21 1.19-1.9 2.57-3.69 3.86-5.55 0.809-1.17 1.95-1.74 3.28-1.88 4.45-0.476 8.64-1.76 12.7-3.52 0.762-0.333 1.67-0.571 2.5-0.5 1.67 0.143 3.33 0.524 5 0.786 0.357 0.0476 0.786-0.0238 1.12-0.167 1.81-0.666 3.69-1.24 5.4-2.12 2.31-1.19 4.38-0.786 6.38 0.5 1.05 0.666 1.88 0.643 2.79-0.0476 1.5-1.14 3.17-1.67 5.07-1.64 0.857 0.0238 1.69-0.333 2.55-0.5 0.452-0.0952 0.928-0.167 1.4-0.167 2.76-0.0238 5.52 0.0476 8.28-0.0476 1.05-0.0238 1.33 0.286 1.26 1.26-0.143 2.12-1.33 3.64-3.86 4.21-1.43 0.309-2.09 1.05-2.62 2.31-0.595 1.38-1.12 2.67-0.928 4.28 0.214 1.86-0.619 3.55-1.69 5.07-0.19 0.286-0.476 0.571-0.786 0.714-2.64 1.21-5.26 2.45-7.95 3.55-1.31 0.524-1.74 0.19-2.12-1.21-0.167-0.643-0.333-1.31-0.452-1.98-0.69-4.02-3.07-6.31-7.14-6.69-2.17-0.19-4.26-0.666-6.33-1.36-1.07-0.357-2.45 0.19-3.69 0.238-2.36 0.0952-4.74 0.238-7.09 0.167-1.9-0.0476-4.57 1.79-4.78 3.74-0.262 2.36-0.357 3.86 2.52 5.19 1.59 0.738 2.98 2.09 4.31 3.33 1.55 1.43 3.02 2.93 4.33 4.59 1.59 2.02 3.69 2.98 6.09 3.33 1.33 0.19 2.14 0.619 2.29 2.07 0.096 0.857 0.452 1.67 0.714 2.5 0.619 1.9 1.05 2.38 3.07 2.07 1.95-0.309 3.5 0.476 5.24 0.952 3.55 0.928 5.5 3.71 7.74 6.17 0.238 0.262 0.286 0.714 0.309 1.09 0.167 2.52 1.29 3.9 3.74 4.31 0.857 0.143 1.36 0.547 1.86 1.21 1.19 1.57 2.45 3.12 3.76 4.59 2.36 2.64 3.93 5.74 5.31 8.95 0.143 0.333 0.071 0.786 0.096 1.17 0.143 1.62 0.286 3.21 0.428 4.83 0.024 0.238-0.048 0.452-0.071 0.69-0.071 1.52-0.119 3.07-0.167 4.59 0 0.167 0.071 0.333 0.024 0.476-1.07 2.95-1.93 6.02-3.36 8.81-0.571 1.12-1.64 2.05-1.71 3.45-0.048 0.905 0.024 1.83 0.19 2.71 0.119 0.69-0.119 1-0.69 1.29-2.83 1.43-5.02 3.5-6.69 6.21-2.48 4.07-6.16 6.43-10.9 7.4-2.78 0.571-5.69 1.02-8.19 2.26-2.81 1.4-5.76 2.12-8.64 3.14-1.86 0.666-3.57 0-5.33-0.286-0.119-0.0238-0.214-0.0714-0.333-0.119-2-0.571-3.88-0.571-5.83 0.357-1.36 0.667-2.95 0.857-4.4 1.31-1.07 0.333-2 0.0952-2.95-0.452-4.95-2.81-10.3-3.48-15.9-3.17-0.643 0.0238-1.4-0.167-1.95-0.5-2.24-1.33-4.4-2.81-6.66-4.12-1.05-0.619-2.29-0.881-3.31-1.5-1-0.595-1.93-1.33-2.81-2.12-1.38-1.24-2.67-2.57-4-3.86-0.881-0.857-1.83-1.64-2.64-2.57-2.05-2.29-1.98-4.74 0.119-6.93 0.381-0.405 0.833-0.762 1.19-1.17 0.857-0.976 1.62-1.38 2.9-0.5 0.571 0.381 1.67 0.143 2.48 0 1.43-0.238 1.74-0.0714 1.67 1.36-0.024 0.666-0.167 1.33-0.333 1.98-0.428 1.64 0.023 3.17 1.12 4.31 1.31 1.36 2.86 2.45 4.33 3.67 0.143 0.119 0.357 0.19 0.547 0.19 2.38 0.119 3.52 1.69 4.26 3.71 0.167 0.452 0.357 1.07 0.714 1.29 1.21 0.786 2.55 1.45 4.09 2.31zm-670-106c1.24 1.38 2.17 2.55 3.21 3.59 1.52 1.48 3.12 2.81 4.26 4.71 1.02 1.71 2.45 3.21 3.86 4.67 1.55 1.57 3.24 3 4.95 4.4 0.833 0.69 1.19 1.4 1.05 2.45-0.5 3.71 0.643 5.86 3.93 7.74 0.976 0.571 1.95 1.24 2.74 2.05 1.14 1.14 1.52 2.57 0.809 4.14-0.143 0.286-0.238 0.595-0.357 0.881-0.714 2-0.595 2.5 1.19 3.76 1.38 0.976 2.81 1.88 4.38 2.93 0.214-0.238 0.619-0.547 0.833-0.976 0.571-1.12 1.52-1.71 2.62-2.26 1.71-0.881 3.38-1.9 5-2.95 1.17-0.762 1.98-1.83 2.62-3.14 0.5-1.02 1.52-1.79 2.38-2.59 0.762-0.738 1.17-1.4 0.976-2.64-0.476-3.26 1.26-5.69 4.57-7.07 0.714-0.309 1.38-1 1.81-1.67 0.595-0.952 0.238-1.57-0.881-1.52-0.976 0.0476-1.93 0.357-2.88 0.595-1.95 0.524-3.88 1.09-5.88 0.167-0.286-0.119-0.833 0.0952-1.14 0.309-0.714 0.571-1.4 1.19-2 1.88-0.643 0.738-1.4 0.905-2.31 0.833-2.98-0.262-5.07-2.31-5.28-5.26-0.0238-0.405 0.143-0.857 0.357-1.19 0.5-0.762 1.07-1.48 1.64-2.19 1.57-1.98 3.33-3.78 4.5-6.09 0.928-1.83 2.55-3.05 4.38-4.07 0.881-0.5 1.57-1.38 2.26-2.19 0.905-1.05 1.9-1.12 3.09-0.666 2.55 0.976 5.05 2.07 7.66 2.83 1.38 0.405 2.95 0.262 4.43 0.357 0.738 0.0476 1.5 0.0238 2.24 0.119 1.74 0.238 2.9-0.595 3.69-2.02 0.381-0.69 0.881-1.02 1.67-1.09 1.45-0.119 2.9-0.357 4.36-0.452 2.07-0.119 3.31 1.29 4.48 2.71 0.119 0.167 0.0238 0.619-0.119 0.881-0.428 0.786-1.09 1.45-1.31 2.29-0.333 1.21-0.333 2.5-0.571 3.74-0.0952 0.476-0.333 1.07-0.714 1.36-1.17 0.881-2.36 1.76-3.67 2.43-2.64 1.4-4.48 3.62-6.31 5.86-0.286 0.357-0.428 0.928-0.476 1.4-0.214 2.67-1.24 4.67-3.95 5.62-1.71 0.595-3.02 1.71-3.33 3.69-0.0477 0.309-0.333 0.619-0.571 0.833-0.357 0.333-0.738 0.595-1.14 0.857-1.59 0.952-2.52 1.98-1.57 4.07 0.69 1.57 0.0715 2.52-1.48 3.45-0.405 0.238-0.833 0.5-1.26 0.643-1.83 0.571-2.21 2.07-2.38 3.69-0.0477 0.5-0.0715 1.05 0.0714 1.55 0.5 1.83-0.309 3.14-1.86 3.78-2.45 1-3.26 3.09-3.88 5.31-0.357 1.29-1.09 2.07-2.24 2.52-1.21 0.476-2.43 1-3.67 1.33-1 0.286-1.38 0.857-1.26 1.81 0.238 2 0.357 4.02 0.833 5.97 0.405 1.74 0.262 3.36-0.262 5-1.07 3.36-2.83 6.36-4.83 9.21-0.976 1.4-1.17 2.76-0.786 4.36 0.928 3.86-0.452 7.28-2.21 10.6-0.119 0.214-0.262 0.381-0.405 0.595-0.786 1.24-1.12 2.29-0.143 3.81 1.62 2.52 1.95 5.38 0.881 8.31-0.143 0.357-0.333 0.786-0.286 1.14 0.309 2.33 0.714 4.67 1 7.02 0.214 1.71 0.309 3.43 0.452 5.14 0.0477 0.619 0.238 1.24 0.238 1.83 0 1.05 0.19 2.21-0.214 3.12-0.976 2.24-2.24 4.36-3.4 6.5-0.214 0.381-0.5 0.738-0.619 1.14-0.333 1.05-0.762 1.98-2.07 1.86-1.55-0.119-2.81-1.02-2.9-2.33-0.0952-1.07 0.143-2.19 0.333-3.26 0.167-0.928 0.143-1.71-0.286-2.62-0.333-0.714-0.405-1.67-0.262-2.48 0.5-3.09 0.119-5.86-2.24-8.21-0.381-0.381-0.333-1.48-0.143-2.14 0.571-2.09 1.38-4.12 1.98-6.19 0.167-0.547 0.167-1.36-0.119-1.81-1.5-2.29-1.67-4.62-0.714-7.16 0.238-0.619 0.119-1.62-0.238-2.21-1.52-2.59-1.31-4.95 0.428-7.38 1.93-2.69 1.4-8.81-0.738-11.3-0.5-0.595-1.62-0.643-1.57-1.71 0.0238-0.881-0.0714-1.81 0.119-2.67 0.452-2.09 0.952-4.17 1.55-6.19 0.357-1.24 0.119-2.21-0.619-3.21-0.928-1.24-1.86-2.36-2.12-4.09-0.452-2.98-1.52-5.88-2.38-8.78-0.167-0.547-0.524-1.02-0.833-1.52-0.952-1.64-2.12-3.19-2.86-4.9-1.26-2.88-3.36-4.93-5.83-6.71-2.48-1.79-4.52-3.98-6.12-6.57-0.619-1-0.952-2.14-1.4-3.24-0.381-0.952-0.69-1.93-1.14-2.86-1.14-2.29-1.93-2.64-4.43-2.07-1.55 0.357-3.07 0.738-4.57 1.19-1.31 0.405-2.43 1.07-3.52 2-1.24 1.05-2.95 1.67-4.57 2.05-1.76 0.405-2.76-0.762-2.48-2.55 0.214-1.4 0.381-2.83 0.809-4.17 0.238-0.762 0.976-1.36 1.48-2.02 0.214-0.262 0.452-0.524 0.619-0.809 2.55-4.62 6.43-7.9 10.8-10.7 0.309-0.19 0.738-0.262 1.12-0.286 3.19-0.286 5.52-1.95 7.36-4.48 0.905-1.5 2.4-2.26 3.86-2.4zm211 24.3c-1.88-1.5-2.26-3.67-2.9-5.69-0.405-1.29-1.48-2.36-2.76-2.14-3.45 0.595-6.76-0.381-10.1-0.452-1.81-0.0476-3.62 0.167-5.43 0.381-1.83 0.214-3.59 0.309-5.38-0.428-0.762-0.309-1.69-0.452-2.52-0.428-2.09 0.0714-4.19 0.381-6.28 0.405-1.17 0-2.36-0.238-3.48-0.619-2.33-0.809-4.26-0.19-6.02 1.33-0.762 0.643-1.55 1.12-2.62 1.21-1.31 0.143-2.62 0.547-3.9 0.857-0.119 0.0238-0.238 0.143-0.333 0.119-1.74-0.357-2.88 0.809-4.17 1.62-0.476 0.286-0.952 0.619-1.48 0.762-2.12 0.547-3.64 1.9-5.12 3.43-1.21 1.26-2.52 2.43-3.9 3.5-2.95 2.29-4.95 5.31-6.71 8.52-0.19 0.333-0.405 0.69-0.714 0.881-1.48 0.952-2.52 3.62-1.95 5.31 0.786 2.4 1.69 4.76 2.38 7.19 0.333 1.19 0.5 2.5 0.357 3.69-0.333 3 0.666 5.26 3.17 6.9 0.428 0.286 0.857 0.69 1.12 1.14 0.857 1.38 1.9 2.36 3.62 2.59 0.952 0.119 1.98 0.452 2.74 1 0.714 0.5 1.33 1.36 1.64 2.17 0.786 2.09 1.59 3.95 4.05 4.71 1.5 0.452 2.24 1.9 2.78 3.36 0.214 0.524 0.619 1.21 1.09 1.38 3.55 1.26 6.81 3.02 9.76 5.38 1.83 1.48 4 0.857 6.07 0.69 0.643-0.0477 1.33 0.0477 1.9 0.309 3.02 1.38 6.09 2.52 9.31 3.43 1.74 0.476 3.19 0.119 4.78 0.167 2.09 0.0952 4.17 0.476 6.24 0.714 0.309 0.0477 0.643 0.143 0.928 0.0477 1.71-0.619 3.48-0.571 5.26-0.428 1.02 0.0714 2.12-0.0952 3.12-0.405 2.09-0.666 4.07-0.357 6 0.428 1.07 0.428 1.9 0.214 2.74-0.452 0.905-0.714 1.9-1.33 2.67-2.19 1.29-1.43 2.88-1.79 4.67-1.86 1.29-0.0477 2.55 0 3.83 0.19 1.71 0.238 3.5-0.0714 5.26-0.214 2.21-0.19 4.4-0.547 6.62-0.69 0.643-0.0477 1.5 0.262 1.93 0.714 0.643 0.666 0.595 1.69 0.0238 2.43-0.5 0.643-1.17 1.24-1.88 1.55-1.14 0.5-2.43 0.69-3.62 1.07-1.5 0.476-3.07 0.809-4.43 1.55-1.95 1.05-3.83 2.29-5.52 3.69-1.83 1.5-3.93 1.93-6.14 2.14-0.238 0.0238-0.476 0.0477-0.714 0.0477-1.81 0.0952-3.5 0.452-5.12 1.45-2.09 1.29-4.5 0.976-6.83 0.547-0.405-0.0715-0.905-0.0952-1.24 0.0952-2.29 1.26-4.69 1.93-7.31 2.17-1.74 0.167-3.55 0.666-5.07 1.48-2.12 1.12-4.21 1.21-6.28 0.5-4.43-1.5-9.05-1.43-13.6-1.93-1.5-0.167-3.07 0.214-4.59 0.405-2.55 0.357-4.57-0.666-6.31-2.38-0.714-0.714-1.33-0.881-2.14-0.262-0.857 0.643-1.76 0.547-2.67 0.0238-1.09-0.619-2.26-1.17-3.26-1.93-1.02-0.762-2.07-1-3.31-0.976-1.33 0.0477-2.69-0.119-4.05-0.119-0.524 0-1.09 0.143-1.59 0.333-2.86 1.12-7.55-0.262-9.21-2.86-0.714-1.09-1.05-2.45-1.83-3.5-1.12-1.52-2.55-2.69-4.57-2.93-0.333-0.0477-0.69-0.357-0.952-0.619-1.09-1.02-2.21-2.05-3.26-3.14-1.48-1.5-3-2.74-5.12-3.4-3.19-1-4.43-3.4-3.95-6.76 0.286-1.95 0.333-3.86-0.69-5.64-0.833-1.45-0.476-3.02-0.119-4.4 0.69-2.67 0.381-5.21-0.19-7.81-0.309-1.38-0.571-2.78-0.857-4.17-0.143-0.714 0.0238-1.26 0.428-1.93 0.905-1.48 1.76-3.02 2.26-4.67 0.714-2.36 2.12-4.14 3.88-5.71 1.12-1 1.95-2.12 2.59-3.45 1.14-2.38 2.62-4.57 4.81-6.09 1.17-0.809 2.59-1.24 3.88-1.9 0.857-0.452 1.69-0.976 2.5-1.55 0.762-0.547 1.43-1.21 2.21-1.74 3.57-2.33 7.16-4.64 10.8-6.93 0.428-0.262 1.07-0.5 1.52-0.405 1.71 0.405 3.14-0.167 4.4-1.19 0.976-0.786 2.02-1.62 2.69-2.67 1.4-2.19 3.5-3.02 5.83-3.33 2.31-0.286 4.64-0.476 6.95-0.452 1.26 0 2.17-0.452 2.93-1.26 1.26-1.33 2.57-1.76 4.31-0.881 0.547 0.262 1.36 0.286 1.95 0.119 2.05-0.571 4.05-1.29 6.07-1.95 0.666-0.214 1.33-0.547 2-0.714 1.52-0.381 3.02-0.738 4.24-1.9 0.666-0.643 1.59-0.69 2.55-0.381 1.57 0.476 3.21 0.857 4.83 1.17 0.833 0.167 1.71 0.0476 2.57 0.0714 1.29 0.0238 2.57 0.0476 3.86 0.0476 0.738 0 1.55 0.167 2.21-0.0714 1.43-0.5 2.69-0.19 3.62 0.762 2.67 2.74 5.83 2.33 9.09 1.79 1.36-0.238 2.71-0.595 4.07-0.786 0.5-0.0714 1.12 0.0476 1.52 0.333 1.12 0.762 2.12 1.02 3.36 0.167 1.05-0.714 2.29-0.905 3.52-0.452 1 0.357 1.17 1.29 0.381 1.98-1.83 1.62-3.67 3.26-5.52 4.88-0.19 0.167-0.452 0.333-0.714 0.357-1.4 0.143-2.26 1-2.67 2.21-0.428 1.21-0.809 2.52-0.857 3.78-0.119 4.26-1.17 8.33-2.88 12.1-0.786 1.74-2.55 3.07-4.05 4.4-0.762 0.69-2.26 0.0476-2.93-1.05-1.38-2.21-1.43-4.55-0.571-6.95 0.262-0.286 0.405-0.595 0.547-0.976zm-578-23.7c-1.31 0.0238-1.79 1.4-2.38 2.43-0.0238 0.0476-0.119 0.0714-0.214 0.119-1.19-0.738-2.36-1.59-3.62-2.21-0.595-0.286-1.5-0.428-2.09-0.19-1.69 0.643-3.31 1.52-4.95 2.29-0.428 0.19-0.881 0.333-1.33 0.405-0.762 0.119-1.57 0.0719-2.31 0.262-2.67 0.69-5.38 1.12-7.86 2.5-1.24 0.666-2.78 0.905-4.21 1.07-2.86 0.333-5.47 1.17-7.88 2.74-0.476 0.309-1.21 0.309-1.83 0.357-0.786 0.0476-1.64-0.238-2.31 0.0237-1.81 0.738-3.5 0.5-5.21-0.238-0.214-0.0952-0.476-0.191-0.69-0.167-0.952 0.0952-1.98 0.0714-2.83 0.452-0.405 0.167-0.5 1.09-0.69 1.71-0.309 1.09-0.905 2.05-2.05 2.24-1.74 0.309-3.21 1.21-4.83 1.81-2.81 1.05-5.71 1.79-8.21 3.71-1.59 1.21-3 2.4-3.86 4.21-0.19 0.405-0.619 0.738-1.02 1-1.95 1.26-4.05 2.33-5.88 3.74-2.29 1.76-4.09 4.05-5.26 6.66-0.762 1.67-1.31 3.45-2.78 4.57-2.05 1.55-3.07 3.57-3.76 5.95-0.381 1.31-1.21 2.5-1.83 3.76 0 1.02 0 2.07 0.0243 3.12 0.333 1.52 0.976 3.07 0.881 4.57-0.143 2.69 0.405 5.26 0.571 7.9 0.0112 0.186-0.0209 0.376-0.0243 0.564-0.00405 0.207-0.0107 0.414-0.0269 0.621-0.0612 0.805-0.163 1.61-0.211 2.4-0.0238 0.571-0.119 1.19 0.0712 1.69 0.595 1.62 1.31 3.21 1.98 4.81 0.631 1.53 1.53 2.83 2.55 4.07 1.02 1.21 2.15 2.34 3.26 3.52 0.049 0.051 0.0974 0.1 0.146 0.152 0.371 0.386 0.752 0.75 1.14 1.1 0.436 0.386 0.883 0.743 1.34 1.09 0.771 0.581 1.57 1.11 2.4 1.6 1.77 1.06 3.64 1.95 5.55 2.86 0.283 0.141 0.524 0.39 0.738 0.65 0.0466 0.054 0.1 0.108 0.144 0.16 1.04 1.24 2.3 2.18 3.69 2.95 0.467 0.255 0.952 0.493 1.45 0.719 2.26 1.02 4.43 2.31 6.59 3.52 0.976 0.547 1.9 0.738 2.93 0.286 2.29-1 4.59-0.333 6.9-0.166 0.159 0.0119 0.328 0.0891 0.486 0.192 0.112 0.0691 0.198 0.161 0.286 0.252 0.0257 0.0274 0.0657 0.0511 0.0873 0.0781 0.0041 6e-3 0.0088 9e-3 0.0132 0.0139 0.0026 3e-3 0.0082 7e-3 0.0106 0.0103 0.314 0.393 0.645 0.745 0.99 1.06 2.45 2.24 5.59 2.57 8.85 2.37 0.905-0.0714 1.76-0.833 2.59-1.33 1.17-0.714 2.36-0.833 3.64-0.381 0.214 0.0715 0.476 0.119 0.666 0.214 0.102 0.049 0.204 0.0871 0.307 0.133 0.417 0.189 0.835 0.348 1.25 0.483 1.96 0.624 3.95 0.631 6.05-0.234 0.833-0.333 2.05-0.0718 3.02 0.214 0.151 0.0416 0.302 0.0687 0.452 0.103 0.281 0.0637 0.559 0.115 0.84 0.154 1.21 0.17 2.43 0.135 3.62 0.0409 0.191-0.0147 0.383-0.0262 0.574-0.0434 0.483-0.0435 0.969-0.091 1.46-0.136 1.31-0.119 2.71-0.238 3.98 0.0717 0.111 0.0267 0.22 0.0361 0.331 0.0547 0.245 0.0426 0.488 0.0659 0.728 0.0742 1.48 0.0471 2.88-0.452 4.33-0.509 3.9-0.167 7.26-2.36 11.1-2.83 1.56-0.204 3.07-0.588 4.52-1.08 0.0172-7e-3 0.0345-0.0119 0.0517-0.0172 2.43-0.821 4.76-1.93 7.12-3 0.678-0.305 1.14-0.205 1.44 0.267 0.109 0.161 0.2 0.362 0.269 0.614 0.405 1.43 0.905 2.83 1.33 4.26 0.119 0.405 0.19 0.905 0.0952 1.31-0.619 2.52-1.21 5.07-2.02 7.52-0.333 1.02-1.19 1.88-1.83 2.81-0.309 0.452-0.714 0.809-0.928 1.29-0.786 1.74-1.31 3.59-2.76 5.05-0.5 0.5-0.381 1.62-0.524 2.48-0.158 0.916-0.319 1.81-0.683 2.64-0.0276 0.0621-0.0574 0.124-0.0878 0.184-0.12 0.243-0.271 0.474-0.443 0.697-0.0829 0.106-0.173 0.209-0.269 0.309-0.0981 0.103-0.162 0.219-0.276 0.317-0.381 0.309-0.428 1-0.643 1.5-0.881 2.19-1.74 4.4-2.69 6.57-0.238 0.547-0.833 1-1.33 1.4-0.881 0.738-1.93 1.29-2.74 2.07-1.37 1.32-1.5 2.67-0.517 3.74 0.331 0.348 0.781 0.662 1.35 0.933 0.381 0.19 0.762 0.381 1.14 0.595h-0.0219c0.015 7e-3 0.0305 0.0162 0.0455 0.0238h1.19c0.309-0.167 0.643-0.286 0.928-0.5 1.52-1.12 3.55-1.95 4.4-3.45 1.17-2.05 2.33-4.09 3.48-6.17 1.26-2.26 2.88-4.14 4.76-5.86 0.571-0.547 0.928-1.02 1.02-1.88 0.0476-0.643 0.452-1.52 0.976-1.79 1.07-0.547 1.12-1.43 1.29-2.33 0.119-0.619 0.214-1.24 0.333-1.86 0.167-0.905 0.69-1.45 1.52-1.93 1.64-0.928 3.19-2.02 4.67-3.21 1-0.809 1.29-2 1.12-3.33-0.214-1.69-0.333-3.4-0.357-5.09 0-0.547 0.357-1.21 0.762-1.57 1.43-1.24 2.95-2.38 4.5-3.5 0.595-0.452 0.762-0.952 0.881-1.67 0.262-1.74 0.476-3.59 1.26-5.09 0.666-1.29 0.666-2.19-0.0952-3.21-0.69-0.905-0.643-1.79-0.238-2.76 0.595-1.43 1.12-2.88 1.74-4.28 1.05-2.4 0.5-4.38-1.55-5.97-0.69-0.524-0.69-1.14-0.238-1.74 0.381-0.5 0.857-0.928 1.33-1.33 0.809-0.69 1.76-1.26 2.43-2.07 0.476-0.595 0.69-1.45 0.809-2.24 0.19-1.19 0.357-2.43 0.238-3.62-0.0952-1.07-0.333-2.33-1-3.07-1.55-1.69-3.4-3.07-5.05-4.67-0.595-0.571-0.833-1.48-1.31-2.17-0.452-0.666-0.905-1.48-1.57-1.83-1.86-1.02-3.88-1.33-5.97-0.786-1.52 0.405-3.02 0.857-4.52 1.33-1.83 0.571-3.78 1-4.36 3.28-0.0476 0.143-0.167 0.262-0.286 0.381-1.62 1.62-3.62 2.69-5.81 3-2.48 0.357-4.31 1.45-5.67 3.45-0.714 1.02-1.26 2.17-1.86 3.24-1.31-0.333-2.62-0.666-3.93-0.928-0.976-0.214-1.69 0.143-2.02 1.14-0.547 1.69-1.24 3.33-1.71 5.05-0.571 2.02 0.571 4.12 2.4 4.48 2.95 0.595 5.67-0.143 8.16-1.69 0.428-0.262 0.666-0.857 0.952-1.31 0.619-1.05 1.09-2.19 1.86-3.14 1.02-1.26 2.64-1.33 3.57-0.0237 0.857 1.21 1.5 2.71 1.79 4.17 0.262 1.29-0.381 2.76 1.12 3.67 0.0476 0.0237 0.071 0.143 0.0947 0.214 0.428 1.45 0.881 2.88 1.21 4.33 0.381 1.71-0.476 2.9-2.19 3.43-1.43 0.428-2.88 0.833-4.26 1.4-0.738 0.309-1.48 0.857-1.98 1.5-1.45 1.86-4.97 3.02-6.71 2.19-1.76-0.833-3.59-1.57-5.43-2.31-0.405-0.167-1.02-0.309-1.36-0.119-1.71 1-3.5 1-5.36 0.643-0.286-0.0477-0.643 0.0237-0.928 0.143-1.05 0.476-2.05 0.286-3.09-0.0474-2.69-0.881-5.4-1.36-8.26-0.643-1 0.238-2.33 0.167-3.19-0.333-1.79-1.07-3.67-1.36-5.64-1.5-2.57-0.19-5-0.571-6.81-2.83-1.38-1.76-3.38-2.4-5.69-2.45-2.05-0.0477-4.05-0.643-5.81-1.86-1.24-0.857-2.48-1.83-3.88-2.26-1.71-0.524-2.86-1.55-3.76-2.9-1.02-1.55-2.05-3.12-2.88-4.78-0.809-1.64-1.9-2.86-3.55-3.74-1.59-0.857-2.83-2.09-2.48-4.28 0.357-2.26-0.5-4.17-1.9-6.02-2.14-2.86-3.19-6.07-1.71-9.66 0.476-1.17 1.05-2.38 1.17-3.59 0.214-2.14 1.21-3.69 2.74-5.07 0.309-0.286 0.595-0.786 0.619-1.19 0.167-2.09 1-3.9 2.26-5.52 1.81-2.33 4.19-3.95 6.69-5.45 0.357-0.214 0.643-0.547 0.952-0.833 0.643-0.619 1.19-1.45 1.95-1.81 2.33-1.05 4.67-2.09 7.12-2.81 2.24-0.643 4.57-0.928 6.88-1.24 2.9-0.381 5.81-0.666 8.43-2.19 0.905-0.524 1.98-0.786 2.95-1.21 1.45-0.619 2.93-0.595 4.43-0.286 0.5 0.119 1.02 0.167 1.52 0.0952 1.76-0.238 3.52-0.5 5.26-0.857 2.59-0.524 5.09-0.405 7.52 0.738 1.14 0.524 2.31 1.12 3.52 1.36 3.4 0.666 5.95 2.4 7.66 5.43 1 1.79 2.4 2.88 4.62 2.4 0.143-0.0476 0.309-0.0238 0.476 0 2.5 0.286 3.95 2.9 2.86 5.12-0.524 1.07-1.02 2.14-1.52 3.21-0.976 2.14-0.333 4.43 1.71 5.64 0.833 0.5 1.79 0.809 2.74 1.05 2.78 0.714 5.81-2.29 5.28-5.14-0.119-0.762-0.0476-1.57-0.0952-2.36-0.0714-1.52 0.0712-3.12-0.309-4.57-0.428-1.64-0.333-2.93 0.857-4.19 0.381-0.405 0.381-1.17 0.595-1.74 0.381-1.05 0.5-2.5 1.26-3.09 3.78-2.98 6.31-7.38 10.8-9.55 0.738-0.357 0.809-1.09 0.214-1.69-1.17-1.19-2.33-2.38-3.62-3.43-0.476-0.381-1.29-0.524-1.95-0.524-1 0-2.07 0.405-3.05 0.262-2.81-0.381-5.62-0.857-8.38-1.5-1.12-0.262-1.88-0.167-2.81 0.5-1.95 1.4-3.86 2.95-6.52 2.76-1.88-0.119-2.14-0.286-2.55-2.09-0.0952-0.428-0.357-1.09-0.643-1.14-1.81-0.286-3.67-0.619-5.47-0.571z" />

    </symbol>
</svg>