<svg aria-hidden="true" style="position: absolute; width: 0; height: 0; overflow: hidden;" xmlns="http://www.w3.org/2000/svg">
    <symbol id="icon-quill" viewBox="0 0 48 48">
        <path d="m36.6 0.0089c-0.0736 0.417-0.118 0.839-0.221 1.25-0.412 1.68-1.2 3.16-2.36 4.45-0.113 0.128-0.216 0.265-0.319 0.402-0.0294 0.0392-0.054 0.0785-0.113 0.172 0.706-0.167 1.27-0.485 1.81-0.897-0.0981 1.47-0.574 2.82-1.32 4.07-0.755 1.27-1.69 2.36-3.02 3.06 0.485 0.0834 0.932-0.0687 1.37-0.226 0.432-0.152 0.848-0.348 1.3-0.535-0.181 0.485-0.348 0.956-0.53 1.43-0.652 1.7-1.44 3.32-2.6 4.74-0.755 0.917-1.64 1.67-2.71 2.22-0.103 0.054-0.196 0.113-0.294 0.177-0.0196 0.0098-0.0294 0.0392-0.0736 0.108 0.986 0.0098 1.84-0.353 2.76-0.711-0.157 0.378-0.284 0.691-0.417 1-0.667 1.56-1.41 3.08-2.44 4.45-1.15 1.52-2.45 2.86-4.19 3.72-0.0491 0.0245-0.0883 0.0588-0.162 0.108 1.15-0.0294 2.16-0.363 3.09-0.986-0.623 1.39-1.51 2.57-2.65 3.57-1.15 0.996-2.53 1.59-3.88 2.23 0.0098 0.0294 0.0147 0.0588 0.0245 0.0834 0.829-0.118 1.66-0.235 2.53-0.363-0.0834 0.103-0.137 0.181-0.201 0.25-0.657 0.77-1.42 1.39-2.36 1.78-0.863 0.358-1.73 0.731-2.59 1.09-0.118 0.0491-0.245 0.0736-0.422 0.128 0.0442-0.162 0.0686-0.284 0.113-0.397 0.907-2.29 1.79-4.59 2.74-6.86 2.26-5.41 4.91-10.6 7.63-15.8 1.39-2.64 2.83-5.27 4.26-7.91 0.0392-0.0785 0.0785-0.157 0.0785-0.255-0.0883 0.118-0.186 0.235-0.27 0.353-1.21 1.69-2.22 3.5-3.24 5.3-3.3 5.84-6.39 11.8-9.05 17.9-2.49 5.77-4.72 11.6-6.74 17.6-0.128 0.378-0.284 0.745-0.446 1.11-0.0344 0.0785-0.147 0.127-0.221 0.191-0.0392-0.0932-0.128-0.191-0.113-0.275 0.0932-0.642 0.162-1.29 0.324-1.92 0.731-2.89 1.73-5.69 2.75-8.48 0.23-0.633 0.245-1.22 0.0883-1.85-0.27-1.08-0.515-2.17-0.726-3.27-0.0932-0.481-0.0638-0.991-0.0834-1.49-0.0051-0.0932 0.0344-0.186 0.0686-0.343 0.27 0.701 0.579 1.31 1.04 1.85-0.309-1.24-0.476-2.49-0.485-3.76-0.0098-1.29 0.275-2.5 0.883-3.72 0.0736 0.961 0.294 1.8 0.819 2.63 0.0051-0.142 0.0147-0.221 0.0147-0.304-0.0098-0.848-0.0294-1.7-0.0294-2.55 0-2.66 0.794-5.09 2.18-7.34 0.0539-0.0834 0.123-0.157 0.186-0.235 0.0196 0.0049 0.0442 0.0098 0.0638 0.0147 0.0147 0.142 0.0392 0.28 0.0442 0.422 0.0245 0.628 0.0196 1.26 0.0736 1.88 0.0294 0.333 0.152 0.662 0.275 0.996 0.108-4.22 1.86-7.75 4.51-11 0.0588 1.02 0.0294 2 0.299 2.93 0.0245 0 0.0442 0.0049 0.0686 0.0049 0.0245-0.147 0.0638-0.289 0.0785-0.436 0.172-1.67 0.682-3.22 1.57-4.64 0.544-0.873 1.28-1.59 2.03-2.29 0.476-0.441 1.01-0.829 1.51-1.24 0.0588-0.049 0.132-0.0834 0.206-0.132-0.0588 0.745-0.118 1.48-0.172 2.2 0.0196 0.00491 0.0392 0.00981 0.0539 0.0147 0.0491-0.132 0.0981-0.27 0.142-0.402 0.481-1.5 1.28-2.78 2.54-3.75 0.897-0.691 1.9-1.16 2.98-1.48 0.0392-0.00981 0.0686-0.0343 0.108-0.049h0.0491c-0.0245 0.0834-0.0344 0.172-0.0785 0.24-0.0981 0.157-0.216 0.304-0.319 0.461-0.211 0.319-0.417 0.642-0.623 0.966 0.0147 0.0147 0.0344 0.0294 0.049 0.0441 0.804-0.662 1.62-1.3 2.58-1.72 0.0687 0.00491 0.132 0.00491 0.196 0.00491z" />
    </symbol>
    <symbol id="icon-axe" viewBox="0 0 48 48">
        <path d="m28.3 7.34c-0.0269-0.0185-0.067-0.0326-0.113-0.0402l-1.44-0.237c-0.0924-0.0152-0.173 0.00512-0.183 0.0467l-0.563 2.33c-0.0436-0.0041-0.0795 0.00992-0.0934 0.0365l-0.0255-0.00356-0.0011 0.00151-0.145 0.607-0.197 0.826c-0.0142-5e-3 -0.0256-0.012-0.0428-0.015l-0.0041-8.44e-4c-0.0896-0.03-0.178-0.0591-0.266-0.0903-0.0532-0.0189-0.109-0.0379-0.161-0.0572-0.117-0.0432-0.23-0.0884-0.344-0.134-0.0517-0.0205-0.106-0.0396-0.157-0.0606-0.111-0.0455-0.219-0.0939-0.326-0.141-0.0518-0.0229-0.105-0.0442-0.156-0.0674-0.0991-0.0452-0.194-0.0922-0.29-0.139-0.0563-0.0274-0.115-0.0555-0.17-0.0834-0.0869-0.0439-0.169-0.0889-0.254-0.134-0.0613-0.0329-0.125-0.0644-0.185-0.0979-0.0727-0.0406-0.142-0.0841-0.213-0.126-0.0688-0.0404-0.139-0.0784-0.206-0.12-0.0626-0.0386-0.122-0.0792-0.183-0.119-0.0701-0.0452-0.141-0.0909-0.209-0.137-0.0607-0.0411-0.12-0.0827-0.179-0.125-0.066-0.0468-0.133-0.0937-0.197-0.141-0.0515-0.0384-0.101-0.0782-0.151-0.117-0.0691-0.0536-0.139-0.106-0.206-0.161-0.0428-0.035-0.0834-0.0727-0.125-0.108-0.0707-0.0599-0.141-0.12-0.209-0.181-0.0409-0.0367-0.0804-0.0744-0.12-0.112-0.0658-0.0612-0.132-0.122-0.195-0.184-0.0386-0.038-0.0751-0.0768-0.113-0.115-0.0631-0.0644-0.126-0.129-0.187-0.195-0.0298-0.0322-0.0591-0.0654-0.0884-0.098-0.0653-0.0727-0.13-0.144-0.193-0.218-0.0306-0.0363-0.06-0.0748-0.09-0.111-0.0581-0.0711-0.117-0.142-0.172-0.214-0.0066-0.00847-0.0112-0.0179-0.0177-0.0264-0.162-0.212-0.315-0.429-0.457-0.653-0.0678-0.107-0.125-0.218-0.188-0.327-0.0754-0.13-0.156-0.258-0.225-0.39-0.0582-0.112-0.107-0.228-0.161-0.341-0.0644-0.135-0.133-0.269-0.191-0.407-0.0523-0.123-0.0962-0.251-0.144-0.376-0.0516-0.135-0.107-0.266-0.154-0.404-0.052-0.153-0.0954-0.311-0.142-0.467-0.0339-0.114-0.0719-0.225-0.103-0.341-0.0625-0.233-0.117-0.47-0.168-0.709-0.0089-0.0417-0.0196-0.0829-0.0282-0.125-0.0581-0.283-0.109-0.569-0.153-0.86-0.0394-0.262-0.0718-0.528-0.101-0.796-0.0041-0.0383-0.0085-0.0761-0.0124-0.115l-0.0014-0.00118c-0.0296-0.291-0.0529-0.584-0.0712-0.881l-0.0014-0.00118c-2e-3 0.00238-4e-3 0.00499-0.0057 0.00756-1e-3 0.00124-0.0012 0.0018-0.0023 0.00302-0.00192-0.0289-0.00591-0.0575-0.00772-0.0864-5.93 7.21-7.98 15.7-6.16 25.4l0.0024-0.0032c0.0048 0.0261 0.0111 0.0525 0.016 0.0785 1.72-1.89 3.45-3.77 5.38-5.15 9e-3 -0.0066 0.0187-0.0149 0.0279-0.0213 0.207-0.147 0.418-0.284 0.63-0.418 0.0391-0.0247 0.0772-0.052 0.116-0.0764 0.195-0.121 0.394-0.232 0.593-0.341 0.0588-0.0322 0.115-0.069 0.174-0.1 0.384-0.202 0.777-0.382 1.18-0.536l0.0027-3.42e-4c0.133-0.0509 0.266-0.0976 0.402-0.143 0.0036-0.0013 0.0076-0.0043 0.0113-0.0055 0.133-0.0444 0.267-0.0865 0.403-0.125 0.0058-0.0017 0.011-0.0019 0.0168-0.0035 0.134-0.0379 0.27-0.0731 0.406-0.105 8e-3 -2e-3 0.0151-0.0038 0.0231-0.0057 0.13-0.0303 0.26-0.058 0.392-0.0829 0.0159-0.0029 0.0332-0.0061 0.0491-9e-3 0.132-0.0242 0.264-0.0446 0.398-0.0632 0.0148-0.0021 0.0305-0.0052 0.0454-0.0072 0.135-0.0181 0.271-0.0331 0.408-0.0454 0.0146-0.0013 0.0284-0.0029 0.0431-0.0041 0.142-0.012 0.286-0.0194 0.43-0.025 0.0102-4.69e-4 0.0199-0.0021 0.0301-0.0025 0.144-0.0052 0.29-0.0067 0.437-0.0053 0.0119 1.4e-5 0.0237-5.95e-4 0.0356-4.61e-4 0.135 0.0018 0.272 0.0085 0.409 0.016l-0.204 0.82c-0.0073 0.029 0.0203 0.0543 0.0585 0.069l-0.0538 0.224-0.0011 0.0016 0.0917 0.0156-5.78 23.9a1.77 2.58 17.8 0 0-1.35 1.97 1.77 2.58 17.8 0 0 1.14 2.8 1.77 2.58 17.8 0 0 2.38-2.19 1.77 2.58 17.8 0 0-0.373-2.35l5.76-23.8 0.112 0.0198 0.0534-0.227 0.36-1.49 0.0015 0.0012c0.0544-0.0034 0.115-0.0196 0.178-0.0391 0.0134-0.0041 0.0235-0.0039 0.0373-0.0088 0.0784-0.0282 0.162-0.0694 0.253-0.124 1.79-1.07 10.6-0.957 10.6-0.957 0 0-1.09-0.454-2.5-1.1-0.0617-0.0281-0.109-0.0488-0.172-0.0777-2.51-1.15-5.94-2.87-6.45-3.88-0.0011-0.0023-2e-3 -0.0026-0.0033-0.0051-0.0377-0.073-0.0773-0.134-0.118-0.187-0.0133-0.0175-0.0267-0.0341-0.0403-0.0495-0.0364-0.0412-0.0733-0.0752-0.111-0.102-0.0137-0.0097-0.0276-0.0182-0.0414-0.0261-0.0235-0.0132-0.0474-0.025-0.0714-0.0332l0.331-1.32c3e-3 -0.0116-0.0055-0.0231-0.012-0.034l0.0642-0.269-0.0981-0.0134 0.558-2.31c5e-3 -0.0208-0.0084-0.0439-0.0352-0.0624z" />
    </symbol>
    <symbol id="icon-sort" viewBox="0 0 48 48">
        <path d="m12 0c-.11-.0023-.24.063-.39.2-.22.2-.29.32-.92 1.7-.28.59-.51 1.1-.52 1.1-.0076.0074-.12-.022-.24-.068-.31-.12-.7-.1-.96.043-.1.052-.19.092-.19.088-.0037-.0075-.38-.58-.84-1.3-.52-.79-.87-1.3-.92-1.3-.21-.069-.56.14-.62.37-.023.094.52 9.2.56 9.5.011.041.48.56 1 1.2l.72.76v26c-.13-.08-1.9-1.4-2.5-1.8-.097-.072-.18-.12-.17-.098-.00013.015.053.14.12.28.2.43 1.1 2.5 1.3 3.2 1.2 3.1 1.8 5.5 1.8 7.9-.0038.45.0065.54.059.59.15.15.55-.052.61-.31.019-.075.1-.73.19-1.4.38-3.4.64-5 1.1-6.4.36-1.2.76-2.1 1.3-2.9l.27-.39-.074-.1c-.037-.053-.13-.14-.2-.2-.25-.2-.23-.21-1.1.45-.42.31-.76.56-.82.6v-25c.17-.25.45-.68.81-1.2l.79-1.2.053-2.4c.034-1.3.072-3.4.086-4.6.03-2.1.025-2.3-.041-2.4-.066-.14-.15-.21-.26-.21z" />
        <path d="m33 0c-1.9 0-3.3.12-4.2.41l-.0039.002h-.002c-1 .33-2.2 1.1-3.5 2.3l.41.67c.93-.38 2.3-.58 4.1-.58h.49c-.036.11-.12.36-.31.82l-.002.002v.0039c-.21.54-.53 1.3-.96 2.3-.43.96-.85 1.9-1.3 2.9l-.002.002c-.41.94-.81 1.9-1.2 2.8-.39.93-.8 1.9-1.2 2.8h-.002v.002c-.42.9-.87 1.8-1.4 2.7l-.002.002v.002c-.48.87-.93 1.6-1.3 2.1-.42.55-.75.97-.99 1.2-.25.27-.44.48-.58.63-.064.069-.11.13-.15.17-.02.023-.037.04-.055.062-.0027.0034-.0069.0099-.0098.014l-.68.68h1.5c1.1 0 1.9-.044 2.5-.14l-.002.002c.43-.061.85-.15 1.3-.28l.0059-.002h.0039c.42-.14.83-.32 1.2-.56.43-.24.97-.62 1.6-1.1.3-.23.63-.49.99-.76l-.45-.66c-.2.12-.6.29-1.2.47h-.002c-.5.16-1.4.26-2.6.26-.12 0-.17.0017-.27.002.014-.016.029-.035.043-.051 1-1.2 2.1-2.8 3.1-4.9h.69c2.5.034 4-.19 5.1-.72.35 1.1.72 2.3 1.2 3.8.48 1.7.89 2.9 1.2 3.7.27.61.73 1 1.3 1.2s1.2.021 2-.3l.002-.002h.002c.23-.1.45-.22.66-.34l.59-.36.0059-.0039c.23-.15.67-.47 1.4-1l.004-.004c.27-.21.58-.45.93-.71l-.45-.66c-.17.11-.45.24-.82.39h-.002l-.002.002c-.33.14-.63.2-.91.2-.52 0-.8-.15-1-.51-.11-.19-.21-.4-.29-.64l.0039.018c-.087-.31-.36-1.1-.84-2.5v-.002c-.47-1.4-1.2-3.7-2.1-6.8l-1.3-4.3.002.002c-.42-1.4-.84-2.9-1.3-4.2l-.086-.29zm-1.3 6.3c.63 2.1 1.2 3.8 1.5 5-.44.02-.87.043-1.3.043l-2.5-.051c.76-1.7 1.5-3.3 2.2-5z" />
        <path d="m41 26-1.5.17c-.67.075-1.5.11-2.5.11l-7.1-.23h-1.3c-.46 0-.88.035-1.3.11h-.002c-.54.092-1.1.44-1.8.99v-.002c-.29.22-.57.44-.83.66-.25.2-.45.36-.58.46l-1.4 1.1 1.7-.2c.67-.075 1.5-.11 2.5-.11l7.1.23h.0098c.59 0 1-.043 1.5-.068-.39.46-.76.83-1.2 1.5-.33.48-.67.99-1 1.5l-.002.0039-.002.002c-.33.53-.66 1.1-.97 1.6-.31.51-.61 1-.89 1.5l-.002.002-.002.0039c-.27.46-.55.92-.83 1.4-.28.45-.62 1-1 1.6-2.8 4.5-5.2 7.5-6.9 9.1l-1 .88h14c.51 0 1-.088 1.6-.26l.0059-.002c1.5-.48 2.8-1.4 3.9-2.7l-.59-.77c-1.1.49-2 .72-2.6.72l-7.1-.21h-.0078c-1.4 0-2.7.13-4.1.27 1.1-1 2.2-2.1 3.2-3.6.59-.82 1.2-1.7 1.7-2.5l.002-.002c.54-.85 1.1-1.7 1.7-2.6v-.002c.58-.92 1.2-1.9 1.8-2.8l.002-.002c.61-.98 1.2-2 1.9-3l.0039-.0039.002-.0039c1.2-1.9 2.1-3.2 2.8-3.7z" />
    </symbol>
    <symbol id="icon-show-card" viewBox="0 0 48 48">
        <path d="m24 10.5c-10.5 0-19.5 6.1-24 15 4.46 8.91 13.5 15 24 15s19.5-6.1 24-15c-4.46-8.91-13.5-15-24-15zm11.8 7.96c2.82 1.8 5.21 4.21 7.01 7.05-1.8 2.84-4.19 5.25-7.01 7.05-3.54 2.26-7.64 3.46-11.8 3.46s-8.29-1.19-11.8-3.46c-2.82-1.8-5.21-4.21-7.01-7.05 1.8-2.84 4.19-5.25 7.01-7.05 0.183-0.117 0.369-0.231 0.557-0.342-0.467 1.28-0.723 2.66-0.723 4.11 0 6.63 5.37 12 12 12s12-5.37 12-12c0-1.44-0.255-2.83-0.723-4.11 0.186 0.111 0.372 0.225 0.557 0.342zm-11.8 2.55c0 2.49-2.01 4.5-4.5 4.5-2.49 0-4.5-2.01-4.5-4.5 0-2.49 2.01-4.5 4.5-4.5 2.49 0 4.5 2.01 4.5 4.5z" />
    </symbol>
    <symbol id="icon-hide-card" viewBox="0 0 48 48">
        <path d="m38.9 15.1-3.25 3.25c0.06 0.0375 0.119 0.0735 0.177 0.111 2.82 1.8 5.21 4.21 7.01 7.05-1.8 2.84-4.19 5.25-7.01 7.05-3.54 2.26-7.64 3.45-11.8 3.45-1.81 0-3.6-0.224-5.34-0.659l-3.6 3.6c2.8 1.01 5.81 1.55 8.95 1.55 10.5 0 19.5-6.1 24-15-2.11-4.22-5.26-7.8-9.09-10.4zm-2.91 7.13c0-1.27-0.2-2.5-0.567-3.65l-15.1 15.1c1.15 0.368 2.38 0.567 3.65 0.567 6.63 0 12-5.37 12-12zm8.34-20.1c-0.879-0.879-2.3-0.879-3.18 0l-9.48 9.48c-2.43-0.738-5.01-1.14-7.68-1.14-10.5 0-19.5 6.1-24 15 1.93 3.85 4.72 7.17 8.11 9.71l-7.45 7.45c-0.879 0.879-0.879 2.3 0 3.18 0.44 0.44 1.02 0.659 1.59 0.659s1.15-0.219 1.59-0.659l40.5-40.5c0.879-0.879 0.879-2.3 0-3.18zm-24.8 14.3c1.98 0 3.66 1.28 4.26 3.06l-5.71 5.71c-1.78-0.602-3.06-2.28-3.06-4.26 0-2.49 2.01-4.5 4.5-4.5zm-14.3 9c1.8-2.84 4.19-5.25 7.01-7.05 0.183-0.117 0.369-0.231 0.557-0.342-0.467 1.28-0.723 2.66-0.723 4.11 0 2.57 0.81 4.96 2.19 6.91l-2.86 2.86c-2.46-1.73-4.56-3.93-6.17-6.48z" />
    </symbol>
    <symbol id="icon-show-label" viewBox="0 0 48 48">
        <path d="m46.7 24.2-24.4-24.2h-22.2l-0.0519 22.2 24.1 24.6c1.58 1.58 4.13 1.61 5.69 0.0459l16.9-16.9c1.56-1.56 1.54-4.11-0.0459-5.69zm-40.7-14.2c0-2.2 1.79-3.99 3.99-3.99 2.2 0 3.99 1.79 3.99 3.99 0 2.2-1.79 3.99-3.99 3.99-2.2 0-3.99-1.79-3.99-3.99zm21.7 27.8-15.5-15.5 1.41-1.41 15.5 15.5zm4.23-4.23-15.5-15.5 1.41-1.41 15.5 15.5zm4.23-4.23-15.5-15.5 1.41-1.41 15.5 15.5z" />
    </symbol>
    <symbol id="icon-hide-label" viewBox="0 0 48 48">
        <path d="m0.0996 0-0.0508 22.2 11.5 11.8 6.14-6.14-5.51-5.51 1.41-1.41 5.51 5.51 2.82-2.82-5.51-5.51 1.41-1.41 5.51 5.51 2.82-2.82-5.51-5.51 1.41-1.41 5.51 5.51 6.38-6.38-11.7-11.6h-22.2zm33.9 11.6 2.48 2.46 10.4-10.4-2.47-2.47-10.4 10.4zm2.48 2.46-6.39 6.39 7.51 7.51-1.41 1.41-7.51-7.51-2.82 2.82 7.51 7.51-1.41 1.41-7.51-7.51-2.82 2.82 7.51 7.51-1.41 1.41-7.51-7.51-6.17 6.17 10.1 10.3c1.58 1.58 4.13 1.61 5.69 0.0449l16.9-16.9c1.56-1.56 1.54-4.11-0.0469-5.69l0.00781-0.0566-10.3-10.2zm-22.4 22.4-2.45-2.5-10.4 10.4 2.47 2.47 10.4-10.4zm6.17-6.17 1.41-1.41-2.48-2.48-1.41 1.41 2.48 2.48zm4.23-4.23 1.41-1.41-2.48-2.48-1.41 1.41 2.48 2.48zm4.23-4.23 1.41-1.41-2.48-2.48-1.41 1.41 2.48 2.48zm-18.7-15.8c2.2 0 3.99 1.79 3.99 3.99s-1.79 3.99-3.99 3.99c-2.2 0-3.99-1.79-3.99-3.99s1.79-3.99 3.99-3.99z" />
    </symbol>
    <symbol id="icon-drag-grip" viewBox="0 0 48 48">
        <path d="m38.3 23.9a4.78 4.78 0 0 1-4.78 4.78 4.78 4.78 0 0 1-4.78-4.78 4.78 4.78 0 0 1 4.78-4.78 4.78 4.78 0 0 1 4.78 4.78zm-19.1 1e-6a4.78 4.78 0 0 1-4.78 4.78 4.78 4.78 0 0 1-4.78-4.78 4.78 4.78 0 0 1 4.78-4.78 4.78 4.78 0 0 1 4.78 4.78zm19.1 19.3a4.78 4.78 0 0 1-4.78 4.78 4.78 4.78 0 0 1-4.78-4.78 4.78 4.78 0 0 1 4.78-4.78 4.78 4.78 0 0 1 4.78 4.78zm-19.1-4e-6a4.78 4.78 0 0 1-4.78 4.78 4.78 4.78 0 0 1-4.78-4.78 4.78 4.78 0 0 1 4.78-4.78 4.78 4.78 0 0 1 4.78 4.78zm19.1-38.4a4.78 4.78 0 0 1-4.78 4.78 4.78 4.78 0 0 1-4.78-4.78 4.78 4.78 0 0 1 4.78-4.78 4.78 4.78 0 0 1 4.78 4.78zm-19.1 1.1e-6a4.78 4.78 0 0 1-4.78 4.78 4.78 4.78 0 0 1-4.78-4.78 4.78 4.78 0 0 1 4.78-4.78 4.78 4.78 0 0 1 4.78 4.78z" />
    </symbol>
</svg>